<svg width="24" height="25" viewBox="0 0 24 25" fill="none" xmlns="http://www.w3.org/2000/svg">
<g clip-path="url(#clip0_277_61)">
<path d="M3.05556 21.2779H4.87639L17.3667 8.78766L15.5458 6.96683L3.05556 19.4571V21.2779ZM0.5 23.8335V18.4029L17.3667 1.56822C17.6222 1.33396 17.9044 1.15294 18.2132 1.02516C18.522 0.897385 18.8468 0.833496 19.1875 0.833496C19.5282 0.833496 19.8583 0.897385 20.1778 1.02516C20.4972 1.15294 20.7741 1.34461 21.0083 1.60016L22.7653 3.38905C23.0208 3.62331 23.2072 3.90016 23.3243 4.21961C23.4414 4.53905 23.5 4.8585 23.5 5.17794C23.5 5.51868 23.4414 5.84345 23.3243 6.15225C23.2072 6.46104 23.0208 6.74322 22.7653 6.99877L5.93056 23.8335H0.5ZM16.4403 7.89322L15.5458 6.96683L17.3667 8.78766L16.4403 7.89322Z" fill="white"/>
</g>
<defs>
<clipPath id="clip0_277_61">
<rect width="24" height="24" fill="white" transform="translate(0 0.333496)"/>
</clipPath>
</defs>
</svg>
