<svg width="24" height="25" viewBox="0 0 24 25" fill="none" xmlns="http://www.w3.org/2000/svg">
<g clip-path="url(#clip0_277_153)">
<path d="M12 24.25C8.66667 24.25 5.83333 23.0833 3.5 20.75C1.16667 18.4167 0 15.5833 0 12.25C0 8.91667 1.16667 6.08333 3.5 3.75C5.83333 1.41667 8.66667 0.25 12 0.25C12.3111 0.25 12.6167 0.261111 12.9167 0.283333C13.2167 0.305556 13.5111 0.338889 13.8 0.383333C12.8889 1.02778 12.1611 1.86667 11.6167 2.9C11.0722 3.93333 10.8 5.05 10.8 6.25C10.8 8.25 11.5 9.95 12.9 11.35C14.3 12.75 16 13.45 18 13.45C19.2222 13.45 20.3444 13.1778 21.3667 12.6333C22.3889 12.0889 23.2222 11.3611 23.8667 10.45C23.9111 10.7389 23.9444 11.0333 23.9667 11.3333C23.9889 11.6333 24 11.9389 24 12.25C24 15.5833 22.8333 18.4167 20.5 20.75C18.1667 23.0833 15.3333 24.25 12 24.25ZM12 21.5833C13.9556 21.5833 15.7111 21.0444 17.2667 19.9667C18.8222 18.8889 19.9556 17.4833 20.6667 15.75C20.2222 15.8611 19.7778 15.95 19.3333 16.0167C18.8889 16.0833 18.4444 16.1167 18 16.1167C15.2667 16.1167 12.9389 15.1556 11.0167 13.2333C9.09444 11.3111 8.13333 8.98333 8.13333 6.25C8.13333 5.80556 8.16667 5.36111 8.23333 4.91667C8.3 4.47222 8.38889 4.02778 8.5 3.58333C6.76667 4.29444 5.36111 5.42778 4.28333 6.98333C3.20556 8.53889 2.66667 10.2944 2.66667 12.25C2.66667 14.8278 3.57778 17.0278 5.4 18.85C7.22222 20.6722 9.42222 21.5833 12 21.5833Z" fill="white"/>
</g>
<defs>
<clipPath id="clip0_277_153">
<rect width="24" height="24" fill="white" transform="translate(0 0.25)"/>
</clipPath>
</defs>
</svg>
