<svg width="24" height="25" viewBox="0 0 24 25" fill="none" xmlns="http://www.w3.org/2000/svg">
<path d="M12 22.5265C11.1636 21.8644 10.2576 21.3504 9.28182 20.9845C8.30606 20.6185 7.29545 20.4356 6.25 20.4356C5.51818 20.4356 4.79943 20.5314 4.09375 20.7231C3.38807 20.9148 2.71288 21.1848 2.06818 21.5333C1.70227 21.725 1.34943 21.7163 1.00966 21.5072C0.669886 21.2981 0.5 20.9932 0.5 20.5924V7.99468C0.5 7.80302 0.547917 7.62006 0.64375 7.44582C0.739583 7.27158 0.883333 7.14089 1.075 7.05377C1.87652 6.63559 2.71288 6.32196 3.58409 6.11286C4.4553 5.90377 5.34394 5.79923 6.25 5.79923C7.26061 5.79923 8.24943 5.92991 9.21648 6.19127C10.1835 6.45264 11.1114 6.84468 12 7.36741V20.0174C12.8886 19.4598 13.8208 19.0417 14.7966 18.7629C15.7723 18.4841 16.7568 18.3447 17.75 18.3447C18.3773 18.3447 18.9915 18.397 19.5926 18.5015C20.1937 18.606 20.7992 18.7629 21.4091 18.972V6.4265C21.6705 6.51362 21.9275 6.6051 22.1801 6.70093C22.4328 6.79677 22.6811 6.91438 22.925 7.05377C23.1167 7.14089 23.2604 7.27158 23.3562 7.44582C23.4521 7.62006 23.5 7.80302 23.5 7.99468V20.5924C23.5 20.9932 23.3301 21.2981 22.9903 21.5072C22.6506 21.7163 22.2977 21.725 21.9318 21.5333C21.2871 21.1848 20.6119 20.9148 19.9062 20.7231C19.2006 20.5314 18.4818 20.4356 17.75 20.4356C16.7045 20.4356 15.6939 20.6185 14.7182 20.9845C13.7424 21.3504 12.8364 21.8644 12 22.5265ZM14.0909 17.2992V7.36741L19.3182 2.14014V12.5947L14.0909 17.2992ZM9.90909 18.9981V8.64809C9.33409 8.40415 8.73731 8.21684 8.11875 8.08616C7.50019 7.95548 6.87727 7.89014 6.25 7.89014C5.6053 7.89014 4.97803 7.95112 4.36818 8.07309C3.75833 8.19506 3.16591 8.37802 2.59091 8.62196V18.9981C3.20076 18.7716 3.80625 18.606 4.40739 18.5015C5.00852 18.397 5.62273 18.3447 6.25 18.3447C6.87727 18.3447 7.49148 18.397 8.09261 18.5015C8.69375 18.606 9.29924 18.7716 9.90909 18.9981Z" fill="white"/>
</svg>
