<svg width="24" height="24" viewBox="0 0 24 24" fill="none" xmlns="http://www.w3.org/2000/svg">
<path d="M9.12523 11.9948L18.2753 21.1443C18.586 21.4554 18.7452 21.8465 18.7527 22.3175C18.7598 22.7881 18.6007 23.1862 18.2753 23.512C17.9496 23.8373 17.555 24 17.0915 24C16.628 24 16.2333 23.8373 15.9076 23.512L5.81182 13.4162C5.60178 13.2058 5.45352 12.9839 5.36703 12.7507C5.28055 12.5174 5.2373 12.2655 5.2373 11.9948C5.2373 11.7241 5.28055 11.4721 5.36703 11.2389C5.45352 11.0056 5.60178 10.7838 5.81182 10.5734L15.9076 0.477584C16.2187 0.166835 16.6098 0.00771624 17.0808 0.000228306C17.5514 -0.00688523 17.9496 0.152233 18.2753 0.477584C18.6007 0.803309 18.7633 1.19792 18.7633 1.66143C18.7633 2.12493 18.6007 2.51955 18.2753 2.84527L9.12523 11.9948Z" fill="white"/>
</svg>
