<svg width="24" height="25" viewBox="0 0 24 25" fill="none" xmlns="http://www.w3.org/2000/svg">
<path d="M7.09091 2.90723C8.03636 2.90723 8.93636 3.10723 9.79091 3.50723C10.6455 3.90723 11.3818 4.47086 12 5.19814C12.6182 4.47086 13.3545 3.90723 14.2091 3.50723C15.0636 3.10723 15.9636 2.90723 16.9091 2.90723C18.6182 2.90723 20.0455 3.47995 21.1909 4.62541C22.3364 5.77086 22.9091 7.19814 22.9091 8.90723C22.9091 8.99814 22.9045 9.08905 22.8955 9.17995C22.8864 9.27086 22.8818 9.36177 22.8818 9.45268H20.7C20.7182 9.36177 20.7273 9.27086 20.7273 9.17995V8.90723C20.7273 7.81632 20.3636 6.90723 19.6364 6.17995C18.9091 5.45268 18 5.08904 16.9091 5.08904C16.0545 5.08904 15.2636 5.32995 14.5364 5.81177C13.8091 6.29359 13.3091 6.90723 13.0364 7.65268H10.9636C10.6909 6.90723 10.1909 6.29359 9.46364 5.81177C8.73636 5.32995 7.94545 5.08904 7.09091 5.08904C6 5.08904 5.09091 5.45268 4.36364 6.17995C3.63636 6.90723 3.27273 7.81632 3.27273 8.90723V9.17995C3.27273 9.27086 3.28182 9.36177 3.3 9.45268H1.11818C1.11818 9.36177 1.11364 9.27086 1.10455 9.17995C1.09545 9.08905 1.09091 8.99814 1.09091 8.90723C1.09091 7.19814 1.66364 5.77086 2.80909 4.62541C3.95455 3.47995 5.38182 2.90723 7.09091 2.90723ZM4.69091 15.9981H7.74545C8.32727 16.5618 8.96364 17.1709 9.65455 17.8254C10.3455 18.48 11.1273 19.1981 12 19.98C12.8727 19.1981 13.6545 18.48 14.3455 17.8254C15.0364 17.1709 15.6727 16.5618 16.2545 15.9981H19.3364C18.6455 16.7618 17.8273 17.589 16.8818 18.48C15.9364 19.3709 14.8364 20.38 13.5818 21.5072L12 22.9254L10.4182 21.5072C9.16364 20.38 8.06818 19.3709 7.13182 18.48C6.19545 17.589 5.38182 16.7618 4.69091 15.9981ZM10.9636 17.089C11.2 17.089 11.4045 17.0209 11.5773 16.8845C11.75 16.7481 11.8727 16.5709 11.9455 16.3527L13.4182 11.9072L14.3727 13.3254C14.4636 13.4709 14.5909 13.589 14.7545 13.68C14.9182 13.7709 15.0909 13.8163 15.2727 13.8163H24V11.6345H15.9L14.0182 8.85268C13.9091 8.68905 13.7682 8.56632 13.5955 8.4845C13.4227 8.40268 13.2364 8.36177 13.0364 8.36177C12.8 8.36177 12.5955 8.42995 12.4227 8.56632C12.25 8.70268 12.1273 8.87995 12.0545 9.09814L10.5818 13.5163L9.65455 12.1254C9.56364 11.98 9.43636 11.8618 9.27273 11.7709C9.10909 11.68 8.93636 11.6345 8.75455 11.6345H0V13.8163H8.1L9.98182 16.5981C10.0909 16.7618 10.2318 16.8845 10.4045 16.9663C10.5773 17.0481 10.7636 17.089 10.9636 17.089Z" fill="white"/>
</svg>
