<svg width="24" height="25" viewBox="0 0 24 25" fill="none" xmlns="http://www.w3.org/2000/svg">
<g clip-path="url(#clip0_277_188)">
<path d="M3.38914 21.4424C2.33003 20.3832 1.5004 19.1594 0.900241 17.7708C0.30008 16.3822 0 14.9465 0 13.4637C0 11.981 0.282428 10.5159 0.847285 9.06846C1.41214 7.62101 2.33003 6.26182 3.60096 4.99089C4.42471 4.16714 5.44263 3.46107 6.65472 2.87268C7.86681 2.28429 9.30249 1.81946 10.9618 1.47819C12.621 1.13692 14.5156 0.930986 16.6456 0.860378C18.7756 0.789771 21.1586 0.872146 23.7946 1.1075C23.9829 3.60229 24.0417 5.89702 23.9711 7.9917C23.9005 10.0864 23.7063 11.9751 23.3886 13.6579C23.0709 15.3407 22.6237 16.8117 22.0471 18.0709C21.4704 19.33 20.7585 20.3832 19.9112 21.2305C18.6638 22.4779 17.3399 23.3899 15.9396 23.9666C14.5392 24.5432 13.1094 24.8315 11.6502 24.8315C10.1204 24.8315 8.62584 24.5314 7.16662 23.9313C5.70741 23.3311 4.44825 22.5015 3.38914 21.4424ZM7.34314 20.8775C8.02568 21.2776 8.72586 21.5659 9.4437 21.7424C10.1615 21.9189 10.897 22.0072 11.6502 22.0072C12.7328 22.0072 13.8037 21.7895 14.8628 21.3541C15.9219 20.9187 16.9339 20.2185 17.8989 19.2535C18.3225 18.8299 18.7521 18.2356 19.1875 17.4707C19.6229 16.7058 19.9995 15.7055 20.3172 14.4699C20.6349 13.2343 20.8762 11.7398 21.0409 9.98635C21.2057 8.23294 21.2292 6.14414 21.1115 3.71997C19.9583 3.67289 18.6579 3.65524 17.2105 3.66701C15.763 3.67878 14.3215 3.79057 12.8858 4.00239C11.4501 4.21422 10.0851 4.55548 8.79059 5.0262C7.49612 5.49691 6.43702 6.14414 5.61327 6.96789C4.55416 8.027 3.82455 9.07434 3.42445 10.1099C3.02434 11.1455 2.82428 12.1457 2.82428 13.1107C2.82428 14.4993 3.08906 15.7173 3.61861 16.7646C4.14817 17.812 4.613 18.5475 5.01311 18.9711C6.00161 17.0882 7.30784 15.2819 8.9318 13.552C10.5558 11.8221 12.4504 10.4041 14.6157 9.29793C12.9211 10.7807 11.4442 12.4576 10.1851 14.3287C8.92592 16.1998 7.9786 18.3827 7.34314 20.8775Z" fill="white"/>
</g>
<defs>
<clipPath id="clip0_277_188">
<rect width="24" height="24" fill="white" transform="translate(0 0.833496)"/>
</clipPath>
</defs>
</svg>
