<svg width="24" height="25" viewBox="0 0 24 25" fill="none" xmlns="http://www.w3.org/2000/svg">
<path d="M4.71 23.9001C4.25 23.9001 3.805 23.7401 3.375 23.4201C2.945 23.1001 2.66 22.7101 2.52 22.2501C2.02 20.5701 1.61 19.1151 1.29 17.8851C0.97 16.6551 0.715 15.5751 0.525 14.6451C0.335 13.7151 0.2 12.8901 0.12 12.1701C0.04 11.4501 0 10.7601 0 10.1001C0 8.2601 0.64 6.7001 1.92 5.4201C3.2 4.1401 4.76 3.5001 6.6 3.5001H12.6C13.14 2.7801 13.825 2.2001 14.655 1.7601C15.485 1.3201 16.4 1.1001 17.4 1.1001C17.9 1.1001 18.325 1.2751 18.675 1.6251C19.025 1.9751 19.2 2.4001 19.2 2.9001C19.2 3.0201 19.185 3.1401 19.155 3.2601C19.125 3.3801 19.09 3.4901 19.05 3.5901C18.97 3.8101 18.895 4.0301 18.825 4.2501C18.755 4.4701 18.7 4.7101 18.66 4.9701L21.39 7.7001H22.8C23.14 7.7001 23.425 7.8151 23.655 8.0451C23.885 8.2751 24 8.5601 24 8.9001V15.2001C24 15.4601 23.925 15.6901 23.775 15.8901C23.625 16.0901 23.42 16.2401 23.16 16.3401L20.61 17.1801L19.11 22.1901C18.95 22.7101 18.66 23.1251 18.24 23.4351C17.82 23.7451 17.34 23.9001 16.8 23.9001H14.4C13.74 23.9001 13.175 23.6651 12.705 23.1951C12.235 22.7251 12 22.1601 12 21.5001H9.6C9.6 22.1601 9.365 22.7251 8.895 23.1951C8.425 23.6651 7.86 23.9001 7.2 23.9001H4.71ZM4.8 21.5001H7.2V19.1001H14.4V21.5001H16.8L18.66 15.3201L21.6 14.3301V10.1001H20.4L16.2 5.9001C16.2 5.5001 16.225 5.1101 16.275 4.7301C16.325 4.3501 16.4 3.9801 16.5 3.6201C15.92 3.7801 15.41 4.0551 14.97 4.4451C14.53 4.8351 14.21 5.3201 14.01 5.9001H6.6C5.44 5.9001 4.45 6.3101 3.63 7.1301C2.81 7.9501 2.4 8.9401 2.4 10.1001C2.4 10.9201 2.61 12.3251 3.03 14.3151C3.45 16.3051 4.04 18.7001 4.8 21.5001ZM16.8 11.9001C17.14 11.9001 17.425 11.7851 17.655 11.5551C17.885 11.3251 18 11.0401 18 10.7001C18 10.3601 17.885 10.0751 17.655 9.8451C17.425 9.6151 17.14 9.5001 16.8 9.5001C16.46 9.5001 16.175 9.6151 15.945 9.8451C15.715 10.0751 15.6 10.3601 15.6 10.7001C15.6 11.0401 15.715 11.3251 15.945 11.5551C16.175 11.7851 16.46 11.9001 16.8 11.9001ZM12 9.5001C12.34 9.5001 12.625 9.3851 12.855 9.1551C13.085 8.9251 13.2 8.6401 13.2 8.3001C13.2 7.9601 13.085 7.6751 12.855 7.4451C12.625 7.2151 12.34 7.1001 12 7.1001H8.4C8.06 7.1001 7.775 7.2151 7.545 7.4451C7.315 7.6751 7.2 7.9601 7.2 8.3001C7.2 8.6401 7.315 8.9251 7.545 9.1551C7.775 9.3851 8.06 9.5001 8.4 9.5001H12Z" fill="white"/>
</svg>
