<svg width="24" height="25" viewBox="0 0 24 25" fill="none" xmlns="http://www.w3.org/2000/svg">
<g clip-path="url(#clip0_216_44)">
<path d="M2.66667 24.6038C1.93333 24.6038 1.30556 24.3426 0.783333 23.8204C0.261111 23.2982 0 22.6704 0 21.9371V3.27043C0 2.53709 0.261111 1.90932 0.783333 1.38709C1.30556 0.864871 1.93333 0.60376 2.66667 0.60376H21.3333C22.0667 0.60376 22.6944 0.864871 23.2167 1.38709C23.7389 1.90932 24 2.53709 24 3.27043V21.9371C24 22.6704 23.7389 23.2982 23.2167 23.8204C22.6944 24.3426 22.0667 24.6038 21.3333 24.6038H2.66667ZM2.66667 21.9371H21.3333V3.27043H2.66667V21.9371Z" fill="white"/>
</g>
<defs>
<clipPath id="clip0_216_44">
<rect width="24" height="24" fill="white" transform="translate(0 0.60376)"/>
</clipPath>
</defs>
</svg>
