<svg width="24" height="25" viewBox="0 0 24 25" fill="none" xmlns="http://www.w3.org/2000/svg">
<path d="M4.67842 23.8684C4.21863 23.8684 3.78158 23.7118 3.36726 23.3985C2.95295 23.0853 2.67832 22.7034 2.54337 22.2529C2.01705 20.436 1.59158 18.8964 1.26695 17.6341C0.942105 16.3716 0.685789 15.2833 0.498 14.3692C0.31021 13.4551 0.18021 12.6575 0.108 11.9764C0.0359999 11.2956 0 10.628 0 9.9737C0 8.21285 0.612421 6.72001 1.83726 5.49517C3.0621 4.27033 4.55495 3.65791 6.31579 3.65791H12.9474C13.5158 2.90001 14.2105 2.28949 15.0316 1.82633C15.8526 1.36317 16.7368 1.13159 17.6842 1.13159C18.0352 1.13159 18.3334 1.25464 18.5788 1.50075C18.8245 1.74664 18.9474 2.04538 18.9474 2.39696C18.9474 2.48138 18.9356 2.56443 18.912 2.64612C18.8886 2.72801 18.864 2.80938 18.8381 2.89022C18.7457 3.13801 18.6566 3.40601 18.5709 3.69422C18.4851 3.98265 18.4048 4.34864 18.3303 4.79222L21.6171 8.07896H22.8581C23.1817 8.07896 23.4528 8.18843 23.6716 8.40738C23.8905 8.62612 24 8.89728 24 9.22085V14.9657C24 15.2171 23.9292 15.4394 23.7875 15.6326C23.6458 15.8259 23.4502 15.9671 23.2007 16.0561L20.5528 16.9283L18.9619 22.2383C18.8095 22.7341 18.5332 23.1297 18.1329 23.4251C17.7329 23.7206 17.2757 23.8684 16.7612 23.8684H14.9151C14.2871 23.8684 13.7495 23.6449 13.3023 23.1977C12.8552 22.7505 12.6316 22.213 12.6316 21.585V21.3421H8.84211V21.585C8.84211 22.213 8.61853 22.7505 8.17137 23.1977C7.72421 23.6449 7.18663 23.8684 6.55863 23.8684H4.67842ZM17.0526 11.7225C17.3619 11.7225 17.6255 11.6137 17.8434 11.396C18.0611 11.1781 18.1699 10.9145 18.1699 10.6053C18.1699 10.296 18.0611 10.0324 17.8434 9.81454C17.6255 9.59686 17.3619 9.48801 17.0526 9.48801C16.7434 9.48801 16.4798 9.59686 16.2619 9.81454C16.0442 10.0324 15.9354 10.296 15.9354 10.6053C15.9354 10.9145 16.0442 11.1781 16.2619 11.396C16.4798 11.6137 16.7434 11.7225 17.0526 11.7225ZM12.3158 9.02633C12.5842 9.02633 12.8093 8.93549 12.9909 8.7538C13.1724 8.57212 13.2632 8.34707 13.2632 8.07864C13.2632 7.81001 13.1724 7.58507 12.9909 7.4038C12.8093 7.22233 12.5842 7.13159 12.3158 7.13159H7.89474C7.62632 7.13159 7.40126 7.22243 7.21958 7.40412C7.03811 7.5858 6.94737 7.81086 6.94737 8.07928C6.94737 8.34791 7.03811 8.57285 7.21958 8.75412C7.40126 8.93559 7.62632 9.02633 7.89474 9.02633H12.3158Z" fill="white"/>
</svg>
