<svg width="24" height="25" viewBox="0 0 24 25" fill="none" xmlns="http://www.w3.org/2000/svg">
<g clip-path="url(#clip0_277_184)">
<path d="M12.0002 24.8335C10.5304 24.8335 9.15365 24.5544 7.86993 23.9963C6.58621 23.4381 5.46528 22.68 4.50714 21.7219C3.549 20.7637 2.79086 19.6428 2.23272 18.3591C1.67458 17.0754 1.39551 15.6986 1.39551 14.2288C1.39551 12.7591 1.67458 11.3823 2.23272 10.0986C2.79086 8.81489 3.549 7.69396 4.50714 6.73582C5.46528 5.77768 6.58621 5.01954 7.86993 4.4614C9.15365 3.90326 10.5304 3.62419 12.0002 3.62419V0.833496L16.4653 5.29861L12.0002 9.76373V6.97303C9.99086 6.97303 8.27923 7.68001 6.86528 9.09396C5.45132 10.5079 4.74435 12.2195 4.74435 14.2288C4.74435 15.4568 5.02807 16.5963 5.59551 17.6474C6.16295 18.6986 6.92109 19.5498 7.86993 20.2009C8.1676 19.68 8.60946 19.2381 9.19551 18.8754C9.78155 18.5126 10.456 18.2847 11.2188 18.1916C11.1629 17.8009 11.0885 17.4102 10.9955 17.0195C10.9025 16.6288 10.7909 16.2661 10.6606 15.9312C10.456 16.0986 10.2327 16.2288 9.99086 16.3219C9.749 16.4149 9.48853 16.4614 9.20946 16.4614C8.59551 16.4614 8.06993 16.2428 7.63272 15.8056C7.19551 15.3684 6.9769 14.8428 6.9769 14.2288V13.1126C6.9769 12.7963 6.92574 12.4986 6.82341 12.2195C6.72109 11.9405 6.58621 11.68 6.41876 11.4381C7.349 11.4195 8.1769 11.5033 8.90248 11.6893C9.53504 11.8568 10.1118 12.1312 10.6327 12.5126C11.1536 12.894 11.4234 13.4661 11.442 14.2288C11.442 14.3963 11.4281 14.5498 11.4002 14.6893C11.3723 14.8288 11.3211 14.973 11.2467 15.1219C11.0048 14.9358 10.7629 14.7684 10.5211 14.6195C10.2792 14.4707 10.0281 14.3405 9.7676 14.2288C10.0839 14.4707 10.4467 14.8428 10.856 15.3451C11.2653 15.8474 11.6467 16.4428 12.0002 17.1312C12.3723 16.2195 12.8374 15.3219 13.3955 14.4381C13.9536 13.5544 14.6048 12.7405 15.349 11.9963C14.9211 12.294 14.5118 12.6102 14.1211 12.9451C13.7304 13.28 13.349 13.6335 12.9769 14.0056C12.8467 13.8009 12.7443 13.573 12.6699 13.3219C12.5955 13.0707 12.5583 12.8149 12.5583 12.5544C12.5583 11.773 12.8281 11.1126 13.3676 10.573C13.9071 10.0335 14.5676 9.76373 15.349 9.76373H16.4653C16.8932 9.76373 17.2467 9.70791 17.5257 9.59629C17.8048 9.48466 18.0374 9.35443 18.2234 9.20559C18.4281 9.03815 18.5862 8.8521 18.6978 8.64745C18.7723 9.89396 18.7071 11.0102 18.5025 11.9963C18.335 12.8335 18.0188 13.6009 17.5536 14.2986C17.0885 14.9963 16.3536 15.3451 15.349 15.3451C15.0699 15.3451 14.8048 15.3079 14.5536 15.2335C14.3025 15.1591 14.0746 15.0568 13.8699 14.9265C13.7397 15.28 13.5909 15.7498 13.4234 16.3358C13.256 16.9219 13.1257 17.5498 13.0327 18.2195C13.7397 18.3498 14.3629 18.5916 14.9025 18.9451C15.442 19.2986 15.8513 19.7172 16.1304 20.2009C17.0792 19.5498 17.8374 18.7033 18.4048 17.6614C18.9723 16.6195 19.256 15.4754 19.256 14.2288H22.6048C22.6048 15.6986 22.3257 17.0754 21.7676 18.3591C21.2095 19.6428 20.4513 20.7637 19.4932 21.7219C18.535 22.68 17.4141 23.4381 16.1304 23.9963C14.8467 24.5544 13.4699 24.8335 12.0002 24.8335Z" fill="white"/>
</g>
<defs>
<clipPath id="clip0_277_184">
<rect width="24" height="24" fill="white" transform="translate(0 0.833496)"/>
</clipPath>
</defs>
</svg>
