<svg width="24" height="25" viewBox="0 0 24 25" fill="none" xmlns="http://www.w3.org/2000/svg">
<g clip-path="url(#clip0_277_159)">
<path d="M10.8002 21.16V12.94L3.6002 8.77V16.99L10.8002 21.16ZM13.2002 21.16L20.4002 16.99V8.77L13.2002 12.94V21.16ZM10.8002 23.92L2.4002 19.09C2.0202 18.87 1.7252 18.58 1.5152 18.22C1.3052 17.86 1.2002 17.46 1.2002 17.02V7.48C1.2002 7.04 1.3052 6.64 1.5152 6.28C1.7252 5.92 2.0202 5.63 2.4002 5.41L10.8002 0.58C11.1802 0.36 11.5802 0.25 12.0002 0.25C12.4202 0.25 12.8202 0.36 13.2002 0.58L21.6002 5.41C21.9802 5.63 22.2752 5.92 22.4852 6.28C22.6952 6.64 22.8002 7.04 22.8002 7.48V17.02C22.8002 17.46 22.6952 17.86 22.4852 18.22C22.2752 18.58 21.9802 18.87 21.6002 19.09L13.2002 23.92C12.8202 24.14 12.4202 24.25 12.0002 24.25C11.5802 24.25 11.1802 24.14 10.8002 23.92ZM16.8002 8.08L19.1102 6.76L12.0002 2.65L9.6602 4L16.8002 8.08ZM12.0002 10.87L14.3402 9.52L7.2302 5.41L4.8902 6.76L12.0002 10.87Z" fill="white"/>
</g>
<defs>
<clipPath id="clip0_277_159">
<rect width="24" height="24" fill="white" transform="translate(0 0.25)"/>
</clipPath>
</defs>
</svg>
