<svg width="24" height="25" viewBox="0 0 24 25" fill="none" xmlns="http://www.w3.org/2000/svg">
<g clip-path="url(#clip0_277_17)">
<path d="M12 24.1665C9.96364 24.1665 8.09091 23.7029 6.38182 22.7756C4.67273 21.8483 3.27273 20.612 2.18182 19.0665V21.9847H0V15.4392H6.54545V17.621H3.84545C4.71818 18.9301 5.86818 19.9847 7.29545 20.7847C8.72273 21.5847 10.2909 21.9847 12 21.9847C13.3636 21.9847 14.6409 21.7256 15.8318 21.2074C17.0227 20.6892 18.0591 19.9892 18.9409 19.1074C19.8227 18.2256 20.5227 17.1892 21.0409 15.9983C21.5591 14.8074 21.8182 13.5301 21.8182 12.1665H24C24 13.821 23.6864 15.3756 23.0591 16.8301C22.4318 18.2847 21.5727 19.5574 20.4818 20.6483C19.3909 21.7392 18.1182 22.5983 16.6636 23.2256C15.2091 23.8529 13.6545 24.1665 12 24.1665ZM11.0182 19.8029V18.3847C10.1636 18.1847 9.46818 17.8165 8.93182 17.2801C8.39545 16.7438 8 16.0392 7.74545 15.1665L9.54545 14.4574C9.76364 15.2029 10.1045 15.762 10.5682 16.1347C11.0318 16.5074 11.5636 16.6938 12.1636 16.6938C12.7636 16.6938 13.2773 16.5529 13.7045 16.271C14.1318 15.9892 14.3455 15.5483 14.3455 14.9483C14.3455 14.421 14.1227 13.9938 13.6773 13.6665C13.2318 13.3392 12.4364 12.9665 11.2909 12.5483C10.2182 12.1665 9.43182 11.712 8.93182 11.1847C8.43182 10.6574 8.18182 9.9665 8.18182 9.11196C8.18182 8.3665 8.44091 7.68923 8.95909 7.08014C9.47727 6.47105 10.1818 6.07559 11.0727 5.89378V4.53014H12.9818V5.89378C13.6364 5.94832 14.2318 6.21196 14.7682 6.68469C15.3045 7.15741 15.6727 7.71196 15.8727 8.34832L14.1273 9.05741C13.9818 8.63923 13.7455 8.28923 13.4182 8.00741C13.0909 7.72559 12.6364 7.58469 12.0545 7.58469C11.4182 7.58469 10.9318 7.72105 10.5955 7.99378C10.2591 8.2665 10.0909 8.63923 10.0909 9.11196C10.0909 9.58469 10.3 9.95741 10.7182 10.2301C11.1364 10.5029 11.8909 10.821 12.9818 11.1847C14.2909 11.6574 15.1636 12.212 15.6 12.8483C16.0364 13.4847 16.2545 14.1847 16.2545 14.9483C16.2545 15.4756 16.1636 15.9392 15.9818 16.3392C15.8 16.7392 15.5591 17.0801 15.2591 17.362C14.9591 17.6438 14.6091 17.871 14.2091 18.0438C13.8091 18.2165 13.3818 18.3483 12.9273 18.4392V19.8029H11.0182ZM0 12.1665C0 10.512 0.313636 8.95741 0.940909 7.50287C1.56818 6.04832 2.42727 4.77559 3.51818 3.68469C4.60909 2.59378 5.88182 1.73469 7.33636 1.10741C8.79091 0.48014 10.3455 0.166504 12 0.166504C14.0364 0.166504 15.9091 0.63014 17.6182 1.55741C19.3273 2.48469 20.7273 3.72105 21.8182 5.2665V2.34832H24V8.89378H17.4545V6.71196H20.1545C19.2818 5.40287 18.1318 4.34832 16.7045 3.54832C15.2773 2.74832 13.7091 2.34832 12 2.34832C10.6364 2.34832 9.35909 2.60741 8.16818 3.12559C6.97727 3.64378 5.94091 4.34378 5.05909 5.22559C4.17727 6.10741 3.47727 7.14378 2.95909 8.33469C2.44091 9.52559 2.18182 10.8029 2.18182 12.1665H0Z" fill="white"/>
</g>
<defs>
<clipPath id="clip0_277_17">
<rect width="24" height="24" fill="white" transform="translate(0 0.166504)"/>
</clipPath>
</defs>
</svg>
