<svg width="24" height="25" viewBox="0 0 24 25" fill="none" xmlns="http://www.w3.org/2000/svg">
<g clip-path="url(#clip0_277_75)">
<path d="M10.0003 20.2498H14.0003V16.9165H17.3337V12.9165H14.0003V9.58317H10.0003V12.9165H6.66699V16.9165H10.0003V20.2498ZM5.33366 24.9165C4.60033 24.9165 3.97255 24.6554 3.45033 24.1332C2.9281 23.6109 2.66699 22.9832 2.66699 22.2498V7.58317C2.66699 6.84984 2.9281 6.22206 3.45033 5.69984C3.97255 5.17762 4.60033 4.9165 5.33366 4.9165H18.667C19.4003 4.9165 20.0281 5.17762 20.5503 5.69984C21.0725 6.22206 21.3337 6.84984 21.3337 7.58317V22.2498C21.3337 22.9832 21.0725 23.6109 20.5503 24.1332C20.0281 24.6554 19.4003 24.9165 18.667 24.9165H5.33366ZM5.33366 22.2498H18.667V7.58317H5.33366V22.2498ZM4.00033 3.58317V0.916504H20.0003V3.58317H4.00033Z" fill="white"/>
</g>
<defs>
<clipPath id="clip0_277_75">
<rect width="24" height="24" fill="white" transform="translate(0 0.916504)"/>
</clipPath>
</defs>
</svg>
