<svg width="24" height="25" viewBox="0 0 24 25" fill="none" xmlns="http://www.w3.org/2000/svg">
<g clip-path="url(#clip0_277_171)">
<path d="M18.8667 23.85L10.8 15.7167C10.3556 15.8944 9.90556 16.0278 9.45 16.1167C8.99444 16.2056 8.51111 16.25 8 16.25C5.77778 16.25 3.88889 15.4722 2.33333 13.9167C0.777778 12.3611 0 10.4722 0 8.25C0 7.45 0.111111 6.68889 0.333333 5.96667C0.555556 5.24444 0.866667 4.56111 1.26667 3.91667L6.13333 8.78333L8.53333 6.38333L3.66667 1.51667C4.31111 1.11667 4.99444 0.805556 5.71667 0.583333C6.43889 0.361111 7.2 0.25 8 0.25C10.2222 0.25 12.1111 1.02778 13.6667 2.58333C15.2222 4.13889 16 6.02778 16 8.25C16 8.76111 15.9556 9.24444 15.8667 9.7C15.7778 10.1556 15.6444 10.6056 15.4667 11.05L23.6 19.1167C23.8667 19.3833 24 19.7056 24 20.0833C24 20.4611 23.8667 20.7833 23.6 21.05L20.8 23.85C20.5333 24.1167 20.2111 24.25 19.8333 24.25C19.4556 24.25 19.1333 24.1167 18.8667 23.85ZM19.8333 21.0167L20.7333 20.1167L12.2 11.5833C12.6 11.1389 12.8889 10.6222 13.0667 10.0333C13.2444 9.44444 13.3333 8.85 13.3333 8.25C13.3333 6.91667 12.9056 5.75556 12.05 4.76667C11.1944 3.77778 10.1333 3.18333 8.86667 2.98333L11.3333 5.45C11.6 5.71667 11.7333 6.02778 11.7333 6.38333C11.7333 6.73889 11.6 7.05 11.3333 7.31667L7.06667 11.5833C6.8 11.85 6.48889 11.9833 6.13333 11.9833C5.77778 11.9833 5.46667 11.85 5.2 11.5833L2.73333 9.11667C2.93333 10.3833 3.52778 11.4444 4.51667 12.3C5.50556 13.1556 6.66667 13.5833 8 13.5833C8.57778 13.5833 9.15556 13.4944 9.73333 13.3167C10.3111 13.1389 10.8333 12.8611 11.3 12.4833L19.8333 21.0167Z" fill="white"/>
</g>
<defs>
<clipPath id="clip0_277_171">
<rect width="24" height="24" fill="white" transform="translate(0 0.25)"/>
</clipPath>
</defs>
</svg>
