<svg width="24" height="25" viewBox="0 0 24 25" fill="none" xmlns="http://www.w3.org/2000/svg">
<g clip-path="url(#clip0_277_180)">
<path d="M7.8602 22.4335H16.1402L17.3402 17.6335H6.6602L7.8602 22.4335ZM7.8602 24.8335C7.3002 24.8335 6.8102 24.6635 6.3902 24.3235C5.9702 23.9835 5.6902 23.5435 5.5502 23.0035L4.2002 17.6335H19.8002L18.4502 23.0035C18.3102 23.5435 18.0302 23.9835 17.6102 24.3235C17.1902 24.6635 16.7002 24.8335 16.1402 24.8335H7.8602ZM3.6002 15.2335H20.4002V12.8335H3.6002V15.2335ZM12.0002 8.0335C12.0002 6.0335 12.7002 4.3335 14.1002 2.9335C15.5002 1.5335 17.2002 0.833496 19.2002 0.833496C19.2002 2.6335 18.6302 4.1935 17.4902 5.5135C16.3502 6.8335 14.9202 7.6335 13.2002 7.9135V10.4335H22.8002V15.2335C22.8002 15.8935 22.5652 16.4585 22.0952 16.9285C21.6252 17.3985 21.0602 17.6335 20.4002 17.6335H3.6002C2.9402 17.6335 2.3752 17.3985 1.9052 16.9285C1.4352 16.4585 1.2002 15.8935 1.2002 15.2335V10.4335H10.8002V7.9135C9.0802 7.6335 7.6502 6.8335 6.5102 5.5135C5.3702 4.1935 4.8002 2.6335 4.8002 0.833496C6.8002 0.833496 8.5002 1.5335 9.9002 2.9335C11.3002 4.3335 12.0002 6.0335 12.0002 8.0335Z" fill="white"/>
</g>
<defs>
<clipPath id="clip0_277_180">
<rect width="24" height="24" fill="white" transform="translate(0 0.833496)"/>
</clipPath>
</defs>
</svg>
