<svg width="24" height="25" viewBox="0 0 24 25" fill="none" xmlns="http://www.w3.org/2000/svg">
<g clip-path="url(#clip0_269_19)">
<path d="M16.5713 24.5835C16.2475 24.5835 15.9761 24.474 15.757 24.2549C15.538 24.0359 15.4284 23.7644 15.4284 23.4406C15.4284 23.1168 15.538 22.8454 15.757 22.6264C15.9761 22.4073 16.2475 22.2978 16.5713 22.2978H19.9999V21.1549H16.5713C16.2475 21.1549 15.9761 21.0454 15.757 20.8264C15.538 20.6073 15.4284 20.3359 15.4284 20.0121C15.4284 19.6883 15.538 19.4168 15.757 19.1978C15.9761 18.9787 16.2475 18.8692 16.5713 18.8692H19.9999V17.7264H16.5713C16.2475 17.7264 15.9761 17.6168 15.757 17.3978C15.538 17.1787 15.4284 16.9073 15.4284 16.5835C15.4284 16.2597 15.538 15.9883 15.757 15.7692C15.9761 15.5502 16.2475 15.4406 16.5713 15.4406H19.9999V14.2978H16.5713C16.2475 14.2978 15.9761 14.1883 15.757 13.9692C15.538 13.7502 15.4284 13.4787 15.4284 13.1549C15.4284 12.8311 15.538 12.5597 15.757 12.3406C15.9761 12.1216 16.2475 12.0121 16.5713 12.0121H19.9999V10.8692H16.5713C16.2475 10.8692 15.9761 10.7597 15.757 10.5406C15.538 10.3216 15.4284 10.0502 15.4284 9.72635C15.4284 9.40254 15.538 9.13112 15.757 8.91207C15.9761 8.69302 16.2475 8.5835 16.5713 8.5835H19.9999V7.44064H16.5713C16.2475 7.44064 15.9761 7.33112 15.757 7.11207C15.538 6.89302 15.4284 6.62159 15.4284 6.29778C15.4284 5.97397 15.538 5.70254 15.757 5.4835C15.9761 5.26445 16.2475 5.15492 16.5713 5.15492H21.1427C21.7713 5.15492 22.3094 5.37873 22.757 5.82635C23.2046 6.27397 23.4284 6.81207 23.4284 7.44064V22.2978C23.4284 22.9264 23.2046 23.4644 22.757 23.9121C22.3094 24.3597 21.7713 24.5835 21.1427 24.5835H16.5713ZM7.42843 15.4406C8.68557 15.4406 9.76177 14.8216 10.657 13.5835C11.5522 12.3454 11.9999 10.8692 11.9999 9.15492C11.9999 7.44064 11.5522 5.96445 10.657 4.72635C9.76177 3.48826 8.68557 2.86921 7.42843 2.86921C6.17129 2.86921 5.0951 3.48826 4.19986 4.72635C3.30462 5.96445 2.857 7.44064 2.857 9.15492C2.857 10.8692 3.30462 12.3454 4.19986 13.5835C5.0951 14.8216 6.17129 15.4406 7.42843 15.4406ZM7.42843 24.5835C6.51415 24.5835 5.76177 24.2454 5.17129 23.5692C4.58081 22.893 4.35224 22.0978 4.48557 21.1835L4.94272 17.1549C3.64748 16.5264 2.5951 15.493 1.78557 14.0549C0.976051 12.6168 0.571289 10.9835 0.571289 9.15492C0.571289 6.77397 1.23796 4.75016 2.57129 3.0835C3.90462 1.41683 5.52367 0.583496 7.42843 0.583496C9.33319 0.583496 10.9522 1.41683 12.2856 3.0835C13.6189 4.75016 14.2856 6.77397 14.2856 9.15492C14.2856 10.9835 13.8808 12.6168 13.0713 14.0549C12.2618 15.493 11.2094 16.5264 9.91415 17.1549L10.3713 21.1835C10.5046 22.0978 10.2761 22.893 9.68557 23.5692C9.0951 24.2454 8.34272 24.5835 7.42843 24.5835Z" fill="white"/>
</g>
<defs>
<clipPath id="clip0_269_19">
<rect width="24" height="24" fill="white" transform="translate(0 0.583496)"/>
</clipPath>
</defs>
</svg>
