<svg width="24" height="25" viewBox="0 0 24 25" fill="none" xmlns="http://www.w3.org/2000/svg">
<g clip-path="url(#clip0_277_130)">
<path d="M23.2946 15.367L14.7146 23.947C14.4746 24.187 14.2046 24.367 13.9046 24.487C13.6046 24.607 13.3046 24.667 13.0046 24.667C12.7046 24.667 12.4046 24.607 12.1046 24.487C11.8046 24.367 11.5346 24.187 11.2946 23.947L0.704648 13.357C0.484648 13.137 0.314648 12.882 0.194648 12.592C0.0746484 12.302 0.0146484 11.997 0.0146484 11.677V3.06699C0.0146484 2.40699 0.249648 1.84199 0.719648 1.37199C1.18965 0.901992 1.75465 0.666992 2.41465 0.666992H11.0246C11.3446 0.666992 11.6546 0.731992 11.9546 0.861992C12.2546 0.991992 12.5146 1.16699 12.7346 1.38699L23.2946 11.977C23.5346 12.217 23.7096 12.487 23.8196 12.787C23.9296 13.087 23.9846 13.387 23.9846 13.687C23.9846 13.987 23.9296 14.282 23.8196 14.572C23.7096 14.862 23.5346 15.127 23.2946 15.367ZM13.0046 22.267L21.5846 13.687L10.9946 3.06699H2.41465V11.647L13.0046 22.267ZM5.41465 7.86699C5.91465 7.86699 6.33965 7.69199 6.68965 7.34199C7.03965 6.99199 7.21465 6.56699 7.21465 6.06699C7.21465 5.56699 7.03965 5.14199 6.68965 4.79199C6.33965 4.44199 5.91465 4.26699 5.41465 4.26699C4.91465 4.26699 4.48965 4.44199 4.13965 4.79199C3.78965 5.14199 3.61465 5.56699 3.61465 6.06699C3.61465 6.56699 3.78965 6.99199 4.13965 7.34199C4.48965 7.69199 4.91465 7.86699 5.41465 7.86699Z" fill="white"/>
</g>
<defs>
<clipPath id="clip0_277_130">
<rect width="24" height="24" fill="white" transform="translate(0 0.666992)"/>
</clipPath>
</defs>
</svg>
