<svg width="24" height="24" viewBox="0 0 24 24" fill="none" xmlns="http://www.w3.org/2000/svg">
<path d="M7.22242 19.1664H10.8056V17.972H8.41682V16.7776H10.8056V13.1944H7.22242V14.3888H9.61121V15.5832H7.22242V19.1664ZM15.5832 19.1664H16.7776V13.1944H15.5832V15.5832H14.3888V13.1944H13.1944V16.7776H15.5832V19.1664ZM22.7495 10.8654V20.3608C22.7495 21.0177 22.5156 21.5801 22.0478 22.0479C21.58 22.5157 21.0177 22.7496 20.3608 22.7496H3.63924C2.98233 22.7496 2.41997 22.5157 1.95216 22.0479C1.48436 21.5801 1.25046 21.0177 1.25046 20.3608V10.8654C0.792606 10.4473 0.439265 9.90984 0.190433 9.25293C-0.0583993 8.59601 -0.063376 7.87937 0.175503 7.10302L1.42962 3.04208C1.58887 2.52451 1.87254 2.09652 2.28062 1.75811C2.68871 1.41969 3.16149 1.25049 3.69896 1.25049H20.301C20.8385 1.25049 21.3063 1.41472 21.7044 1.74318C22.1026 2.07163 22.3912 2.5046 22.5704 3.04208L23.8245 7.10302C24.0634 7.87937 24.0584 8.58606 23.8096 9.22307C23.5607 9.86008 23.2074 10.4075 22.7495 10.8654ZM14.6277 9.61124C15.1651 9.61124 15.5732 9.42711 15.8519 9.05884C16.1306 8.69057 16.2401 8.2775 16.1804 7.81965L15.5235 3.63928H13.1944V8.05853C13.1944 8.47657 13.3337 8.83987 13.6124 9.14842C13.8911 9.45697 14.2295 9.61124 14.6277 9.61124ZM9.25289 9.61124C9.71075 9.61124 10.084 9.45697 10.3726 9.14842C10.6613 8.83987 10.8056 8.47657 10.8056 8.05853V3.63928H8.47654L7.81962 7.81965C7.74 8.29741 7.84451 8.71545 8.13315 9.07377C8.4218 9.43209 8.79504 9.61124 9.25289 9.61124ZM3.93784 9.61124C4.29616 9.61124 4.60969 9.48185 4.87843 9.22307C5.14717 8.96428 5.3114 8.63582 5.37111 8.23769L6.02803 3.63928H3.69896L2.50457 7.64049C2.38513 8.03863 2.44983 8.46662 2.69866 8.92447C2.94749 9.38232 3.36055 9.61124 3.93784 9.61124ZM20.0622 9.61124C20.6394 9.61124 21.0575 9.38232 21.3163 8.92447C21.5751 8.46662 21.6348 8.03863 21.4954 7.64049L20.2413 3.63928H17.972L18.6289 8.23769C18.6886 8.63582 18.8528 8.96428 19.1216 9.22307C19.3903 9.48185 19.7038 9.61124 20.0622 9.61124ZM3.63924 20.3608H20.3608V11.9403C20.2612 11.9801 20.1965 12 20.1667 12H20.0622C19.5247 12 19.0519 11.9105 18.6438 11.7313C18.2357 11.5521 17.8326 11.2635 17.4345 10.8654C17.0762 11.2237 16.6681 11.5024 16.2102 11.7014C15.7524 11.9005 15.2647 12 14.7471 12C14.2096 12 13.707 11.9005 13.2392 11.7014C12.7714 11.5024 12.3583 11.2237 12 10.8654C11.6616 11.2237 11.2684 11.5024 10.8205 11.7014C10.3726 11.9005 9.8899 12 9.37233 12C8.79504 12 8.2725 11.9005 7.80469 11.7014C7.33689 11.5024 6.92383 11.2237 6.56551 10.8654C6.14747 11.2834 5.73441 11.577 5.32633 11.7462C4.91824 11.9154 4.45541 12 3.93784 12H3.80347C3.75371 12 3.69896 11.9801 3.63924 11.9403V20.3608Z" fill="white"/>
</svg>
