<svg width="24" height="25" viewBox="0 0 24 25" fill="none" xmlns="http://www.w3.org/2000/svg">
<g clip-path="url(#clip0_277_71)">
<path d="M7.5 24.9165C5.41111 24.9165 3.63889 24.1887 2.18333 22.7332C0.727778 21.2776 0 19.5054 0 17.4165C0 16.4165 0.188889 15.4609 0.566667 14.5498C0.944444 13.6387 1.48889 12.8276 2.2 12.1165L11.2 3.1165C11.9111 2.40539 12.7222 1.86095 13.6333 1.48317C14.5444 1.10539 15.5 0.916504 16.5 0.916504C18.5889 0.916504 20.3611 1.64428 21.8167 3.09984C23.2722 4.55539 24 6.32762 24 8.4165C24 9.4165 23.8111 10.3721 23.4333 11.2832C23.0556 12.1943 22.5111 13.0054 21.8 13.7165L12.8 22.7165C12.0889 23.4276 11.2778 23.9721 10.3667 24.3498C9.45556 24.7276 8.5 24.9165 7.5 24.9165ZM16.3667 15.3832L19.9333 11.8498C20.3778 11.4054 20.7222 10.8832 20.9667 10.2832C21.2111 9.68317 21.3333 9.06095 21.3333 8.4165C21.3333 7.08317 20.8611 5.94428 19.9167 4.99984C18.9722 4.05539 17.8333 3.58317 16.5 3.58317C15.8556 3.58317 15.2333 3.70539 14.6333 3.94984C14.0333 4.19428 13.5111 4.53873 13.0667 4.98317L9.53333 8.54984L16.3667 15.3832ZM7.5 22.2498C8.14444 22.2498 8.76667 22.1276 9.36667 21.8832C9.96667 21.6387 10.4889 21.2943 10.9333 20.8498L14.4667 17.2832L7.63333 10.4498L4.06667 13.9832C3.62222 14.4276 3.27778 14.9498 3.03333 15.5498C2.78889 16.1498 2.66667 16.7721 2.66667 17.4165C2.66667 18.7498 3.13889 19.8887 4.08333 20.8332C5.02778 21.7776 6.16667 22.2498 7.5 22.2498Z" fill="white"/>
</g>
<defs>
<clipPath id="clip0_277_71">
<rect width="24" height="24" fill="white" transform="translate(0 0.916504)"/>
</clipPath>
</defs>
</svg>
