<svg width="24" height="25" viewBox="0 0 24 25" fill="none" xmlns="http://www.w3.org/2000/svg">
<path d="M20.4 23.0502C19.62 23.0502 18.92 22.8252 18.3 22.3752C17.68 21.9252 17.25 21.3502 17.01 20.6502H10.8C9.48 20.6502 8.35 20.1802 7.41 19.2402C6.47 18.3002 6 17.1702 6 15.8502C6 14.5302 6.47 13.4002 7.41 12.4602C8.35 11.5202 9.48 11.0502 10.8 11.0502H13.2C13.86 11.0502 14.425 10.8152 14.895 10.3452C15.365 9.8752 15.6 9.3102 15.6 8.6502C15.6 7.9902 15.365 7.4252 14.895 6.9552C14.425 6.4852 13.86 6.2502 13.2 6.2502H6.99C6.73 6.9502 6.295 7.5252 5.685 7.9752C5.075 8.4252 4.38 8.6502 3.6 8.6502C2.6 8.6502 1.75 8.3002 1.05 7.6002C0.35 6.9002 0 6.0502 0 5.0502C0 4.0502 0.35 3.2002 1.05 2.5002C1.75 1.8002 2.6 1.4502 3.6 1.4502C4.38 1.4502 5.075 1.6752 5.685 2.1252C6.295 2.5752 6.73 3.1502 6.99 3.8502H13.2C14.52 3.8502 15.65 4.3202 16.59 5.2602C17.53 6.2002 18 7.3302 18 8.6502C18 9.9702 17.53 11.1002 16.59 12.0402C15.65 12.9802 14.52 13.4502 13.2 13.4502H10.8C10.14 13.4502 9.575 13.6852 9.105 14.1552C8.635 14.6252 8.4 15.1902 8.4 15.8502C8.4 16.5102 8.635 17.0752 9.105 17.5452C9.575 18.0152 10.14 18.2502 10.8 18.2502H17.01C17.27 17.5502 17.705 16.9752 18.315 16.5252C18.925 16.0752 19.62 15.8502 20.4 15.8502C21.4 15.8502 22.25 16.2002 22.95 16.9002C23.65 17.6002 24 18.4502 24 19.4502C24 20.4502 23.65 21.3002 22.95 22.0002C22.25 22.7002 21.4 23.0502 20.4 23.0502ZM3.6 6.2502C3.94 6.2502 4.225 6.1352 4.455 5.9052C4.685 5.6752 4.8 5.3902 4.8 5.0502C4.8 4.7102 4.685 4.4252 4.455 4.1952C4.225 3.9652 3.94 3.8502 3.6 3.8502C3.26 3.8502 2.975 3.9652 2.745 4.1952C2.515 4.4252 2.4 4.7102 2.4 5.0502C2.4 5.3902 2.515 5.6752 2.745 5.9052C2.975 6.1352 3.26 6.2502 3.6 6.2502Z" fill="white"/>
</svg>
