<svg width="24" height="25" viewBox="0 0 24 25" fill="none" xmlns="http://www.w3.org/2000/svg">
<g clip-path="url(#clip0_277_173)">
<path d="M12 24.25C10.36 24.25 8.81 23.935 7.35 23.305C5.89 22.675 4.615 21.815 3.525 20.725C2.435 19.635 1.575 18.36 0.945 16.9C0.315 15.44 0 13.89 0 12.25C0 10.59 0.315 9.035 0.945 7.585C1.575 6.135 2.435 4.865 3.525 3.775C4.615 2.685 5.89 1.825 7.35 1.195C8.81 0.565 10.36 0.25 12 0.25C13.66 0.25 15.215 0.565 16.665 1.195C18.115 1.825 19.385 2.685 20.475 3.775C21.565 4.865 22.425 6.135 23.055 7.585C23.685 9.035 24 10.59 24 12.25C24 13.89 23.685 15.44 23.055 16.9C22.425 18.36 21.565 19.635 20.475 20.725C19.385 21.815 18.115 22.675 16.665 23.305C15.215 23.935 13.66 24.25 12 24.25ZM12 21.79C12.52 21.07 12.97 20.32 13.35 19.54C13.73 18.76 14.04 17.93 14.28 17.05H9.72C9.96 17.93 10.27 18.76 10.65 19.54C11.03 20.32 11.48 21.07 12 21.79ZM8.88 21.31C8.52 20.65 8.205 19.965 7.935 19.255C7.665 18.545 7.44 17.81 7.26 17.05H3.72C4.3 18.05 5.025 18.92 5.895 19.66C6.765 20.4 7.76 20.95 8.88 21.31ZM15.12 21.31C16.24 20.95 17.235 20.4 18.105 19.66C18.975 18.92 19.7 18.05 20.28 17.05H16.74C16.56 17.81 16.335 18.545 16.065 19.255C15.795 19.965 15.48 20.65 15.12 21.31ZM2.7 14.65H6.78C6.72 14.25 6.675 13.855 6.645 13.465C6.615 13.075 6.6 12.67 6.6 12.25C6.6 11.83 6.615 11.425 6.645 11.035C6.675 10.645 6.72 10.25 6.78 9.85H2.7C2.6 10.25 2.525 10.645 2.475 11.035C2.425 11.425 2.4 11.83 2.4 12.25C2.4 12.67 2.425 13.075 2.475 13.465C2.525 13.855 2.6 14.25 2.7 14.65ZM9.18 14.65H14.82C14.88 14.25 14.925 13.855 14.955 13.465C14.985 13.075 15 12.67 15 12.25C15 11.83 14.985 11.425 14.955 11.035C14.925 10.645 14.88 10.25 14.82 9.85H9.18C9.12 10.25 9.075 10.645 9.045 11.035C9.015 11.425 9 11.83 9 12.25C9 12.67 9.015 13.075 9.045 13.465C9.075 13.855 9.12 14.25 9.18 14.65ZM17.22 14.65H21.3C21.4 14.25 21.475 13.855 21.525 13.465C21.575 13.075 21.6 12.67 21.6 12.25C21.6 11.83 21.575 11.425 21.525 11.035C21.475 10.645 21.4 10.25 21.3 9.85H17.22C17.28 10.25 17.325 10.645 17.355 11.035C17.385 11.425 17.4 11.83 17.4 12.25C17.4 12.67 17.385 13.075 17.355 13.465C17.325 13.855 17.28 14.25 17.22 14.65ZM16.74 7.45H20.28C19.7 6.45 18.975 5.58 18.105 4.84C17.235 4.1 16.24 3.55 15.12 3.19C15.48 3.85 15.795 4.535 16.065 5.245C16.335 5.955 16.56 6.69 16.74 7.45ZM9.72 7.45H14.28C14.04 6.57 13.73 5.74 13.35 4.96C12.97 4.18 12.52 3.43 12 2.71C11.48 3.43 11.03 4.18 10.65 4.96C10.27 5.74 9.96 6.57 9.72 7.45ZM3.72 7.45H7.26C7.44 6.69 7.665 5.955 7.935 5.245C8.205 4.535 8.52 3.85 8.88 3.19C7.76 3.55 6.765 4.1 5.895 4.84C5.025 5.58 4.3 6.45 3.72 7.45Z" fill="white"/>
</g>
<defs>
<clipPath id="clip0_277_173">
<rect width="24" height="24" fill="white" transform="translate(0 0.25)"/>
</clipPath>
</defs>
</svg>
