<svg width="24" height="25" viewBox="0 0 24 25" fill="none" xmlns="http://www.w3.org/2000/svg">
<path d="M3.6 23.4672V21.0672H20.4V23.4672H3.6ZM3.6 19.2672L2.07 9.63719C2.03 9.63719 1.985 9.64219 1.935 9.65219C1.885 9.66219 1.84 9.66719 1.8 9.66719C1.3 9.66719 0.875 9.49219 0.525 9.14219C0.175 8.79219 0 8.36719 0 7.86719C0 7.36719 0.175 6.94219 0.525 6.59219C0.875 6.24219 1.3 6.06719 1.8 6.06719C2.3 6.06719 2.725 6.24219 3.075 6.59219C3.425 6.94219 3.6 7.36719 3.6 7.86719C3.6 8.00719 3.585 8.13719 3.555 8.25719C3.525 8.37719 3.49 8.48719 3.45 8.58719L7.2 10.2672L10.95 5.13719C10.73 4.97719 10.55 4.76719 10.41 4.50719C10.27 4.24719 10.2 3.96719 10.2 3.66719C10.2 3.16719 10.375 2.74219 10.725 2.39219C11.075 2.04219 11.5 1.86719 12 1.86719C12.5 1.86719 12.925 2.04219 13.275 2.39219C13.625 2.74219 13.8 3.16719 13.8 3.66719C13.8 3.96719 13.73 4.24719 13.59 4.50719C13.45 4.76719 13.27 4.97719 13.05 5.13719L16.8 10.2672L20.55 8.58719C20.51 8.48719 20.475 8.37719 20.445 8.25719C20.415 8.13719 20.4 8.00719 20.4 7.86719C20.4 7.36719 20.575 6.94219 20.925 6.59219C21.275 6.24219 21.7 6.06719 22.2 6.06719C22.7 6.06719 23.125 6.24219 23.475 6.59219C23.825 6.94219 24 7.36719 24 7.86719C24 8.36719 23.825 8.79219 23.475 9.14219C23.125 9.49219 22.7 9.66719 22.2 9.66719C22.16 9.66719 22.115 9.66219 22.065 9.65219C22.015 9.64219 21.97 9.63719 21.93 9.63719L20.4 19.2672H3.6ZM5.64 16.8672H18.36L19.14 11.8572L15.99 13.2372L12 7.74719L8.01 13.2372L4.86 11.8572L5.64 16.8672Z" fill="white"/>
</svg>
