<svg width="28" height="25" viewBox="0 0 28 25" fill="none" xmlns="http://www.w3.org/2000/svg">
<path d="M14 18.6837C15.5 18.6837 16.775 18.1587 17.825 17.1087C18.875 16.0587 19.4 14.7837 19.4 13.2837C19.4 11.7837 18.875 10.5087 17.825 9.45869C16.775 8.40869 15.5 7.88369 14 7.88369C12.5 7.88369 11.225 8.40869 10.175 9.45869C9.125 10.5087 8.6 11.7837 8.6 13.2837C8.6 14.7837 9.125 16.0587 10.175 17.1087C11.225 18.1587 12.5 18.6837 14 18.6837ZM14 16.2837C13.16 16.2837 12.45 15.9937 11.87 15.4137C11.29 14.8337 11 14.1237 11 13.2837C11 12.4437 11.29 11.7337 11.87 11.1537C12.45 10.5737 13.16 10.2837 14 10.2837C14.84 10.2837 15.55 10.5737 16.13 11.1537C16.71 11.7337 17 12.4437 17 13.2837C17 14.1237 16.71 14.8337 16.13 15.4137C15.55 15.9937 14.84 16.2837 14 16.2837ZM4.4 22.8837C3.74 22.8837 3.175 22.6487 2.705 22.1787C2.235 21.7087 2 21.1437 2 20.4837V6.08369C2 5.42369 2.235 4.85869 2.705 4.38869C3.175 3.91869 3.74 3.68369 4.4 3.68369H8.18L10.4 1.28369H17.6L19.82 3.68369H23.6C24.26 3.68369 24.825 3.91869 25.295 4.38869C25.765 4.85869 26 5.42369 26 6.08369V20.4837C26 21.1437 25.765 21.7087 25.295 22.1787C24.825 22.6487 24.26 22.8837 23.6 22.8837H4.4ZM4.4 20.4837H23.6V6.08369H18.74L16.55 3.68369H11.45L9.26 6.08369H4.4V20.4837Z" fill="white"/>
</svg>
