<svg width="24" height="25" viewBox="0 0 24 25" fill="none" xmlns="http://www.w3.org/2000/svg">
<path d="M14.1818 13.2576C13.2727 13.2576 12.5 12.9395 11.8636 12.3031C11.2273 11.6667 10.9091 10.894 10.9091 9.98491C10.9091 9.07582 11.2273 8.30309 11.8636 7.66673C12.5 7.03036 13.2727 6.71218 14.1818 6.71218C15.0909 6.71218 15.8636 7.03036 16.5 7.66673C17.1364 8.30309 17.4545 9.07582 17.4545 9.98491C17.4545 10.894 17.1364 11.6667 16.5 12.3031C15.8636 12.9395 15.0909 13.2576 14.1818 13.2576ZM6.54545 16.5304C5.94545 16.5304 5.43182 16.3167 5.00455 15.8895C4.57727 15.4622 4.36364 14.9485 4.36364 14.3485V5.62127C4.36364 5.02127 4.57727 4.50763 5.00455 4.08036C5.43182 3.65309 5.94545 3.43945 6.54545 3.43945H21.8182C22.4182 3.43945 22.9318 3.65309 23.3591 4.08036C23.7864 4.50763 24 5.02127 24 5.62127V14.3485C24 14.9485 23.7864 15.4622 23.3591 15.8895C22.9318 16.3167 22.4182 16.5304 21.8182 16.5304H6.54545ZM8.72727 14.3485H19.6364C19.6364 13.7485 19.85 13.2349 20.2773 12.8076C20.7045 12.3804 21.2182 12.1667 21.8182 12.1667V7.80309C21.2182 7.80309 20.7045 7.58945 20.2773 7.16218C19.85 6.73491 19.6364 6.22127 19.6364 5.62127H8.72727C8.72727 6.22127 8.51364 6.73491 8.08636 7.16218C7.65909 7.58945 7.14545 7.80309 6.54545 7.80309V12.1667C7.14545 12.1667 7.65909 12.3804 8.08636 12.8076C8.51364 13.2349 8.72727 13.7485 8.72727 14.3485ZM20.7273 20.894H2.18182C1.58182 20.894 1.06818 20.6804 0.640909 20.2531C0.213636 19.8258 0 19.3122 0 18.7122V6.71218H2.18182V18.7122H20.7273V20.894Z" fill="white"/>
</svg>
