<svg width="24" height="25" viewBox="0 0 24 25" fill="none" xmlns="http://www.w3.org/2000/svg">
<path d="M12 2.68164L24 11.6816L22.6909 13.4271L20.7273 11.9544V22.318H3.27273V11.9544L1.30909 13.4271L0 11.6816L12 2.68164ZM6.92727 12.5544C6.92727 13.518 7.44545 14.5453 8.48182 15.6362C9.51818 16.7271 10.6909 17.8635 12 19.0453C13.3091 17.8635 14.4818 16.7271 15.5182 15.6362C16.5545 14.5453 17.0727 13.518 17.0727 12.5544C17.0727 11.7544 16.8 11.0907 16.2545 10.5635C15.7091 10.0362 15.0545 9.77255 14.2909 9.77255C13.8182 9.77255 13.3864 9.868 12.9955 10.0589C12.6045 10.2498 12.2727 10.4998 12 10.8089C11.7273 10.4998 11.3864 10.2498 10.9773 10.0589C10.5682 9.868 10.1455 9.77255 9.70909 9.77255C8.94545 9.77255 8.29091 10.0362 7.74545 10.5635C7.2 11.0907 6.92727 11.7544 6.92727 12.5544ZM18.5455 20.1362V10.318L12 5.40891L5.45455 10.318V20.1362H18.5455Z" fill="white"/>
</svg>
