<svg width="24" height="25" viewBox="0 0 24 25" fill="none" xmlns="http://www.w3.org/2000/svg">
<g clip-path="url(#clip0_277_21)">
<path d="M2.52632 23.5347C1.83158 23.5347 1.23684 23.2873 0.742105 22.7926C0.247368 22.2979 0 21.7031 0 21.0084V3.32417C0 2.62943 0.247368 2.03469 0.742105 1.53996C1.23684 1.04522 1.83158 0.797852 2.52632 0.797852H20.2105C20.9053 0.797852 21.5 1.04522 21.9947 1.53996C22.4895 2.03469 22.7368 2.62943 22.7368 3.32417V6.48206H20.2105V3.32417H2.52632V21.0084H20.2105V17.8505H22.7368V21.0084C22.7368 21.7031 22.4895 22.2979 21.9947 22.7926C21.5 23.2873 20.9053 23.5347 20.2105 23.5347H2.52632ZM12.6316 18.4821C11.9368 18.4821 11.3421 18.2347 10.8474 17.74C10.3526 17.2452 10.1053 16.6505 10.1053 15.9557V8.3768C10.1053 7.68206 10.3526 7.08733 10.8474 6.59259C11.3421 6.09785 11.9368 5.85048 12.6316 5.85048H21.4737C22.1684 5.85048 22.7632 6.09785 23.2579 6.59259C23.7526 7.08733 24 7.68206 24 8.3768V15.9557C24 16.6505 23.7526 17.2452 23.2579 17.74C22.7632 18.2347 22.1684 18.4821 21.4737 18.4821H12.6316ZM21.4737 15.9557V8.3768H12.6316V15.9557H21.4737ZM16.4211 14.061C16.9474 14.061 17.3947 13.8768 17.7632 13.5084C18.1316 13.14 18.3158 12.6926 18.3158 12.1663C18.3158 11.64 18.1316 11.1926 17.7632 10.8242C17.3947 10.4557 16.9474 10.2715 16.4211 10.2715C15.8947 10.2715 15.4474 10.4557 15.0789 10.8242C14.7105 11.1926 14.5263 11.64 14.5263 12.1663C14.5263 12.6926 14.7105 13.14 15.0789 13.5084C15.4474 13.8768 15.8947 14.061 16.4211 14.061Z" fill="white"/>
</g>
<defs>
<clipPath id="clip0_277_21">
<rect width="24" height="24" fill="white" transform="translate(0 0.166504)"/>
</clipPath>
</defs>
</svg>
