<svg width="24" height="25" viewBox="0 0 24 25" fill="none" xmlns="http://www.w3.org/2000/svg">
<path d="M2 20.0835C1.45 20.0835 0.979167 19.8877 0.5875 19.496C0.195833 19.1043 0 18.6335 0 18.0835H4C3.45 18.0835 2.97917 17.8877 2.5875 17.496C2.19583 17.1043 2 16.6335 2 16.0835V5.0835C2 4.5335 2.19583 4.06266 2.5875 3.671C2.97917 3.27933 3.45 3.0835 4 3.0835H20C20.55 3.0835 21.0208 3.27933 21.4125 3.671C21.8042 4.06266 22 4.5335 22 5.0835V16.0835C22 16.6335 21.8042 17.1043 21.4125 17.496C21.0208 17.8877 20.55 18.0835 20 18.0835H24C24 18.6335 23.8042 19.1043 23.4125 19.496C23.0208 19.8877 22.55 20.0835 22 20.0835H2ZM12 19.0835C12.2833 19.0835 12.5208 18.9877 12.7125 18.796C12.9042 18.6043 13 18.3668 13 18.0835C13 17.8002 12.9042 17.5627 12.7125 17.371C12.5208 17.1793 12.2833 17.0835 12 17.0835C11.7167 17.0835 11.4792 17.1793 11.2875 17.371C11.0958 17.5627 11 17.8002 11 18.0835C11 18.3668 11.0958 18.6043 11.2875 18.796C11.4792 18.9877 11.7167 19.0835 12 19.0835ZM4 16.0835H20V5.0835H4V16.0835Z" fill="white"/>
</svg>
