<svg width="24" height="25" viewBox="0 0 24 25" fill="none" xmlns="http://www.w3.org/2000/svg">
<g clip-path="url(#clip0_277_117)">
<path d="M16.571 24.0835H11.9996C11.6758 24.0835 11.4043 23.974 11.1853 23.7549C10.9662 23.5359 10.8567 23.2644 10.8567 22.9406V16.0835C10.8567 15.7597 10.9662 15.4883 11.1853 15.2692C11.4043 15.0502 11.6758 14.9406 11.9996 14.9406H13.1424V11.5121H3.99958C3.37101 11.5121 2.83291 11.2883 2.3853 10.8406C1.93768 10.393 1.71387 9.85492 1.71387 9.22635V4.65492C1.71387 4.02635 1.93768 3.48826 2.3853 3.04064C2.83291 2.59302 3.37101 2.36921 3.99958 2.36921H6.2853V1.22635C6.2853 0.902544 6.39482 0.631115 6.61387 0.412068C6.83291 0.19302 7.10434 0.0834961 7.42815 0.0834961H21.1424C21.4662 0.0834961 21.7377 0.19302 21.9567 0.412068C22.1758 0.631115 22.2853 0.902544 22.2853 1.22635V5.79778C22.2853 6.12159 22.1758 6.39302 21.9567 6.61207C21.7377 6.83112 21.4662 6.94064 21.1424 6.94064H7.42815C7.10434 6.94064 6.83291 6.83112 6.61387 6.61207C6.39482 6.39302 6.2853 6.12159 6.2853 5.79778V4.65492H3.99958V9.22635H13.1424C13.771 9.22635 14.3091 9.45016 14.7567 9.89778C15.2043 10.3454 15.4282 10.8835 15.4282 11.5121V14.9406H16.571C16.8948 14.9406 17.1662 15.0502 17.3853 15.2692C17.6043 15.4883 17.7139 15.7597 17.7139 16.0835V22.9406C17.7139 23.2644 17.6043 23.5359 17.3853 23.7549C17.1662 23.974 16.8948 24.0835 16.571 24.0835ZM13.1424 21.7978H15.4282V17.2264H13.1424V21.7978ZM8.57101 4.65492H19.9996V2.36921H8.57101V4.65492Z" fill="white"/>
</g>
<defs>
<clipPath id="clip0_277_117">
<rect width="24" height="24" fill="white" transform="translate(0 0.0834961)"/>
</clipPath>
</defs>
</svg>
