<svg width="24" height="25" viewBox="0 0 24 25" fill="none" xmlns="http://www.w3.org/2000/svg">
<g clip-path="url(#clip0_277_119)">
<path d="M12 24.0835C10.36 24.0835 8.81 23.7685 7.35 23.1385C5.89 22.5085 4.615 21.6485 3.525 20.5585C2.435 19.4685 1.575 18.1935 0.945 16.7335C0.315 15.2735 0 13.7235 0 12.0835C0 10.4235 0.325 8.8635 0.975 7.4035C1.625 5.9435 2.505 4.6735 3.615 3.5935C4.725 2.5135 6.02 1.6585 7.5 1.0285C8.98 0.398496 10.56 0.0834961 12.24 0.0834961C13.84 0.0834961 15.35 0.358496 16.77 0.908496C18.19 1.4585 19.435 2.2185 20.505 3.1885C21.575 4.1585 22.425 5.3085 23.055 6.6385C23.685 7.9685 24 9.4035 24 10.9435C24 13.2435 23.3 15.0085 21.9 16.2385C20.5 17.4685 18.8 18.0835 16.8 18.0835H14.58C14.4 18.0835 14.275 18.1335 14.205 18.2335C14.135 18.3335 14.1 18.4435 14.1 18.5635C14.1 18.8035 14.25 19.1485 14.55 19.5985C14.85 20.0485 15 20.5635 15 21.1435C15 22.1435 14.725 22.8835 14.175 23.3635C13.625 23.8435 12.9 24.0835 12 24.0835ZM5.4 13.2835C5.92 13.2835 6.35 13.1135 6.69 12.7735C7.03 12.4335 7.2 12.0035 7.2 11.4835C7.2 10.9635 7.03 10.5335 6.69 10.1935C6.35 9.8535 5.92 9.6835 5.4 9.6835C4.88 9.6835 4.45 9.8535 4.11 10.1935C3.77 10.5335 3.6 10.9635 3.6 11.4835C3.6 12.0035 3.77 12.4335 4.11 12.7735C4.45 13.1135 4.88 13.2835 5.4 13.2835ZM9 8.4835C9.52 8.4835 9.95 8.3135 10.29 7.9735C10.63 7.6335 10.8 7.2035 10.8 6.6835C10.8 6.1635 10.63 5.7335 10.29 5.3935C9.95 5.0535 9.52 4.8835 9 4.8835C8.48 4.8835 8.05 5.0535 7.71 5.3935C7.37 5.7335 7.2 6.1635 7.2 6.6835C7.2 7.2035 7.37 7.6335 7.71 7.9735C8.05 8.3135 8.48 8.4835 9 8.4835ZM15 8.4835C15.52 8.4835 15.95 8.3135 16.29 7.9735C16.63 7.6335 16.8 7.2035 16.8 6.6835C16.8 6.1635 16.63 5.7335 16.29 5.3935C15.95 5.0535 15.52 4.8835 15 4.8835C14.48 4.8835 14.05 5.0535 13.71 5.3935C13.37 5.7335 13.2 6.1635 13.2 6.6835C13.2 7.2035 13.37 7.6335 13.71 7.9735C14.05 8.3135 14.48 8.4835 15 8.4835ZM18.6 13.2835C19.12 13.2835 19.55 13.1135 19.89 12.7735C20.23 12.4335 20.4 12.0035 20.4 11.4835C20.4 10.9635 20.23 10.5335 19.89 10.1935C19.55 9.8535 19.12 9.6835 18.6 9.6835C18.08 9.6835 17.65 9.8535 17.31 10.1935C16.97 10.5335 16.8 10.9635 16.8 11.4835C16.8 12.0035 16.97 12.4335 17.31 12.7735C17.65 13.1135 18.08 13.2835 18.6 13.2835ZM12 21.6835C12.18 21.6835 12.325 21.6335 12.435 21.5335C12.545 21.4335 12.6 21.3035 12.6 21.1435C12.6 20.8635 12.45 20.5335 12.15 20.1535C11.85 19.7735 11.7 19.2035 11.7 18.4435C11.7 17.6035 11.99 16.9335 12.57 16.4335C13.15 15.9335 13.86 15.6835 14.7 15.6835H16.8C18.12 15.6835 19.25 15.2985 20.19 14.5285C21.13 13.7585 21.6 12.5635 21.6 10.9435C21.6 8.5235 20.675 6.5085 18.825 4.8985C16.975 3.2885 14.78 2.4835 12.24 2.4835C9.52 2.4835 7.2 3.4135 5.28 5.2735C3.36 7.1335 2.4 9.4035 2.4 12.0835C2.4 14.7435 3.335 17.0085 5.205 18.8785C7.075 20.7485 9.34 21.6835 12 21.6835Z" fill="white"/>
</g>
<defs>
<clipPath id="clip0_277_119">
<rect width="24" height="24" fill="white" transform="translate(0 0.0834961)"/>
</clipPath>
</defs>
</svg>
