<svg width="24" height="25" viewBox="0 0 24 25" fill="none" xmlns="http://www.w3.org/2000/svg">
<g clip-path="url(#clip0_277_55)">
<path d="M6.60039 24.3335C5.44039 24.3335 4.45039 23.9235 3.63039 23.1035C2.81039 22.2835 2.40039 21.2935 2.40039 20.1335V4.5335C2.40039 3.3735 2.81039 2.3835 3.63039 1.5635C4.45039 0.743496 5.44039 0.333496 6.60039 0.333496H21.6004V18.3335C21.1004 18.3335 20.6754 18.5085 20.3254 18.8585C19.9754 19.2085 19.8004 19.6335 19.8004 20.1335C19.8004 20.6335 19.9754 21.0585 20.3254 21.4085C20.6754 21.7585 21.1004 21.9335 21.6004 21.9335V24.3335H6.60039ZM4.80039 16.3235C5.08039 16.1835 5.37039 16.0835 5.67039 16.0235C5.97039 15.9635 6.28039 15.9335 6.60039 15.9335H7.20039V2.7335H6.60039C6.10039 2.7335 5.67539 2.9085 5.32539 3.2585C4.97539 3.6085 4.80039 4.0335 4.80039 4.5335V16.3235ZM9.60039 15.9335H19.2004V2.7335H9.60039V15.9335ZM6.60039 21.9335H17.7904C17.6704 21.6535 17.5754 21.3685 17.5054 21.0785C17.4354 20.7885 17.4004 20.4735 17.4004 20.1335C17.4004 19.8135 17.4304 19.5035 17.4904 19.2035C17.5504 18.9035 17.6504 18.6135 17.7904 18.3335H6.60039C6.08039 18.3335 5.65039 18.5085 5.31039 18.8585C4.97039 19.2085 4.80039 19.6335 4.80039 20.1335C4.80039 20.6535 4.97039 21.0835 5.31039 21.4235C5.65039 21.7635 6.08039 21.9335 6.60039 21.9335Z" fill="white"/>
</g>
<defs>
<clipPath id="clip0_277_55">
<rect width="24" height="24" fill="white" transform="translate(0 0.333496)"/>
</clipPath>
</defs>
</svg>
