<svg width="24" height="25" viewBox="0 0 24 25" fill="none" xmlns="http://www.w3.org/2000/svg">
<g clip-path="url(#clip0_277_186)">
<path d="M9.35927 9.06702L11.8988 4.87247L10.2153 2.0761C9.98703 1.69564 9.65888 1.50541 9.23087 1.50541C8.80285 1.50541 8.47471 1.69564 8.24643 2.0761L5.45006 6.7272L9.35927 9.06702ZM20.4021 16.8284L17.8625 12.6053L21.8288 10.3225L23.655 13.3757C23.8642 13.6991 23.9784 14.0605 23.9974 14.46C24.0164 14.8595 23.9308 15.2304 23.7406 15.5729C23.5504 15.9533 23.2698 16.2577 22.8988 16.486C22.5279 16.7142 22.1236 16.8284 21.6861 16.8284H20.4021ZM17.1206 24.818L12.5551 20.2525L17.1206 15.687V17.9697H22.5422L20.8872 21.2797C20.6779 21.6602 20.3926 21.9646 20.0311 22.1928C19.6697 22.4211 19.2702 22.5352 18.8327 22.5352H17.1206V24.818ZM6.07782 22.5352C5.69736 22.5352 5.35019 22.4354 5.03632 22.2356C4.72244 22.0359 4.48941 21.7743 4.33722 21.4509C4.18504 21.1466 4.11371 20.8279 4.12322 20.495C4.13273 20.1621 4.22309 19.853 4.39429 19.5677L5.36446 17.9697H10.2724V22.5352H6.07782ZM3.25292 19.2823L1.39818 15.5729C1.22698 15.2304 1.14613 14.8643 1.15564 14.4743C1.16515 14.0843 1.27454 13.7181 1.48379 13.3757L1.94034 12.6053L0 11.4354L6.24903 9.86598L7.81842 16.1435L5.84955 14.9451L3.25292 19.2823ZM18.6615 9.52357L12.4125 7.95418L14.3813 6.78427L10.8145 0.849121H14.8379C15.2374 0.849121 15.6131 0.948991 15.965 1.14873C16.3169 1.34847 16.5975 1.61955 16.8067 1.96196L18.2905 4.44445L20.2309 3.24601L18.6615 9.52357Z" fill="white"/>
</g>
<defs>
<clipPath id="clip0_277_186">
<rect width="24" height="24" fill="white" transform="translate(0 0.833496)"/>
</clipPath>
</defs>
</svg>
