<svg width="24" height="25" viewBox="0 0 24 25" fill="none" xmlns="http://www.w3.org/2000/svg">
<path d="M24 4.96641V19.3664C24 20.0264 23.765 20.5914 23.295 21.0614C22.825 21.5314 22.26 21.7664 21.6 21.7664H2.4C1.74 21.7664 1.175 21.5314 0.705 21.0614C0.235 20.5914 0 20.0264 0 19.3664V4.96641C0 4.30641 0.235 3.74141 0.705 3.27141C1.175 2.80141 1.74 2.56641 2.4 2.56641H21.6C22.26 2.56641 22.825 2.80141 23.295 3.27141C23.765 3.74141 24 4.30641 24 4.96641ZM2.4 7.36641H21.6V4.96641H2.4V7.36641ZM2.4 12.1664V19.3664H21.6V12.1664H2.4Z" fill="white"/>
</svg>
