<svg width="24" height="25" viewBox="0 0 24 25" fill="none" xmlns="http://www.w3.org/2000/svg">
<g clip-path="url(#clip0_277_115)">
<path d="M9.33333 24.0835C7.86667 24.0835 6.61111 23.5613 5.56667 22.5168C4.52222 21.4724 4 20.2168 4 18.7502C4 17.2835 4.52222 16.0279 5.56667 14.9835C6.61111 13.9391 7.86667 13.4168 9.33333 13.4168C9.84444 13.4168 10.3167 13.4779 10.75 13.6002C11.1833 13.7224 11.6 13.9057 12 14.1502V0.0834961H20V5.41683H14.6667V18.7502C14.6667 20.2168 14.1444 21.4724 13.1 22.5168C12.0556 23.5613 10.8 24.0835 9.33333 24.0835Z" fill="white"/>
</g>
<defs>
<clipPath id="clip0_277_115">
<rect width="24" height="24" fill="white" transform="translate(0 0.0834961)"/>
</clipPath>
</defs>
</svg>
