<svg width="24" height="25" viewBox="0 0 24 25" fill="none" xmlns="http://www.w3.org/2000/svg">
<path d="M12 23.3205C10.5915 23.3205 9.2723 23.0529 8.04225 22.5177C6.81221 21.9825 5.74178 21.2595 4.83099 20.3487C3.92019 19.4379 3.19718 18.3675 2.66197 17.1374C2.12676 15.9074 1.85915 14.5881 1.85915 13.1797C1.85915 11.7712 2.12676 10.452 2.66197 9.22194C3.19718 7.99189 3.92019 6.92147 4.83099 6.01067C5.74178 5.09988 6.81221 4.37687 8.04225 3.84166C9.2723 3.30645 10.5915 3.03884 12 3.03884C13.4085 3.03884 14.7277 3.30645 15.9577 3.84166C17.1878 4.37687 18.2582 5.09988 19.169 6.01067C20.0798 6.92147 20.8028 7.99189 21.338 9.22194C21.8732 10.452 22.1408 11.7712 22.1408 13.1797C22.1408 14.5881 21.8732 15.9074 21.338 17.1374C20.8028 18.3675 20.0798 19.4379 19.169 20.3487C18.2582 21.2595 17.1878 21.9825 15.9577 22.5177C14.7277 23.0529 13.4085 23.3205 12 23.3205ZM15.1549 17.9121L16.7324 16.3346L13.1268 12.729V7.54588H10.8732V13.6304L15.1549 17.9121ZM4.78873 1.17969L6.3662 2.75715L1.57746 7.54588L0 5.96842L4.78873 1.17969ZM19.2113 1.17969L24 5.96842L22.4225 7.54588L17.6338 2.75715L19.2113 1.17969ZM12 21.067C14.1972 21.067 16.061 20.3018 17.5915 18.7712C19.1221 17.2407 19.8873 15.3769 19.8873 13.1797C19.8873 10.9825 19.1221 9.11865 17.5915 7.58814C16.061 6.05762 14.1972 5.29236 12 5.29236C9.80282 5.29236 7.93897 6.05762 6.40845 7.58814C4.87793 9.11865 4.11268 10.9825 4.11268 13.1797C4.11268 15.3769 4.87793 17.2407 6.40845 18.7712C7.93897 20.3018 9.80282 21.067 12 21.067Z" fill="white"/>
</svg>
