<svg width="24" height="25" viewBox="0 0 24 25" fill="none" xmlns="http://www.w3.org/2000/svg">
<g clip-path="url(#clip0_277_86)">
<path d="M11.9996 5.3C11.3396 5.3 10.7746 5.065 10.3046 4.595C9.83461 4.125 9.59961 3.56 9.59961 2.9C9.59961 2.24 9.83461 1.675 10.3046 1.205C10.7746 0.735 11.3396 0.5 11.9996 0.5C12.6596 0.5 13.2246 0.735 13.6946 1.205C14.1646 1.675 14.3996 2.24 14.3996 2.9C14.3996 3.56 14.1646 4.125 13.6946 4.595C13.2246 5.065 12.6596 5.3 11.9996 5.3ZM17.9996 24.5V18.5H11.9996C11.3396 18.5 10.7746 18.265 10.3046 17.795C9.83461 17.325 9.59961 16.76 9.59961 16.1V8.9C9.59961 8.24 9.83461 7.675 10.3046 7.205C10.7746 6.735 11.3396 6.5 11.9996 6.5C12.4796 6.5 12.8946 6.605 13.2446 6.815C13.5946 7.025 13.9696 7.36 14.3696 7.82C15.4696 9.14 16.4646 10.045 17.3546 10.535C18.2446 11.025 19.2596 11.28 20.3996 11.3V13.7C19.3396 13.7 18.2696 13.47 17.1896 13.01C16.1096 12.55 15.1796 12 14.3996 11.36V15.5H17.9996C18.6596 15.5 19.2246 15.735 19.6946 16.205C20.1646 16.675 20.3996 17.24 20.3996 17.9V24.5H17.9996ZM9.59961 24.5C7.93961 24.5 6.52461 23.915 5.35461 22.745C4.18461 21.575 3.59961 20.16 3.59961 18.5C3.59961 17.06 4.05461 15.79 4.96461 14.69C5.87461 13.59 7.01961 12.9 8.39961 12.62V15.08C7.69961 15.36 7.12461 15.805 6.67461 16.415C6.22461 17.025 5.99961 17.72 5.99961 18.5C5.99961 19.5 6.34961 20.35 7.04961 21.05C7.74961 21.75 8.59961 22.1 9.59961 22.1C10.3796 22.1 11.0746 21.875 11.6846 21.425C12.2946 20.975 12.7396 20.4 13.0196 19.7H15.4796C15.1996 21.08 14.5096 22.225 13.4096 23.135C12.3096 24.045 11.0396 24.5 9.59961 24.5Z" fill="white"/>
</g>
<defs>
<clipPath id="clip0_277_86">
<rect width="24" height="24" fill="white" transform="translate(0 0.5)"/>
</clipPath>
</defs>
</svg>
