<svg width="24" height="25" viewBox="0 0 24 25" fill="none" xmlns="http://www.w3.org/2000/svg">
<path d="M4 20.7502V22.0835C4 22.4613 3.87222 22.7779 3.61667 23.0335C3.36111 23.2891 3.04444 23.4168 2.66667 23.4168H1.33333C0.955556 23.4168 0.638889 23.2891 0.383333 23.0335C0.127778 22.7779 0 22.4613 0 22.0835V11.4168L2.8 3.41683C2.93333 3.01683 3.17222 2.69461 3.51667 2.45016C3.86111 2.20572 4.24444 2.0835 4.66667 2.0835H19.3333C19.7556 2.0835 20.1389 2.20572 20.4833 2.45016C20.8278 2.69461 21.0667 3.01683 21.2 3.41683L24 11.4168V22.0835C24 22.4613 23.8722 22.7779 23.6167 23.0335C23.3611 23.2891 23.0444 23.4168 22.6667 23.4168H21.3333C20.9556 23.4168 20.6389 23.2891 20.3833 23.0335C20.1278 22.7779 20 22.4613 20 22.0835V20.7502H4ZM3.73333 8.75016H20.2667L18.8667 4.75016H5.13333L3.73333 8.75016ZM6 16.7502C6.55556 16.7502 7.02778 16.5557 7.41667 16.1668C7.80556 15.7779 8 15.3057 8 14.7502C8 14.1946 7.80556 13.7224 7.41667 13.3335C7.02778 12.9446 6.55556 12.7502 6 12.7502C5.44444 12.7502 4.97222 12.9446 4.58333 13.3335C4.19444 13.7224 4 14.1946 4 14.7502C4 15.3057 4.19444 15.7779 4.58333 16.1668C4.97222 16.5557 5.44444 16.7502 6 16.7502ZM18 16.7502C18.5556 16.7502 19.0278 16.5557 19.4167 16.1668C19.8056 15.7779 20 15.3057 20 14.7502C20 14.1946 19.8056 13.7224 19.4167 13.3335C19.0278 12.9446 18.5556 12.7502 18 12.7502C17.4444 12.7502 16.9722 12.9446 16.5833 13.3335C16.1944 13.7224 16 14.1946 16 14.7502C16 15.3057 16.1944 15.7779 16.5833 16.1668C16.9722 16.5557 17.4444 16.7502 18 16.7502ZM2.66667 18.0835H21.3333V11.4168H2.66667V18.0835Z" fill="white"/>
</svg>
