<svg width="24" height="25" viewBox="0 0 24 25" fill="none" xmlns="http://www.w3.org/2000/svg">
<g clip-path="url(#clip0_277_67)">
<path d="M2.4 24.9165C1.74 24.9165 1.175 24.6815 0.705 24.2115C0.235 23.7415 0 23.1765 0 22.5165V8.1165C0 7.4565 0.235 6.8915 0.705 6.4215C1.175 5.9515 1.74 5.7165 2.4 5.7165H7.2V3.3165C7.2 2.6565 7.435 2.0915 7.905 1.6215C8.375 1.1515 8.94 0.916504 9.6 0.916504H14.4C15.06 0.916504 15.625 1.1515 16.095 1.6215C16.565 2.0915 16.8 2.6565 16.8 3.3165V5.7165H21.6C22.26 5.7165 22.825 5.9515 23.295 6.4215C23.765 6.8915 24 7.4565 24 8.1165V22.5165C24 23.1765 23.765 23.7415 23.295 24.2115C22.825 24.6815 22.26 24.9165 21.6 24.9165H2.4ZM2.4 22.5165H21.6V8.1165H2.4V22.5165ZM9.6 5.7165H14.4V3.3165H9.6V5.7165ZM10.8 16.5165V20.1165H13.2V16.5165H16.8V14.1165H13.2V10.5165H10.8V14.1165H7.2V16.5165H10.8Z" fill="white"/>
</g>
<defs>
<clipPath id="clip0_277_67">
<rect width="24" height="24" fill="white" transform="translate(0 0.916504)"/>
</clipPath>
</defs>
</svg>
