<svg width="24" height="25" viewBox="0 0 24 25" fill="none" xmlns="http://www.w3.org/2000/svg">
<g clip-path="url(#clip0_277_36)">
<path d="M9.29138 24.7172L6.04104 18.6761L0 15.4258L2.33105 13.1276L7.09165 13.9484L10.4405 10.5995L0.0328317 6.16724L2.7907 3.34371L15.4309 5.57627L19.5021 1.50513C20.0055 1.00171 20.6293 0.75 21.3735 0.75C22.1176 0.75 22.7414 1.00171 23.2449 1.50513C23.7483 2.00855 24 2.62688 24 3.36012C24 4.09337 23.7483 4.7117 23.2449 5.21512L19.1409 9.31908L21.3735 21.9265L18.5828 24.7172L14.1176 14.3095L10.7688 17.6583L11.6224 22.3861L9.29138 24.7172Z" fill="white"/>
</g>
<defs>
<clipPath id="clip0_277_36">
<rect width="24" height="24" fill="white" transform="translate(0 0.75)"/>
</clipPath>
</defs>
</svg>
