<svg width="24" height="25" viewBox="0 0 24 25" fill="none" xmlns="http://www.w3.org/2000/svg">
<path d="M7.2 22.8837V20.4837H9.6V18.0837H2.4C1.74 18.0837 1.175 17.8487 0.705 17.3787C0.235 16.9087 0 16.3437 0 15.6837V3.68369C0 3.02369 0.235 2.45869 0.705 1.98869C1.175 1.51869 1.74 1.28369 2.4 1.28369H21.6C22.26 1.28369 22.825 1.51869 23.295 1.98869C23.765 2.45869 24 3.02369 24 3.68369V15.6837C24 16.3437 23.765 16.9087 23.295 17.3787C22.825 17.8487 22.26 18.0837 21.6 18.0837H14.4V20.4837H16.8V22.8837H7.2ZM2.4 15.6837H21.6V3.68369H2.4V15.6837Z" fill="white"/>
</svg>
