<svg width="24" height="25" viewBox="0 0 24 25" fill="none" xmlns="http://www.w3.org/2000/svg">
<g clip-path="url(#clip0_277_69)">
<path d="M0.339768 12.5768C0.113256 12.3297 0 12.0363 0 11.6965C0 11.3567 0.113256 11.0633 0.339768 10.8162L3.79923 7.35672L2.47104 6.02854L2.10039 6.39919C1.85328 6.6463 1.55985 6.76985 1.22008 6.76985C0.880309 6.76985 0.586873 6.6463 0.339768 6.39919C0.113256 6.17268 0 5.88439 0 5.53433C0 5.18426 0.113256 4.89597 0.339768 4.66946L2.81081 2.19842C3.05792 1.95132 3.35135 1.82776 3.69112 1.82776C4.03089 1.82776 4.32432 1.95132 4.57143 2.19842C4.79794 2.42493 4.9112 2.71322 4.9112 3.06328C4.9112 3.41335 4.79794 3.70164 4.57143 3.92815L4.20077 4.29881L5.52896 5.62699L8.98842 2.16753C9.23552 1.92043 9.52896 1.79688 9.86873 1.79688C10.2085 1.79688 10.5019 1.92043 10.749 2.16753C10.9961 2.41464 11.1197 2.70807 11.1197 3.04784C11.1197 3.38761 10.9961 3.68104 10.749 3.92815L9.91506 4.73124L19.027 13.8432C19.5006 14.3168 19.7375 14.8985 19.7375 15.5884C19.7375 16.2782 19.5006 16.8599 19.027 17.3336L18.1622 18.2293L24 24.0363H20.4788L16.4015 19.959L15.5367 20.8548C15.0631 21.3284 14.4813 21.5652 13.7915 21.5652C13.1017 21.5652 12.5199 21.3284 12.0463 20.8548L2.93436 11.7428L2.10039 12.5768C1.85328 12.8033 1.55985 12.9166 1.22008 12.9166C0.880309 12.9166 0.586873 12.8033 0.339768 12.5768ZM4.66409 10.0131L13.7761 19.1251L17.2664 15.6038L15.4131 13.7197L13.6834 15.4494C13.4363 15.6759 13.1429 15.7943 12.8031 15.8046C12.4633 15.8149 12.1802 15.7068 11.9537 15.4803C11.7066 15.2332 11.583 14.9397 11.583 14.6C11.583 14.2602 11.7066 13.9668 11.9537 13.7197L13.6834 11.9899L11.8301 10.1366L10.1004 11.8664C9.85328 12.0929 9.55985 12.2061 9.22008 12.2061C8.88031 12.2061 8.58687 12.0929 8.33977 11.8664C8.11326 11.6193 8 11.3258 8 10.9861C8 10.6463 8.11326 10.3529 8.33977 10.1058L10.0695 8.37603L8.18533 6.49186L4.66409 10.0131Z" fill="white"/>
</g>
<defs>
<clipPath id="clip0_277_69">
<rect width="24" height="24" fill="white" transform="translate(0 0.916504)"/>
</clipPath>
</defs>
</svg>
