<svg width="24" height="25" viewBox="0 0 24 25" fill="none" xmlns="http://www.w3.org/2000/svg">
<path d="M12 23.6772L10.26 22.1172C8.24 20.2972 6.57 18.7272 5.25 17.4072C3.93 16.0872 2.88 14.9022 2.1 13.8522C1.32 12.8022 0.775 11.8372 0.465 10.9572C0.155 10.0772 0 9.17723 0 8.25723C0 6.37723 0.63 4.80723 1.89 3.54723C3.15 2.28723 4.72 1.65723 6.6 1.65723C7.64 1.65723 8.63 1.87723 9.57 2.31723C10.51 2.75723 11.32 3.37723 12 4.17723C12.68 3.37723 13.49 2.75723 14.43 2.31723C15.37 1.87723 16.36 1.65723 17.4 1.65723C19.28 1.65723 20.85 2.28723 22.11 3.54723C23.37 4.80723 24 6.37723 24 8.25723C24 9.17723 23.845 10.0772 23.535 10.9572C23.225 11.8372 22.68 12.8022 21.9 13.8522C21.12 14.9022 20.07 16.0872 18.75 17.4072C17.43 18.7272 15.76 20.2972 13.74 22.1172L12 23.6772ZM12 20.4372C13.92 18.7172 15.5 17.2422 16.74 16.0122C17.98 14.7822 18.96 13.7122 19.68 12.8022C20.4 11.8922 20.9 11.0822 21.18 10.3722C21.46 9.66223 21.6 8.95723 21.6 8.25723C21.6 7.05723 21.2 6.05723 20.4 5.25723C19.6 4.45723 18.6 4.05723 17.4 4.05723C16.46 4.05723 15.59 4.32223 14.79 4.85223C13.99 5.38223 13.44 6.05723 13.14 6.87723H10.86C10.56 6.05723 10.01 5.38223 9.21 4.85223C8.41 4.32223 7.54 4.05723 6.6 4.05723C5.4 4.05723 4.4 4.45723 3.6 5.25723C2.8 6.05723 2.4 7.05723 2.4 8.25723C2.4 8.95723 2.54 9.66223 2.82 10.3722C3.1 11.0822 3.6 11.8922 4.32 12.8022C5.04 13.7122 6.02 14.7822 7.26 16.0122C8.5 17.2422 10.08 18.7172 12 20.4372Z" fill="white"/>
</svg>
