<svg width="24" height="25" viewBox="0 0 24 25" fill="none" xmlns="http://www.w3.org/2000/svg">
<g clip-path="url(#clip0_248_19)">
<path d="M2.66667 22.2335H4.56667L17.6 9.20015L15.7 7.30015L2.66667 20.3335V22.2335ZM0 24.9001V19.2335L17.6 1.66681C17.8667 1.42237 18.1611 1.23348 18.4833 1.10015C18.8056 0.966813 19.1444 0.900146 19.5 0.900146C19.8556 0.900146 20.2 0.966813 20.5333 1.10015C20.8667 1.23348 21.1556 1.43348 21.4 1.70015L23.2333 3.56681C23.5 3.81126 23.6944 4.10015 23.8167 4.43348C23.9389 4.76681 24 5.10015 24 5.43348C24 5.78904 23.9389 6.12792 23.8167 6.45015C23.6944 6.77237 23.5 7.06681 23.2333 7.33348L5.66667 24.9001H0ZM16.6333 8.26681L15.7 7.30015L17.6 9.20015L16.6333 8.26681Z" fill="white"/>
</g>
<defs>
<clipPath id="clip0_248_19">
<rect width="24" height="24" fill="white" transform="translate(0 0.900146)"/>
</clipPath>
</defs>
</svg>
