<svg width="24" height="25" viewBox="0 0 24 25" fill="none" xmlns="http://www.w3.org/2000/svg">
<g clip-path="url(#clip0_153_23)">
<path d="M12 24.1316C10.34 24.1316 8.78 23.8166 7.32 23.1866C5.86 22.5566 4.59 21.7016 3.51 20.6216C2.43 19.5416 1.575 18.2716 0.945 16.8116C0.315 15.3516 0 13.7916 0 12.1316C0 10.4716 0.315 8.91159 0.945 7.45159C1.575 5.99159 2.43 4.72159 3.51 3.64159C4.59 2.56159 5.86 1.70659 7.32 1.07659C8.78 0.446592 10.34 0.131592 12 0.131592C13.66 0.131592 15.22 0.446592 16.68 1.07659C18.14 1.70659 19.41 2.56159 20.49 3.64159C21.57 4.72159 22.425 5.99159 23.055 7.45159C23.685 8.91159 24 10.4716 24 12.1316C24 13.7916 23.685 15.3516 23.055 16.8116C22.425 18.2716 21.57 19.5416 20.49 20.6216C19.41 21.7016 18.14 22.5566 16.68 23.1866C15.22 23.8166 13.66 24.1316 12 24.1316ZM12 21.7316C14.68 21.7316 16.95 20.8016 18.81 18.9416C20.67 17.0816 21.6 14.8116 21.6 12.1316C21.6 9.45159 20.67 7.18159 18.81 5.32159C16.95 3.46159 14.68 2.53159 12 2.53159C9.32 2.53159 7.05 3.46159 5.19 5.32159C3.33 7.18159 2.4 9.45159 2.4 12.1316C2.4 14.8116 3.33 17.0816 5.19 18.9416C7.05 20.8016 9.32 21.7316 12 21.7316Z" fill="white"/>
</g>
<defs>
<clipPath id="clip0_153_23">
<rect width="24" height="24" fill="white" transform="translate(0 0.131592)"/>
</clipPath>
</defs>
</svg>
