<svg width="24" height="25" viewBox="0 0 24 25" fill="none" xmlns="http://www.w3.org/2000/svg">
<path d="M19.2632 22.6712C17.9368 22.6712 16.8158 22.2133 15.9 21.2975C14.9842 20.3817 14.5263 19.2607 14.5263 17.9344C14.5263 16.608 14.9842 15.487 15.9 14.5712C16.8158 13.6554 17.9368 13.1975 19.2632 13.1975C20.5895 13.1975 21.7105 13.6554 22.6263 14.5712C23.5421 15.487 24 16.608 24 17.9344C24 19.2607 23.5421 20.3817 22.6263 21.2975C21.7105 22.2133 20.5895 22.6712 19.2632 22.6712ZM19.2632 20.1449C19.8737 20.1449 20.3947 19.9291 20.8263 19.4975C21.2579 19.0659 21.4737 18.5449 21.4737 17.9344C21.4737 17.3238 21.2579 16.8028 20.8263 16.3712C20.3947 15.9396 19.8737 15.7238 19.2632 15.7238C18.6526 15.7238 18.1316 15.9396 17.7 16.3712C17.2684 16.8028 17.0526 17.3238 17.0526 17.9344C17.0526 18.5449 17.2684 19.0659 17.7 19.4975C18.1316 19.9291 18.6526 20.1449 19.2632 20.1449ZM1.89474 19.1975V16.6712H12V19.1975H1.89474ZM4.73684 11.3028C3.41053 11.3028 2.28947 10.8449 1.37368 9.9291C0.457895 9.01331 0 7.89226 0 6.56594C0 5.23963 0.457895 4.11858 1.37368 3.20279C2.28947 2.287 3.41053 1.8291 4.73684 1.8291C6.06316 1.8291 7.18421 2.287 8.1 3.20279C9.01579 4.11858 9.47368 5.23963 9.47368 6.56594C9.47368 7.89226 9.01579 9.01331 8.1 9.9291C7.18421 10.8449 6.06316 11.3028 4.73684 11.3028ZM4.73684 8.77647C5.34737 8.77647 5.86842 8.56068 6.3 8.1291C6.73158 7.69752 6.94737 7.17647 6.94737 6.56594C6.94737 5.95542 6.73158 5.43436 6.3 5.00279C5.86842 4.57121 5.34737 4.35542 4.73684 4.35542C4.12632 4.35542 3.60526 4.57121 3.17368 5.00279C2.74211 5.43436 2.52632 5.95542 2.52632 6.56594C2.52632 7.17647 2.74211 7.69752 3.17368 8.1291C3.60526 8.56068 4.12632 8.77647 4.73684 8.77647ZM12 7.8291V5.30279H22.1053V7.8291H12Z" fill="white"/>
</svg>
