<svg width="24" height="25" viewBox="0 0 24 25" fill="none" xmlns="http://www.w3.org/2000/svg">
<g clip-path="url(#clip0_277_132)">
<path d="M0 12.0671L6 1.26709L12 12.0671H0ZM6 24.0671C4.68 24.0671 3.55 23.5971 2.61 22.6571C1.67 21.7171 1.2 20.5871 1.2 19.2671C1.2 17.9271 1.67 16.7921 2.61 15.8621C3.55 14.9321 4.68 14.4671 6 14.4671C7.32 14.4671 8.45 14.9371 9.39 15.8771C10.33 16.8171 10.8 17.9471 10.8 19.2671C10.8 20.5871 10.33 21.7171 9.39 22.6571C8.45 23.5971 7.32 24.0671 6 24.0671ZM6 21.6671C6.66 21.6671 7.225 21.4321 7.695 20.9621C8.165 20.4921 8.4 19.9271 8.4 19.2671C8.4 18.6071 8.165 18.0421 7.695 17.5721C7.225 17.1021 6.66 16.8671 6 16.8671C5.34 16.8671 4.775 17.1021 4.305 17.5721C3.835 18.0421 3.6 18.6071 3.6 19.2671C3.6 19.9271 3.835 20.4921 4.305 20.9621C4.775 21.4321 5.34 21.6671 6 21.6671ZM4.08 9.66709H7.92L6 6.21709L4.08 9.66709ZM13.2 24.0671V14.4671H22.8V24.0671H13.2ZM15.6 21.6671H20.4V16.8671H15.6V21.6671ZM18 12.0671C16.86 11.1071 15.905 10.2971 15.135 9.63709C14.365 8.97709 13.75 8.39709 13.29 7.89709C12.83 7.39709 12.5 6.92709 12.3 6.48709C12.1 6.04709 12 5.57709 12 5.07709C12 4.17709 12.315 3.41709 12.945 2.79709C13.575 2.17709 14.36 1.86709 15.3 1.86709C15.84 1.86709 16.345 1.99209 16.815 2.24209C17.285 2.49209 17.68 2.83709 18 3.27709C18.32 2.83709 18.715 2.49209 19.185 2.24209C19.655 1.99209 20.16 1.86709 20.7 1.86709C21.64 1.86709 22.425 2.17709 23.055 2.79709C23.685 3.41709 24 4.17709 24 5.07709C24 5.57709 23.9 6.04709 23.7 6.48709C23.5 6.92709 23.17 7.39709 22.71 7.89709C22.25 8.39709 21.635 8.97709 20.865 9.63709C20.095 10.2971 19.14 11.1071 18 12.0671ZM18 8.91709C19.44 7.71709 20.4 6.86709 20.88 6.36709C21.36 5.86709 21.6 5.45709 21.6 5.13709C21.6 4.87709 21.525 4.66709 21.375 4.50709C21.225 4.34709 21.02 4.26709 20.76 4.26709C20.56 4.26709 20.365 4.32209 20.175 4.43209C19.985 4.54209 19.75 4.73709 19.47 5.01709L18 6.42709L16.53 5.01709C16.25 4.73709 16.015 4.54209 15.825 4.43209C15.635 4.32209 15.44 4.26709 15.24 4.26709C14.98 4.26709 14.775 4.34709 14.625 4.50709C14.475 4.66709 14.4 4.87709 14.4 5.13709C14.4 5.45709 14.64 5.86709 15.12 6.36709C15.6 6.86709 16.56 7.71709 18 8.91709Z" fill="white"/>
</g>
<defs>
<clipPath id="clip0_277_132">
<rect width="24" height="24" fill="white" transform="translate(0 0.666992)"/>
</clipPath>
</defs>
</svg>
