<svg width="97" height="96" viewBox="0 0 97 96" fill="none" xmlns="http://www.w3.org/2000/svg">
<circle cx="48.2852" cy="48" r="48" fill="#979DA3"/>
<path fill-rule="evenodd" clip-rule="evenodd" d="M81.0199 83.106C72.4451 91.1052 60.9366 96 48.2849 96C35.6331 96 24.1246 91.1052 15.5498 83.106C19.8501 76.2675 29.2225 69 48.2849 69C67.3472 69 76.7196 76.2675 81.0199 83.106ZM61.0128 57.7279C57.6371 61.1036 53.0588 63 48.2849 63C43.511 63 38.9326 61.1036 35.5569 57.7279C32.1813 54.3523 30.2849 49.7739 30.2849 45C30.2849 40.2261 32.1813 35.6477 35.5569 32.2721C38.9326 28.8964 43.511 27 48.2849 27C53.0588 27 57.6371 28.8964 61.0128 32.2721C64.3884 35.6477 66.2849 40.2261 66.2849 45C66.2849 49.7739 64.3884 54.3523 61.0128 57.7279Z" fill="white"/>
</svg>
