<svg width="24" height="25" viewBox="0 0 24 25" fill="none" xmlns="http://www.w3.org/2000/svg">
<g clip-path="url(#clip0_216_41)">
<path d="M10.32 18.3879L18.78 9.92792L17.1 8.24792L10.32 15.0279L6.9 11.6079L5.22 13.2879L10.32 18.3879ZM12 24.8679C10.34 24.8679 8.78 24.5529 7.32 23.9229C5.86 23.2929 4.59 22.4379 3.51 21.3579C2.43 20.2779 1.575 19.0079 0.945 17.5479C0.315 16.0879 0 14.5279 0 12.8679C0 11.2079 0.315 9.64792 0.945 8.18792C1.575 6.72792 2.43 5.45792 3.51 4.37792C4.59 3.29792 5.86 2.44292 7.32 1.81292C8.78 1.18292 10.34 0.86792 12 0.86792C13.66 0.86792 15.22 1.18292 16.68 1.81292C18.14 2.44292 19.41 3.29792 20.49 4.37792C21.57 5.45792 22.425 6.72792 23.055 8.18792C23.685 9.64792 24 11.2079 24 12.8679C24 14.5279 23.685 16.0879 23.055 17.5479C22.425 19.0079 21.57 20.2779 20.49 21.3579C19.41 22.4379 18.14 23.2929 16.68 23.9229C15.22 24.5529 13.66 24.8679 12 24.8679ZM12 22.4679C14.68 22.4679 16.95 21.5379 18.81 19.6779C20.67 17.8179 21.6 15.5479 21.6 12.8679C21.6 10.1879 20.67 7.91792 18.81 6.05792C16.95 4.19792 14.68 3.26792 12 3.26792C9.32 3.26792 7.05 4.19792 5.19 6.05792C3.33 7.91792 2.4 10.1879 2.4 12.8679C2.4 15.5479 3.33 17.8179 5.19 19.6779C7.05 21.5379 9.32 22.4679 12 22.4679Z" fill="white"/>
</g>
<defs>
<clipPath id="clip0_216_41">
<rect width="24" height="24" fill="white" transform="translate(0 0.86792)"/>
</clipPath>
</defs>
</svg>
