<svg width="24" height="25" viewBox="0 0 24 25" fill="none" xmlns="http://www.w3.org/2000/svg">
<g clip-path="url(#clip0_277_19)">
<path d="M10.6999 24.1665V21.2998C9.52216 21.0332 8.50549 20.5221 7.64993 19.7665C6.79438 19.0109 6.1666 17.9443 5.7666 16.5665L8.23327 15.5665C8.5666 16.6332 9.06105 17.4443 9.7166 17.9998C10.3722 18.5554 11.2333 18.8332 12.2999 18.8332C13.211 18.8332 13.9833 18.6276 14.6166 18.2165C15.2499 17.8054 15.5666 17.1665 15.5666 16.2998C15.5666 15.5221 15.3222 14.9054 14.8333 14.4498C14.3444 13.9943 13.211 13.4776 11.4333 12.8998C9.52216 12.2998 8.21105 11.5832 7.49993 10.7498C6.78882 9.9165 6.43327 8.89984 6.43327 7.69984C6.43327 6.25539 6.89993 5.13317 7.83327 4.33317C8.7666 3.53317 9.72216 3.07762 10.6999 2.9665V0.166504H13.3666V2.9665C14.4777 3.14428 15.3944 3.54984 16.1166 4.18317C16.8388 4.8165 17.3666 5.58873 17.6999 6.49984L15.2333 7.5665C14.9666 6.85539 14.5888 6.32206 14.0999 5.9665C13.611 5.61095 12.9444 5.43317 12.0999 5.43317C11.1222 5.43317 10.3777 5.64984 9.8666 6.08317C9.35549 6.5165 9.09994 7.05539 9.09994 7.69984C9.09994 8.43317 9.43327 9.01095 10.0999 9.43317C10.7666 9.85539 11.9222 10.2998 13.5666 10.7665C15.0999 11.2109 16.261 11.9165 17.0499 12.8832C17.8388 13.8498 18.2333 14.9665 18.2333 16.2332C18.2333 17.8109 17.7666 19.0109 16.8333 19.8332C15.8999 20.6554 14.7444 21.1665 13.3666 21.3665V24.1665H10.6999Z" fill="white"/>
</g>
<defs>
<clipPath id="clip0_277_19">
<rect width="24" height="24" fill="white" transform="translate(0 0.166504)"/>
</clipPath>
</defs>
</svg>
