<svg width="24" height="25" viewBox="0 0 24 25" fill="none" xmlns="http://www.w3.org/2000/svg">
<g clip-path="url(#clip0_216_47)">
<path d="M10.32 18.2558L18.78 9.79584L17.1 8.11584L10.32 14.8958L6.9 11.4758L5.22 13.1558L10.32 18.2558ZM12 24.7358C10.34 24.7358 8.78 24.4208 7.32 23.7908C5.86 23.1608 4.59 22.3058 3.51 21.2258C2.43 20.1458 1.575 18.8758 0.945 17.4158C0.315 15.9558 0 14.3958 0 12.7358C0 11.0758 0.315 9.51584 0.945 8.05584C1.575 6.59584 2.43 5.32584 3.51 4.24584C4.59 3.16584 5.86 2.31084 7.32 1.68084C8.78 1.05084 10.34 0.73584 12 0.73584C13.66 0.73584 15.22 1.05084 16.68 1.68084C18.14 2.31084 19.41 3.16584 20.49 4.24584C21.57 5.32584 22.425 6.59584 23.055 8.05584C23.685 9.51584 24 11.0758 24 12.7358C24 14.3958 23.685 15.9558 23.055 17.4158C22.425 18.8758 21.57 20.1458 20.49 21.2258C19.41 22.3058 18.14 23.1608 16.68 23.7908C15.22 24.4208 13.66 24.7358 12 24.7358Z" fill="white"/>
</g>
<defs>
<clipPath id="clip0_216_47">
<rect width="24" height="24" fill="white" transform="translate(0 0.73584)"/>
</clipPath>
</defs>
</svg>
