<svg width="24" height="25" viewBox="0 0 24 25" fill="none" xmlns="http://www.w3.org/2000/svg">
<path d="M14.0576 18.2769L9.04405 13.2633C8.9287 13.1482 8.8445 13.0292 8.79147 12.9061C8.73843 12.7831 8.71191 12.6477 8.71191 12.5C8.71191 12.3523 8.73843 12.2169 8.79147 12.0939C8.8445 11.9708 8.9287 11.8518 9.04405 11.7367L14.0576 6.72275C14.1268 6.65381 14.2041 6.59944 14.2895 6.55967C14.3746 6.51989 14.466 6.5 14.5635 6.5C14.7585 6.5 14.9279 6.5659 15.0719 6.69769C15.2156 6.82949 15.2875 7.00318 15.2875 7.21878V17.7812C15.2875 17.9968 15.2148 18.1705 15.0695 18.3023C14.9245 18.4341 14.7551 18.5 14.5616 18.5C14.513 18.5 14.345 18.4256 14.0576 18.2769Z" fill="white"/>
</svg>
