<svg width="24" height="25" viewBox="0 0 24 25" fill="none" xmlns="http://www.w3.org/2000/svg">
<g clip-path="url(#clip0_277_99)">
<path d="M7.18182 25.0835C6.58182 25.0835 6.06818 24.8699 5.64091 24.4426C5.21364 24.0153 5 23.5017 5 22.9017V3.26531C5 2.66531 5.21364 2.15168 5.64091 1.72441C6.06818 1.29713 6.58182 1.0835 7.18182 1.0835H18.0909C18.6909 1.0835 19.2045 1.29713 19.6318 1.72441C20.0591 2.15168 20.2727 2.66531 20.2727 3.26531V6.64713C20.6 6.77441 20.8636 6.97441 21.0636 7.24713C21.2636 7.51986 21.3636 7.82895 21.3636 8.17441V10.3562C21.3636 10.7017 21.2636 11.0108 21.0636 11.2835C20.8636 11.5562 20.6 11.7562 20.2727 11.8835V22.9017C20.2727 23.5017 20.0591 24.0153 19.6318 24.4426C19.2045 24.8699 18.6909 25.0835 18.0909 25.0835H7.18182ZM7.18182 22.9017H18.0909V3.26531H7.18182V22.9017ZM12.6364 21.8108C12.9455 21.8108 13.2045 21.7062 13.4136 21.4971C13.6227 21.288 13.7273 21.029 13.7273 20.7199C13.7273 20.4108 13.6227 20.1517 13.4136 19.9426C13.2045 19.7335 12.9455 19.629 12.6364 19.629C12.3273 19.629 12.0682 19.7335 11.8591 19.9426C11.65 20.1517 11.5455 20.4108 11.5455 20.7199C11.5455 21.029 11.65 21.288 11.8591 21.4971C12.0682 21.7062 12.3273 21.8108 12.6364 21.8108Z" fill="white"/>
</g>
<defs>
<clipPath id="clip0_277_99">
<rect width="24" height="24" fill="white" transform="translate(0 0.0834961)"/>
</clipPath>
</defs>
</svg>
