<svg width="24" height="25" viewBox="0 0 24 25" fill="none" xmlns="http://www.w3.org/2000/svg">
<path d="M22.4299 20.7417L19.0654 17.3772L20.6355 15.8071L24 19.1716L22.4299 20.7417ZM18.3925 7.28372L16.8224 5.71363L20.1869 2.34914L21.757 3.91924L18.3925 7.28372ZM5.60748 7.28372L2.24299 3.91924L3.81308 2.34914L7.17757 5.71363L5.60748 7.28372ZM1.57009 20.7417L0 19.1716L3.36449 15.8071L4.93458 17.3772L1.57009 20.7417ZM8.46729 18.6389L12 16.508L15.5327 18.6669L14.6075 14.6295L17.7196 11.9379L13.6262 11.5734L12 7.76036L10.3738 11.5454L6.28037 11.9099L9.39252 14.6295L8.46729 18.6389ZM5.07477 23.3211L6.8972 15.4426L0.785047 10.1435L8.85981 9.4426L12 2.0127L15.1402 9.4426L23.215 10.1435L17.1028 15.4426L18.9252 23.3211L12 19.1435L5.07477 23.3211Z" fill="white"/>
</svg>
