<svg width="24" height="25" viewBox="0 0 24 25" fill="none" xmlns="http://www.w3.org/2000/svg">
<g clip-path="url(#clip0_126_32)">
<path d="M10.6011 24.1316C10.1704 24.1316 9.79835 23.9886 9.48509 23.7027C9.17162 23.4171 8.98088 23.0653 8.91288 22.6474L8.60435 20.2837C8.26604 20.1704 7.91909 20.0118 7.56351 19.8078C7.20814 19.6036 6.89035 19.385 6.61014 19.1519L4.42141 20.0822C4.02456 20.2572 3.62583 20.2741 3.22519 20.1331C2.82435 19.9922 2.51298 19.7364 2.29109 19.3657L0.86751 16.8975C0.645616 16.5268 0.581721 16.1344 0.675826 15.7205C0.769721 15.3069 0.985089 14.9656 1.32193 14.6967L3.21414 13.2757C3.18509 13.0879 3.16446 12.8993 3.15225 12.7098C3.14004 12.5203 3.13393 12.3316 3.13393 12.1436C3.13393 11.964 3.14004 11.7815 3.15225 11.596C3.16446 11.4105 3.18509 11.2077 3.21414 10.9875L1.32193 9.56643C0.985089 9.29759 0.771721 8.95422 0.681826 8.53633C0.591931 8.11865 0.657931 7.72433 0.879826 7.35338L2.29109 4.9218C2.51298 4.55907 2.82435 4.30528 3.22519 4.16043C3.62583 4.01538 4.02456 4.03033 4.42141 4.20528L6.59783 5.12359C6.90246 4.88233 7.22762 4.6617 7.5733 4.4617C7.91898 4.2617 8.25867 4.10096 8.59235 3.97949L8.91288 1.6158C8.98088 1.19791 9.17162 0.846119 9.48509 0.560434C9.79835 0.27454 10.1704 0.131592 10.6011 0.131592H13.3996C13.8304 0.131592 14.2024 0.27454 14.5156 0.560434C14.8291 0.846119 15.0198 1.19791 15.0878 1.6158L15.3964 3.99149C15.7753 4.12917 16.1181 4.28991 16.4249 4.4737C16.7318 4.65749 17.0416 4.87412 17.3542 5.12359L19.5916 4.20528C19.9882 4.03033 20.387 4.01538 20.7878 4.16043C21.1887 4.30528 21.4999 4.55907 21.7216 4.9218L23.1332 7.3657C23.3551 7.73643 23.419 8.12875 23.3249 8.54264C23.231 8.95633 23.0156 9.29759 22.6788 9.56643L20.7379 11.0238C20.7832 11.2278 20.8079 11.4185 20.8121 11.596C20.8161 11.7733 20.8181 11.9518 20.8181 12.1316C20.8181 12.3032 20.814 12.4777 20.8058 12.6552C20.7978 12.8324 20.7688 13.0353 20.7187 13.2637L22.6229 14.6967C22.9597 14.9656 23.1772 15.3069 23.2753 15.7205C23.3732 16.1344 23.3112 16.5268 23.0893 16.8975L21.6585 19.3534C21.4368 19.7243 21.1235 19.9802 20.7187 20.1211C20.3138 20.2619 19.913 20.2449 19.5161 20.0699L17.3542 19.1396C17.0416 19.3891 16.7226 19.6097 16.3971 19.8015C16.0716 19.9935 15.738 20.1502 15.3964 20.2717L15.0878 22.6474C15.0198 23.0653 14.8291 23.4171 14.5156 23.7027C14.2024 23.9886 13.8304 24.1316 13.3996 24.1316H10.6011ZM10.7372 22.2369H13.2199L13.674 18.8532C14.3187 18.6847 14.9077 18.4455 15.4412 18.1354C15.9749 17.8251 16.4895 17.4262 16.9851 16.9389L20.1234 18.2579L21.3673 16.1105L18.6272 14.0459C18.7325 13.7187 18.804 13.398 18.8419 13.0837C18.88 12.7696 18.8991 12.4522 18.8991 12.1316C18.8991 11.8027 18.88 11.4854 18.8419 11.1795C18.804 10.8734 18.7325 10.5608 18.6272 10.2416L21.3913 8.15264L20.1477 6.00528L16.9728 7.34359C16.55 6.8918 16.0436 6.49265 15.4535 6.14612C14.8632 5.79959 14.266 5.55422 13.662 5.41001L13.2635 2.02633H10.7568L10.3387 5.39801C9.69425 5.55022 9.0992 5.78338 8.55351 6.09749C8.00762 6.4118 7.48688 6.81664 6.9913 7.31201L3.85298 6.00528L2.60941 8.15264L5.3372 10.1857C5.23193 10.4855 5.15825 10.7973 5.11614 11.1211C5.07404 11.4449 5.05298 11.7857 5.05298 12.1436C5.05298 12.4724 5.07404 12.7947 5.11614 13.1105C5.15825 13.4263 5.22793 13.7381 5.32519 14.0459L2.60941 16.1105L3.85298 18.2579L6.9793 16.9316C7.45867 17.4238 7.9712 17.8271 8.51688 18.1414C9.06277 18.4555 9.66604 18.6967 10.3267 18.8652L10.7372 22.2369ZM12.0149 15.9211C13.0658 15.9211 13.9601 15.5522 14.6978 14.8145C15.4355 14.0769 15.8044 13.1825 15.8044 12.1316C15.8044 11.0806 15.4355 10.1863 14.6978 9.44864C13.9601 8.71096 13.0658 8.34212 12.0149 8.34212C10.9509 8.34212 10.0533 8.71096 9.32214 9.44864C8.59098 10.1863 8.22541 11.0806 8.22541 12.1316C8.22541 13.1825 8.59098 14.0769 9.32214 14.8145C10.0533 15.5522 10.9509 15.9211 12.0149 15.9211Z" fill="white"/>
</g>
<defs>
<clipPath id="clip0_126_32">
<rect width="24" height="24" fill="white" transform="translate(0 0.131592)"/>
</clipPath>
</defs>
</svg>
