<svg width="24" height="24" viewBox="0 0 24 24" fill="none" xmlns="http://www.w3.org/2000/svg">
<path d="M14.8754 12.0052L5.72533 2.85571C5.41458 2.54459 5.25546 2.15353 5.24798 1.68254C5.24086 1.21192 5.39998 0.813752 5.72533 0.488026C6.05106 0.162676 6.44567 0 6.90917 0C7.37268 0 7.76729 0.162676 8.09302 0.488026L18.1888 10.5838C18.3988 10.7942 18.5471 11.0161 18.6336 11.2493C18.7201 11.4826 18.7633 11.7345 18.7633 12.0052C18.7633 12.2759 18.7201 12.5279 18.6336 12.7611C18.5471 12.9944 18.3988 13.2162 18.1888 13.4266L8.09302 23.5224C7.78189 23.8332 7.39083 23.9923 6.91984 23.9998C6.44923 24.0069 6.05106 23.8478 5.72533 23.5224C5.39998 23.1967 5.2373 22.8021 5.2373 22.3386C5.2373 21.8751 5.39998 21.4805 5.72533 21.1547L14.8754 12.0052Z" fill="white"/>
</svg>
