<svg width="24" height="25" viewBox="0 0 24 25" fill="none" xmlns="http://www.w3.org/2000/svg">
<path d="M0 20.5V16.5C0 15.9333 0.213636 15.4583 0.640909 15.075C1.06818 14.6917 1.58182 14.5 2.18182 14.5H5.75455C6.11818 14.5 6.46364 14.5833 6.79091 14.75C7.11818 14.9167 7.38182 15.1417 7.58182 15.425C8.10909 16.075 8.75909 16.5833 9.53182 16.95C10.3045 17.3167 11.1273 17.5 12 17.5C12.8909 17.5 13.7227 17.3167 14.4955 16.95C15.2682 16.5833 15.9091 16.075 16.4182 15.425C16.6545 15.1417 16.9318 14.9167 17.25 14.75C17.5682 14.5833 17.9 14.5 18.2455 14.5H21.8182C22.4364 14.5 22.9545 14.6917 23.3727 15.075C23.7909 15.4583 24 15.9333 24 16.5V20.5H16.3636V18.225C15.7273 18.6417 15.0409 18.9583 14.3045 19.175C13.5682 19.3917 12.8 19.5 12 19.5C11.2182 19.5 10.4545 19.3875 9.70909 19.1625C8.96364 18.9375 8.27273 18.6167 7.63636 18.2V20.5H0ZM12 16.5C11.3091 16.5 10.6545 16.3542 10.0364 16.0625C9.41818 15.7708 8.9 15.3667 8.48182 14.85C8.17273 14.4333 7.78636 14.1042 7.32273 13.8625C6.85909 13.6208 6.35455 13.5 5.80909 13.5C6.20909 12.8833 7.05455 12.3958 8.34545 12.0375C9.63636 11.6792 10.8545 11.5 12 11.5C13.1455 11.5 14.3636 11.6792 15.6545 12.0375C16.9455 12.3958 17.7909 12.8833 18.1909 13.5C17.6636 13.5 17.1636 13.6208 16.6909 13.8625C16.2182 14.1042 15.8273 14.4333 15.5182 14.85C15.1182 15.3833 14.6091 15.7917 13.9909 16.075C13.3727 16.3583 12.7091 16.5 12 16.5ZM3.27273 13.5C2.36364 13.5 1.59091 13.2083 0.954545 12.625C0.318182 12.0417 0 11.3333 0 10.5C0 9.65 0.318182 8.9375 0.954545 8.3625C1.59091 7.7875 2.36364 7.5 3.27273 7.5C4.2 7.5 4.97727 7.7875 5.60455 8.3625C6.23182 8.9375 6.54545 9.65 6.54545 10.5C6.54545 11.3333 6.23182 12.0417 5.60455 12.625C4.97727 13.2083 4.2 13.5 3.27273 13.5ZM20.7273 13.5C19.8182 13.5 19.0455 13.2083 18.4091 12.625C17.7727 12.0417 17.4545 11.3333 17.4545 10.5C17.4545 9.65 17.7727 8.9375 18.4091 8.3625C19.0455 7.7875 19.8182 7.5 20.7273 7.5C21.6545 7.5 22.4318 7.7875 23.0591 8.3625C23.6864 8.9375 24 9.65 24 10.5C24 11.3333 23.6864 12.0417 23.0591 12.625C22.4318 13.2083 21.6545 13.5 20.7273 13.5ZM12 10.5C11.0909 10.5 10.3182 10.2083 9.68182 9.625C9.04545 9.04167 8.72727 8.33333 8.72727 7.5C8.72727 6.65 9.04545 5.9375 9.68182 5.3625C10.3182 4.7875 11.0909 4.5 12 4.5C12.9273 4.5 13.7045 4.7875 14.3318 5.3625C14.9591 5.9375 15.2727 6.65 15.2727 7.5C15.2727 8.33333 14.9591 9.04167 14.3318 9.625C13.7045 10.2083 12.9273 10.5 12 10.5Z" fill="white"/>
</svg>
