<svg width="24" height="24" viewBox="0 0 24 24" fill="none" xmlns="http://www.w3.org/2000/svg">
<path d="M4.8002 24V13.02C3.7202 12.74 2.8502 12.17 2.1902 11.31C1.5302 10.45 1.2002 9.48 1.2002 8.4V0H3.6002V7.2H4.8002V0H7.2002V7.2H8.4002V0H10.8002V8.4C10.8002 9.48 10.4702 10.45 9.8102 11.31C9.1502 12.17 8.2802 12.74 7.2002 13.02V24H4.8002ZM16.8002 24V12.57C15.7202 12.21 14.8502 11.455 14.1902 10.305C13.5302 9.155 13.2002 7.85 13.2002 6.39C13.2002 4.61 13.6702 3.1 14.6102 1.86C15.5502 0.62 16.6802 0 18.0002 0C19.3202 0 20.4502 0.625 21.3902 1.875C22.3302 3.125 22.8002 4.64 22.8002 6.42C22.8002 7.88 22.4702 9.18 21.8102 10.32C21.1502 11.46 20.2802 12.21 19.2002 12.57V24H16.8002Z" fill="white"/>
</svg>
