<svg width="24" height="25" viewBox="0 0 24 25" fill="none" xmlns="http://www.w3.org/2000/svg">
<path d="M2.23256 21.1803C1.6186 21.1803 1.09302 20.9617 0.655814 20.5245C0.218605 20.0873 0 19.5617 0 18.9477V5.55238C0 4.93843 0.218605 4.41285 0.655814 3.97564C1.09302 3.53843 1.6186 3.31982 2.23256 3.31982H8.93023L11.1628 5.55238H20.093C20.707 5.55238 21.2326 5.77099 21.6698 6.2082C22.107 6.64541 22.3256 7.17099 22.3256 7.78494H10.2419L8.0093 5.55238H2.23256V18.9477L4.91163 10.0175H24L21.1256 19.5896C20.9767 20.0733 20.7023 20.4594 20.3023 20.7477C19.9023 21.0361 19.4605 21.1803 18.9767 21.1803H2.23256ZM4.57674 18.9477H18.9767L20.986 12.2501H6.58605L4.57674 18.9477Z" fill="white"/>
</svg>
