<svg width="24" height="25" viewBox="0 0 24 25" fill="none" xmlns="http://www.w3.org/2000/svg">
<path d="M13.6286 10.8L8.77143 5.94283L10.4 4.34283L13.6286 7.5714L20.1143 1.11426L21.7143 2.71426L13.6286 10.8ZM6.85714 19.3143L14.8 21.4857L21.6 19.3714C21.5048 19.2 21.3667 19.0524 21.1857 18.9285C21.0048 18.8047 20.8 18.7428 20.5714 18.7428H14.8C14.2857 18.7428 13.8762 18.7238 13.5714 18.6857C13.2667 18.6476 12.9524 18.5714 12.6286 18.4571L9.97143 17.5714L10.6 15.3428L12.9143 16.1143C13.2381 16.2095 13.619 16.2857 14.0571 16.3428C14.4952 16.4 15.1429 16.4381 16 16.4571C16 16.2476 15.9381 16.0476 15.8143 15.8571C15.6905 15.6666 15.5429 15.5428 15.3714 15.4857L8.68571 13.0285H6.85714V19.3143ZM0 23.3143V10.7428H8.68571C8.81905 10.7428 8.95238 10.7571 9.08571 10.7857C9.21905 10.8143 9.34286 10.8476 9.45714 10.8857L16.1714 13.3714C16.8 13.6 17.3095 14 17.7 14.5714C18.0905 15.1428 18.2857 15.7714 18.2857 16.4571H20.5714C21.5238 16.4571 22.3333 16.7714 23 17.4C23.6667 18.0285 24 18.8571 24 19.8857V21.0285L14.8571 23.8857L6.85714 21.6571V23.3143H0ZM2.28571 21.0285H4.57143V13.0285H2.28571V21.0285Z" fill="white"/>
</svg>
