<svg width="24" height="25" viewBox="0 0 24 25" fill="none" xmlns="http://www.w3.org/2000/svg">
<g clip-path="url(#clip0_277_82)">
<path d="M17.1429 13.3571L12.4 8.7285C11.8095 8.15707 11.3095 7.52374 10.9 6.8285C10.4905 6.13326 10.2857 5.37612 10.2857 4.55707C10.2857 3.50945 10.6524 2.61898 11.3857 1.88564C12.119 1.15231 13.0095 0.785645 14.0571 0.785645C14.6667 0.785645 15.2381 0.914216 15.7714 1.17136C16.3048 1.4285 16.7619 1.77612 17.1429 2.21422C17.5238 1.77612 17.981 1.4285 18.5143 1.17136C19.0476 0.914216 19.619 0.785645 20.2286 0.785645C21.2762 0.785645 22.1667 1.15231 22.9 1.88564C23.6333 2.61898 24 3.50945 24 4.55707C24 5.37612 23.8 6.13326 23.4 6.8285C23 7.52374 22.5048 8.15707 21.9143 8.7285L17.1429 13.3571ZM17.1429 10.1571L20.2571 7.09993C20.619 6.73803 20.9524 6.35231 21.2571 5.94279C21.5619 5.53326 21.7143 5.07136 21.7143 4.55707C21.7143 4.13803 21.5714 3.78564 21.2857 3.49993C21 3.21422 20.6476 3.07136 20.2286 3.07136C19.9619 3.07136 19.7095 3.12374 19.4714 3.2285C19.2333 3.33326 19.0286 3.49041 18.8571 3.69993L17.1429 5.75707L15.4286 3.69993C15.2571 3.49041 15.0524 3.33326 14.8143 3.2285C14.5762 3.12374 14.3238 3.07136 14.0571 3.07136C13.6381 3.07136 13.2857 3.21422 13 3.49993C12.7143 3.78564 12.5714 4.13803 12.5714 4.55707C12.5714 5.07136 12.7238 5.53326 13.0286 5.94279C13.3333 6.35231 13.6667 6.73803 14.0286 7.09993L17.1429 10.1571ZM6.85714 19.6428L14.8 21.8142L21.6 19.6999C21.5048 19.5285 21.3667 19.3809 21.1857 19.2571C21.0048 19.1333 20.8 19.0714 20.5714 19.0714H14.8C14.2857 19.0714 13.8762 19.0523 13.5714 19.0142C13.2667 18.9761 12.9524 18.8999 12.6286 18.7856L9.97143 17.8999L10.6 15.6714L12.9143 16.4428C13.2381 16.538 13.619 16.6142 14.0571 16.6714C14.4952 16.7285 15.1429 16.7666 16 16.7856C16 16.5761 15.9381 16.3761 15.8143 16.1856C15.6905 15.9952 15.5429 15.8714 15.3714 15.8142L8.68571 13.3571H6.85714V19.6428ZM0 23.6428V11.0714H8.68571C8.81905 11.0714 8.95238 11.0856 9.08571 11.1142C9.21905 11.1428 9.34286 11.1761 9.45714 11.2142L16.1714 13.6999C16.8 13.9285 17.3095 14.3285 17.7 14.8999C18.0905 15.4714 18.2857 16.0999 18.2857 16.7856H20.5714C21.5238 16.7856 22.3333 17.0999 23 17.7285C23.6667 18.3571 24 19.1856 24 20.2142V21.3571L14.8571 24.2142L6.85714 21.9856V23.6428H0ZM2.28571 21.3571H4.57143V13.3571H2.28571V21.3571Z" fill="white"/>
</g>
<defs>
<clipPath id="clip0_277_82">
<rect width="24" height="24" fill="white" transform="translate(0 0.5)"/>
</clipPath>
</defs>
</svg>
