<svg width="24" height="25" viewBox="0 0 24 25" fill="none" xmlns="http://www.w3.org/2000/svg">
<g clip-path="url(#clip0_277_151)">
<path d="M12 15.5227C12.9091 15.5227 13.6818 15.2045 14.3182 14.5682C14.9545 13.9318 15.2727 13.1591 15.2727 12.25C15.2727 11.3409 14.9545 10.5682 14.3182 9.93182C13.6818 9.29545 12.9091 8.97727 12 8.97727C11.0909 8.97727 10.3182 9.29545 9.68182 9.93182C9.04545 10.5682 8.72727 11.3409 8.72727 12.25C8.72727 13.1591 9.04545 13.9318 9.68182 14.5682C10.3182 15.2045 11.0909 15.5227 12 15.5227ZM12 17.7045C10.4909 17.7045 9.20455 17.1727 8.14091 16.1091C7.07727 15.0455 6.54545 13.7591 6.54545 12.25C6.54545 10.7409 7.07727 9.45455 8.14091 8.39091C9.20455 7.32727 10.4909 6.79545 12 6.79545C13.5091 6.79545 14.7955 7.32727 15.8591 8.39091C16.9227 9.45455 17.4545 10.7409 17.4545 12.25C17.4545 13.7591 16.9227 15.0455 15.8591 16.1091C14.7955 17.1727 13.5091 17.7045 12 17.7045ZM4.36364 13.3409H0V11.1591H4.36364V13.3409ZM24 13.3409H19.6364V11.1591H24V13.3409ZM10.9091 4.61364V0.25H13.0909V4.61364H10.9091ZM10.9091 24.25V19.8864H13.0909V24.25H10.9091ZM5.89091 7.61364L3.13636 4.96818L4.69091 3.35909L7.30909 6.08636L5.89091 7.61364ZM19.3091 21.1409L16.6636 18.3864L18.1091 16.8864L20.8636 19.5318L19.3091 21.1409ZM16.6364 6.14091L19.2818 3.38636L20.8909 4.94091L18.1636 7.55909L16.6364 6.14091ZM3.10909 19.5591L5.86364 16.9136L7.36364 18.3591L4.71818 21.1136L3.10909 19.5591Z" fill="white"/>
</g>
<defs>
<clipPath id="clip0_277_151">
<rect width="24" height="24" fill="white" transform="translate(0 0.25)"/>
</clipPath>
</defs>
</svg>
