<svg width="24" height="25" viewBox="0 0 24 25" fill="none" xmlns="http://www.w3.org/2000/svg">
<g clip-path="url(#clip0_277_64)">
<path d="M4.71 23.5666C4.25 23.5666 3.805 23.4066 3.375 23.0866C2.945 22.7666 2.66 22.3766 2.52 21.9166C2.02 20.2366 1.61 18.7816 1.29 17.5516C0.97 16.3216 0.715 15.2416 0.525 14.3116C0.335 13.3816 0.2 12.5566 0.12 11.8366C0.04 11.1166 0 10.4266 0 9.7666C0 7.9266 0.64 6.3666 1.92 5.0866C3.2 3.8066 4.76 3.1666 6.6 3.1666H12.6C13.14 2.4466 13.825 1.8666 14.655 1.4266C15.485 0.986602 16.4 0.766602 17.4 0.766602C17.9 0.766602 18.325 0.941602 18.675 1.2916C19.025 1.6416 19.2 2.0666 19.2 2.5666C19.2 2.6866 19.185 2.8066 19.155 2.9266C19.125 3.0466 19.09 3.1566 19.05 3.2566C18.97 3.4766 18.895 3.6966 18.825 3.9166C18.755 4.1366 18.7 4.3766 18.66 4.6366L21.39 7.3666H22.8C23.14 7.3666 23.425 7.4816 23.655 7.7116C23.885 7.9416 24 8.2266 24 8.5666V14.8666C24 15.1266 23.925 15.3566 23.775 15.5566C23.625 15.7566 23.42 15.9066 23.16 16.0066L20.61 16.8466L19.11 21.8566C18.95 22.3766 18.66 22.7916 18.24 23.1016C17.82 23.4116 17.34 23.5666 16.8 23.5666H14.4C13.74 23.5666 13.175 23.3316 12.705 22.8616C12.235 22.3916 12 21.8266 12 21.1666H9.6C9.6 21.8266 9.365 22.3916 8.895 22.8616C8.425 23.3316 7.86 23.5666 7.2 23.5666H4.71ZM4.8 21.1666H7.2V18.7666H14.4V21.1666H16.8L18.66 14.9866L21.6 13.9966V9.7666H20.4L16.2 5.5666C16.2 5.1666 16.225 4.7766 16.275 4.3966C16.325 4.0166 16.4 3.6466 16.5 3.2866C15.92 3.4466 15.41 3.7216 14.97 4.1116C14.53 4.5016 14.21 4.9866 14.01 5.5666H6.6C5.44 5.5666 4.45 5.9766 3.63 6.7966C2.81 7.6166 2.4 8.6066 2.4 9.7666C2.4 10.5866 2.61 11.9916 3.03 13.9816C3.45 15.9716 4.04 18.3666 4.8 21.1666ZM16.8 11.5666C17.14 11.5666 17.425 11.4516 17.655 11.2216C17.885 10.9916 18 10.7066 18 10.3666C18 10.0266 17.885 9.7416 17.655 9.5116C17.425 9.2816 17.14 9.1666 16.8 9.1666C16.46 9.1666 16.175 9.2816 15.945 9.5116C15.715 9.7416 15.6 10.0266 15.6 10.3666C15.6 10.7066 15.715 10.9916 15.945 11.2216C16.175 11.4516 16.46 11.5666 16.8 11.5666ZM12 9.1666C12.34 9.1666 12.625 9.0516 12.855 8.8216C13.085 8.5916 13.2 8.3066 13.2 7.9666C13.2 7.6266 13.085 7.3416 12.855 7.1116C12.625 6.8816 12.34 6.7666 12 6.7666H8.4C8.06 6.7666 7.775 6.8816 7.545 7.1116C7.315 7.3416 7.2 7.6266 7.2 7.9666C7.2 8.3066 7.315 8.5916 7.545 8.8216C7.775 9.0516 8.06 9.1666 8.4 9.1666H12Z" fill="white"/>
</g>
<defs>
<clipPath id="clip0_277_64">
<rect width="24" height="24" fill="white" transform="translate(0 0.166504)"/>
</clipPath>
</defs>
</svg>
