<svg width="24" height="25" viewBox="0 0 24 25" fill="none" xmlns="http://www.w3.org/2000/svg">
<g clip-path="url(#clip0_277_38)">
<path d="M4.36355 19.2955C3.45446 19.2955 2.68173 18.9773 2.04537 18.3409C1.409 17.7045 1.09082 16.9318 1.09082 16.0227C1.09082 15.1136 1.409 14.3409 2.04537 13.7045C2.68173 13.0682 3.45446 12.75 4.36355 12.75C5.07264 12.75 5.70446 12.9545 6.259 13.3636C6.81355 13.7727 7.19991 14.2955 7.41809 14.9318H13.1999C13.3999 13.6955 13.9135 12.6136 14.7408 11.6864C15.5681 10.7591 16.5817 10.1136 17.7817 9.75L16.2545 2.93182H11.9999V0.75H16.2545C16.7454 0.75 17.1954 0.909091 17.6045 1.22727C18.0135 1.54545 18.2726 1.95 18.3817 2.44091L20.4545 11.6591H19.6363C18.4363 11.6591 17.409 12.0864 16.5545 12.9409C15.6999 13.7955 15.2726 14.8227 15.2726 16.0227V17.1136H7.41809C7.19991 17.75 6.81355 18.2727 6.259 18.6818C5.70446 19.0909 5.07264 19.2955 4.36355 19.2955ZM4.36355 17.1136C4.67264 17.1136 4.93173 17.0091 5.14082 16.8C5.34991 16.5909 5.45446 16.3318 5.45446 16.0227C5.45446 15.7136 5.34991 15.4545 5.14082 15.2455C4.93173 15.0364 4.67264 14.9318 4.36355 14.9318C4.05446 14.9318 3.79537 15.0364 3.58627 15.2455C3.37718 15.4545 3.27264 15.7136 3.27264 16.0227C3.27264 16.3318 3.37718 16.5909 3.58627 16.8C3.79537 17.0091 4.05446 17.1136 4.36355 17.1136ZM19.6363 19.2955C18.7272 19.2955 17.9545 18.9773 17.3181 18.3409C16.6817 17.7045 16.3635 16.9318 16.3635 16.0227C16.3635 15.1136 16.6817 14.3409 17.3181 13.7045C17.9545 13.0682 18.7272 12.75 19.6363 12.75C20.5454 12.75 21.3181 13.0682 21.9545 13.7045C22.5908 14.3409 22.909 15.1136 22.909 16.0227C22.909 16.9318 22.5908 17.7045 21.9545 18.3409C21.3181 18.9773 20.5454 19.2955 19.6363 19.2955ZM19.6363 17.1136C19.9454 17.1136 20.2045 17.0091 20.4135 16.8C20.6226 16.5909 20.7272 16.3318 20.7272 16.0227C20.7272 15.7136 20.6226 15.4545 20.4135 15.2455C20.2045 15.0364 19.9454 14.9318 19.6363 14.9318C19.3272 14.9318 19.0681 15.0364 18.859 15.2455C18.6499 15.4545 18.5454 15.7136 18.5454 16.0227C18.5454 16.3318 18.6499 16.5909 18.859 16.8C19.0681 17.0091 19.3272 17.1136 19.6363 17.1136ZM13.0908 24.75L6.54537 21.4773H10.909V19.2955L17.4545 22.5682H13.0908V24.75Z" fill="white"/>
</g>
<defs>
<clipPath id="clip0_277_38">
<rect width="24" height="24" fill="white" transform="translate(0 0.75)"/>
</clipPath>
</defs>
</svg>
