<svg width="24" height="25" viewBox="0 0 24 25" fill="none" xmlns="http://www.w3.org/2000/svg">
<g clip-path="url(#clip0_277_175)">
<path d="M8.34668 24.667C6.12446 24.667 4.23557 23.8803 2.68001 22.307C1.12446 20.7337 0.34668 18.8359 0.34668 16.6137C0.34668 14.3914 1.11557 12.5114 2.65335 10.9737C4.19112 9.43588 6.07112 8.66699 8.29335 8.66699H8.64001L9.36001 7.41366C9.57335 7.02255 9.89335 6.76921 10.32 6.65366C10.7467 6.5381 11.1556 6.59588 11.5467 6.82699L12.3467 7.28033L12.48 7.06699C12.8889 6.30255 13.5289 5.80477 14.4 5.57366C15.2711 5.34255 16.0889 5.44921 16.8533 5.89366L17.7867 6.42699L16.72 8.26699L15.7867 7.73366C15.5378 7.59144 15.2667 7.56033 14.9733 7.64033C14.68 7.72033 14.4622 7.88477 14.32 8.13366L14.1867 8.34699L15.2533 8.96033C15.6267 9.17366 15.8711 9.49366 15.9867 9.92033C16.1022 10.347 16.0533 10.747 15.84 11.1203L15.12 12.4003C15.5289 13.0403 15.8356 13.7203 16.04 14.4403C16.2445 15.1603 16.3467 15.9025 16.3467 16.667C16.3467 18.8892 15.5689 20.7781 14.0133 22.3337C12.4578 23.8892 10.5689 24.667 8.34668 24.667ZM8.34668 22.5337C9.96446 22.5337 11.3467 21.9603 12.4933 20.8137C13.64 19.667 14.2133 18.2848 14.2133 16.667C14.2133 16.1159 14.1378 15.5737 13.9867 15.0403C13.8356 14.507 13.6089 14.0003 13.3067 13.5203L12.6133 12.427L13.7333 10.507L10.96 8.90699L9.84001 10.827H8.66668C6.99557 10.827 5.54224 11.3603 4.30668 12.427C3.07112 13.4937 2.45335 14.8892 2.45335 16.6137C2.45335 18.2492 3.02668 19.6448 4.17335 20.8003C5.32001 21.9559 6.71112 22.5337 8.34668 22.5337ZM20.4533 9.73366V7.60033H23.6533V9.73366H20.4533ZM14.5867 3.86699V0.666992H16.72V3.86699H14.5867ZM19.7867 6.02699L18.2933 4.53366L20.56 2.26699L22.0533 3.76033L19.7867 6.02699Z" fill="white"/>
</g>
<defs>
<clipPath id="clip0_277_175">
<rect width="24" height="24" fill="white" transform="translate(0 0.666992)"/>
</clipPath>
</defs>
</svg>
