<svg width="24" height="25" viewBox="0 0 24 25" fill="none" xmlns="http://www.w3.org/2000/svg">
<g clip-path="url(#clip0_277_149)">
<path d="M12.0004 24.25C9.22039 23.55 6.92539 21.955 5.11539 19.465C3.30539 16.975 2.40039 14.21 2.40039 11.17V3.85L12.0004 0.25L21.6004 3.85V11.17C21.6004 14.21 20.6954 16.975 18.8854 19.465C17.0754 21.955 14.7804 23.55 12.0004 24.25ZM12.0004 21.73C14.0804 21.07 15.8004 19.75 17.1604 17.77C18.5204 15.79 19.2004 13.59 19.2004 11.17V5.5L12.0004 2.8L4.80039 5.5V11.17C4.80039 13.59 5.48039 15.79 6.84039 17.77C8.20039 19.75 9.92039 21.07 12.0004 21.73Z" fill="white"/>
</g>
<defs>
<clipPath id="clip0_277_149">
<rect width="24" height="24" fill="white" transform="translate(0 0.25)"/>
</clipPath>
</defs>
</svg>
