<svg width="24" height="25" viewBox="0 0 24 25" fill="none" xmlns="http://www.w3.org/2000/svg">
<path d="M0 21.2275V18.1729C0 17.5548 0.159091 16.9866 0.477273 16.4684C0.795455 15.9502 1.21818 15.5548 1.74545 15.282C2.87273 14.7184 4.01818 14.2957 5.18182 14.0139C6.34545 13.732 7.52727 13.5911 8.72727 13.5911C9.92727 13.5911 11.1091 13.732 12.2727 14.0139C13.4364 14.2957 14.5818 14.7184 15.7091 15.282C16.2364 15.5548 16.6591 15.9502 16.9773 16.4684C17.2955 16.9866 17.4545 17.5548 17.4545 18.1729V21.2275H0ZM19.6364 21.2275V17.9548C19.6364 17.1548 19.4136 16.3866 18.9682 15.6502C18.5227 14.9139 17.8909 14.282 17.0727 13.7548C18 13.8639 18.8727 14.0502 19.6909 14.3139C20.5091 14.5775 21.2727 14.9002 21.9818 15.282C22.6364 15.6457 23.1364 16.0502 23.4818 16.4957C23.8273 16.9411 24 17.4275 24 17.9548V21.2275H19.6364ZM8.72727 12.5002C7.52727 12.5002 6.5 12.0729 5.64545 11.2184C4.79091 10.3639 4.36364 9.33659 4.36364 8.13659C4.36364 6.93659 4.79091 5.90931 5.64545 5.05477C6.5 4.20022 7.52727 3.77295 8.72727 3.77295C9.92727 3.77295 10.9545 4.20022 11.8091 5.05477C12.6636 5.90931 13.0909 6.93659 13.0909 8.13659C13.0909 9.33659 12.6636 10.3639 11.8091 11.2184C10.9545 12.0729 9.92727 12.5002 8.72727 12.5002ZM19.6364 8.13659C19.6364 9.33659 19.2091 10.3639 18.3545 11.2184C17.5 12.0729 16.4727 12.5002 15.2727 12.5002C15.0727 12.5002 14.8182 12.4775 14.5091 12.432C14.2 12.3866 13.9455 12.3366 13.7455 12.282C14.2364 11.7002 14.6136 11.0548 14.8773 10.3457C15.1409 9.63659 15.2727 8.90022 15.2727 8.13659C15.2727 7.37295 15.1409 6.63659 14.8773 5.92749C14.6136 5.2184 14.2364 4.57295 13.7455 3.99113C14 3.90022 14.2545 3.84113 14.5091 3.81386C14.7636 3.78659 15.0182 3.77295 15.2727 3.77295C16.4727 3.77295 17.5 4.20022 18.3545 5.05477C19.2091 5.90931 19.6364 6.93659 19.6364 8.13659ZM2.18182 19.0457H15.2727V18.1729C15.2727 17.9729 15.2227 17.7911 15.1227 17.6275C15.0227 17.4639 14.8909 17.3366 14.7273 17.2457C13.7455 16.7548 12.7545 16.3866 11.7545 16.1411C10.7545 15.8957 9.74545 15.7729 8.72727 15.7729C7.70909 15.7729 6.7 15.8957 5.7 16.1411C4.7 16.3866 3.70909 16.7548 2.72727 17.2457C2.56364 17.3366 2.43182 17.4639 2.33182 17.6275C2.23182 17.7911 2.18182 17.9729 2.18182 18.1729V19.0457ZM8.72727 10.3184C9.32727 10.3184 9.84091 10.1048 10.2682 9.67749C10.6955 9.25022 10.9091 8.73659 10.9091 8.13659C10.9091 7.53659 10.6955 7.02295 10.2682 6.59568C9.84091 6.1684 9.32727 5.95477 8.72727 5.95477C8.12727 5.95477 7.61364 6.1684 7.18636 6.59568C6.75909 7.02295 6.54545 7.53659 6.54545 8.13659C6.54545 8.73659 6.75909 9.25022 7.18636 9.67749C7.61364 10.1048 8.12727 10.3184 8.72727 10.3184Z" fill="white"/>
</svg>
