<svg width="24" height="25" viewBox="0 0 24 25" fill="none" xmlns="http://www.w3.org/2000/svg">
<g clip-path="url(#clip0_277_94)">
<path d="M12 12.5C10.35 12.5 8.9375 11.9125 7.7625 10.7375C6.5875 9.5625 6 8.15 6 6.5C6 4.85 6.5875 3.4375 7.7625 2.2625C8.9375 1.0875 10.35 0.5 12 0.5C13.65 0.5 15.0625 1.0875 16.2375 2.2625C17.4125 3.4375 18 4.85 18 6.5C18 8.15 17.4125 9.5625 16.2375 10.7375C15.0625 11.9125 13.65 12.5 12 12.5ZM0 24.5V20.3C0 19.45 0.21875 18.6688 0.65625 17.9563C1.09375 17.2438 1.675 16.7 2.4 16.325C3.95 15.55 5.525 14.9688 7.125 14.5813C8.725 14.1938 10.35 14 12 14C13.65 14 15.275 14.1938 16.875 14.5813C18.475 14.9688 20.05 15.55 21.6 16.325C22.325 16.7 22.9063 17.2438 23.3438 17.9563C23.7813 18.6688 24 19.45 24 20.3V24.5H0ZM3 21.5H21V20.3C21 20.025 20.9313 19.775 20.7938 19.55C20.6563 19.325 20.475 19.15 20.25 19.025C18.9 18.35 17.5375 17.8438 16.1625 17.5063C14.7875 17.1688 13.4 17 12 17C10.6 17 9.2125 17.1688 7.8375 17.5063C6.4625 17.8438 5.1 18.35 3.75 19.025C3.525 19.15 3.34375 19.325 3.20625 19.55C3.06875 19.775 3 20.025 3 20.3V21.5ZM12 9.5C12.825 9.5 13.5313 9.20625 14.1188 8.61875C14.7063 8.03125 15 7.325 15 6.5C15 5.675 14.7063 4.96875 14.1188 4.38125C13.5313 3.79375 12.825 3.5 12 3.5C11.175 3.5 10.4688 3.79375 9.88125 4.38125C9.29375 4.96875 9 5.675 9 6.5C9 7.325 9.29375 8.03125 9.88125 8.61875C10.4688 9.20625 11.175 9.5 12 9.5Z" fill="white"/>
</g>
<defs>
<clipPath id="clip0_277_94">
<rect width="24" height="24" fill="white" transform="translate(0 0.5)"/>
</clipPath>
</defs>
</svg>
