<svg width="24" height="25" viewBox="0 0 24 25" fill="none" xmlns="http://www.w3.org/2000/svg">
<path d="M12 20.75C11.3 20.75 10.7083 20.5083 10.225 20.025C9.74167 19.5417 9.5 18.95 9.5 18.25C9.5 17.55 9.74167 16.9583 10.225 16.475C10.7083 15.9917 11.3 15.75 12 15.75C12.7 15.75 13.2917 15.9917 13.775 16.475C14.2583 16.9583 14.5 17.55 14.5 18.25C14.5 18.95 14.2583 19.5417 13.775 20.025C13.2917 20.5083 12.7 20.75 12 20.75ZM6.35 15.1L4.25 12.95C5.23333 11.9667 6.3875 11.1875 7.7125 10.6125C9.0375 10.0375 10.4667 9.75 12 9.75C13.5333 9.75 14.9625 10.0417 16.2875 10.625C17.6125 11.2083 18.7667 12 19.75 13L17.65 15.1C16.9167 14.3667 16.0667 13.7917 15.1 13.375C14.1333 12.9583 13.1 12.75 12 12.75C10.9 12.75 9.86667 12.9583 8.9 13.375C7.93333 13.7917 7.08333 14.3667 6.35 15.1ZM2.1 10.85L0 8.75C1.53333 7.18333 3.325 5.95833 5.375 5.075C7.425 4.19167 9.63333 3.75 12 3.75C14.3667 3.75 16.575 4.19167 18.625 5.075C20.675 5.95833 22.4667 7.18333 24 8.75L21.9 10.85C20.6167 9.56667 19.1292 8.5625 17.4375 7.8375C15.7458 7.1125 13.9333 6.75 12 6.75C10.0667 6.75 8.25417 7.1125 6.5625 7.8375C4.87083 8.5625 3.38333 9.56667 2.1 10.85Z" fill="white"/>
</svg>
