<svg width="24" height="24" viewBox="0 0 24 24" fill="none" xmlns="http://www.w3.org/2000/svg">
<path d="M20.8364 15.447C21.1455 15.6106 21.4182 15.5743 21.6545 15.3379C21.8909 15.1016 21.9273 14.8288 21.7636 14.5197L20.1818 11.5743L19.0364 14.5197L20.8364 15.447ZM15.3818 14.4106H16.6909L19.3091 7.91974C19.3636 7.77428 19.35 7.65155 19.2682 7.55155C19.1864 7.45155 19.0909 7.37428 18.9818 7.31974L16.8 6.44701C16.6364 6.39246 16.4773 6.41064 16.3227 6.50155C16.1682 6.59246 16.0727 6.71974 16.0364 6.88337L15.3818 14.4106ZM7.30909 14.4106H8.61818L7.96364 6.88337C7.92727 6.68337 7.83182 6.54701 7.67727 6.47428C7.52273 6.40155 7.36364 6.39246 7.2 6.44701L5.01818 7.31974C4.87273 7.37428 4.76818 7.45155 4.70455 7.55155C4.64091 7.65155 4.63636 7.77428 4.69091 7.91974L7.30909 14.4106ZM3.16364 15.447L4.96364 14.5197L3.81818 11.5743L2.23636 14.5197C2.07273 14.8288 2.10909 15.1016 2.34545 15.3379C2.58182 15.5743 2.85455 15.6106 3.16364 15.447ZM10.8 14.4106H13.2L14.0182 5.19246C14.0545 5.02883 14.0136 4.88792 13.8955 4.76974C13.7773 4.65155 13.6364 4.59246 13.4727 4.59246H10.5273C10.3818 4.59246 10.25 4.65155 10.1318 4.76974C10.0136 4.88792 9.96364 5.02883 9.98182 5.19246L10.8 14.4106ZM2.67273 17.6834C1.90909 17.6834 1.27273 17.397 0.763636 16.8243C0.254545 16.2516 0 15.5743 0 14.7925C0 14.5743 0.0318182 14.3606 0.0954545 14.1516C0.159091 13.9425 0.236364 13.7379 0.327273 13.5379L2.72727 8.9561C2.47273 8.22883 2.48182 7.51064 2.75455 6.80155C3.02727 6.09246 3.50909 5.59246 4.2 5.30155L6.38182 4.42883C6.63636 4.33792 6.89091 4.27428 7.14545 4.23792C7.4 4.20155 7.65455 4.21064 7.90909 4.26519C8.16364 3.73792 8.51818 3.29701 8.97273 2.94246C9.42727 2.58792 9.94545 2.41064 10.5273 2.41064H13.4727C14.0545 2.41064 14.5727 2.58792 15.0273 2.94246C15.4818 3.29701 15.8364 3.73792 16.0909 4.26519C16.3455 4.22883 16.6 4.22428 16.8545 4.25155C17.1091 4.27883 17.3636 4.33792 17.6182 4.42883L19.8 5.30155C20.5273 5.59246 21.0364 6.09246 21.3273 6.80155C21.6182 7.51064 21.6 8.21064 21.2727 8.90155L23.6727 13.4834C23.7818 13.6834 23.8636 13.8925 23.9182 14.1106C23.9727 14.3288 24 14.5561 24 14.7925C24 15.6106 23.7227 16.297 23.1682 16.8516C22.6136 17.4061 21.9273 17.6834 21.1091 17.6834C20.9091 17.6834 20.7091 17.6606 20.5091 17.6152C20.3091 17.5697 20.1091 17.5016 19.9091 17.4106L18.2182 16.5925H5.72727L4.2 17.4106C3.96364 17.5379 3.71364 17.6152 3.45 17.6425C3.18636 17.6697 2.92727 17.6834 2.67273 17.6834Z" fill="white"/>
</svg>
