<svg width="24" height="25" viewBox="0 0 24 25" fill="none" xmlns="http://www.w3.org/2000/svg">
<g clip-path="url(#clip0_216_50)">
<path d="M10.1333 18.0717L19.5333 8.67168L17.6667 6.80501L10.1333 14.3383L6.33333 10.5383L4.46667 12.405L10.1333 18.0717ZM2.66667 24.4717C1.93333 24.4717 1.30556 24.2106 0.783333 23.6883C0.261111 23.1661 0 22.5383 0 21.805V3.13835C0 2.40501 0.261111 1.77724 0.783333 1.25501C1.30556 0.732791 1.93333 0.47168 2.66667 0.47168H21.3333C22.0667 0.47168 22.6944 0.732791 23.2167 1.25501C23.7389 1.77724 24 2.40501 24 3.13835V21.805C24 22.5383 23.7389 23.1661 23.2167 23.6883C22.6944 24.2106 22.0667 24.4717 21.3333 24.4717H2.66667ZM2.66667 21.805H21.3333V3.13835H2.66667V21.805Z" fill="white"/>
</g>
<defs>
<clipPath id="clip0_216_50">
<rect width="24" height="24" fill="white" transform="translate(0 0.47168)"/>
</clipPath>
</defs>
</svg>
