<svg width="24" height="25" viewBox="0 0 24 25" fill="none" xmlns="http://www.w3.org/2000/svg">
<g clip-path="url(#clip0_277_128)">
<path d="M13.2146 19.267L17.4146 15.067C17.6346 14.847 17.8096 14.587 17.9396 14.287C18.0696 13.987 18.1346 13.667 18.1346 13.327C18.1346 12.647 17.8946 12.067 17.4146 11.587C16.9346 11.107 16.3546 10.867 15.6746 10.867C15.2946 10.867 14.9196 10.977 14.5496 11.197C14.1796 11.417 13.7346 11.787 13.2146 12.307C12.6146 11.747 12.1446 11.367 11.8046 11.167C11.4646 10.967 11.1146 10.867 10.7546 10.867C10.0746 10.867 9.49465 11.107 9.01465 11.587C8.53465 12.067 8.29465 12.647 8.29465 13.327C8.29465 13.667 8.35965 13.987 8.48965 14.287C8.61965 14.587 8.79465 14.847 9.01465 15.067L13.2146 19.267ZM23.2946 15.367L14.7146 23.947C14.4746 24.187 14.2046 24.367 13.9046 24.487C13.6046 24.607 13.3046 24.667 13.0046 24.667C12.7046 24.667 12.4046 24.607 12.1046 24.487C11.8046 24.367 11.5346 24.187 11.2946 23.947L0.704648 13.357C0.484648 13.137 0.314648 12.882 0.194648 12.592C0.0746484 12.302 0.0146484 11.997 0.0146484 11.677V3.06699C0.0146484 2.40699 0.249648 1.84199 0.719648 1.37199C1.18965 0.901992 1.75465 0.666992 2.41465 0.666992H11.0246C11.3446 0.666992 11.6546 0.731992 11.9546 0.861992C12.2546 0.991992 12.5146 1.16699 12.7346 1.38699L23.2946 11.977C23.5346 12.217 23.7096 12.487 23.8196 12.787C23.9296 13.087 23.9846 13.387 23.9846 13.687C23.9846 13.987 23.9296 14.282 23.8196 14.572C23.7096 14.862 23.5346 15.127 23.2946 15.367ZM13.0046 22.267L21.5846 13.687L10.9946 3.06699H2.41465V11.647L13.0046 22.267ZM5.41465 7.86699C5.91465 7.86699 6.33965 7.69199 6.68965 7.34199C7.03965 6.99199 7.21465 6.56699 7.21465 6.06699C7.21465 5.56699 7.03965 5.14199 6.68965 4.79199C6.33965 4.44199 5.91465 4.26699 5.41465 4.26699C4.91465 4.26699 4.48965 4.44199 4.13965 4.79199C3.78965 5.14199 3.61465 5.56699 3.61465 6.06699C3.61465 6.56699 3.78965 6.99199 4.13965 7.34199C4.48965 7.69199 4.91465 7.86699 5.41465 7.86699Z" fill="white"/>
</g>
<defs>
<clipPath id="clip0_277_128">
<rect width="24" height="24" fill="white" transform="translate(0 0.666992)"/>
</clipPath>
</defs>
</svg>
