<svg width="24" height="25" viewBox="0 0 24 25" fill="none" xmlns="http://www.w3.org/2000/svg">
<g clip-path="url(#clip0_216_53)">
<path d="M10.1333 17.9396L19.5333 8.5396L17.6667 6.67293L10.1333 14.2063L6.33333 10.4063L4.46667 12.2729L10.1333 17.9396ZM2.66667 24.3396C1.93333 24.3396 1.30556 24.0785 0.783333 23.5563C0.261111 23.034 0 22.4063 0 21.6729V3.00627C0 2.27293 0.261111 1.64516 0.783333 1.12293C1.30556 0.600711 1.93333 0.3396 2.66667 0.3396H21.3333C22.0667 0.3396 22.6944 0.600711 23.2167 1.12293C23.7389 1.64516 24 2.27293 24 3.00627V21.6729C24 22.4063 23.7389 23.034 23.2167 23.5563C22.6944 24.0785 22.0667 24.3396 21.3333 24.3396H2.66667Z" fill="white"/>
</g>
<defs>
<clipPath id="clip0_216_53">
<rect width="24" height="24" fill="white" transform="translate(0 0.3396)"/>
</clipPath>
</defs>
</svg>
