<svg width="24" height="25" viewBox="0 0 24 25" fill="none" xmlns="http://www.w3.org/2000/svg">
<g clip-path="url(#clip0_277_142)">
<path d="M16.2 11.467C16.7 11.467 17.125 11.292 17.475 10.942C17.825 10.592 18 10.167 18 9.66699C18 9.16699 17.825 8.74199 17.475 8.39199C17.125 8.04199 16.7 7.86699 16.2 7.86699C15.7 7.86699 15.275 8.04199 14.925 8.39199C14.575 8.74199 14.4 9.16699 14.4 9.66699C14.4 10.167 14.575 10.592 14.925 10.942C15.275 11.292 15.7 11.467 16.2 11.467ZM7.8 11.467C8.3 11.467 8.725 11.292 9.075 10.942C9.425 10.592 9.6 10.167 9.6 9.66699C9.6 9.16699 9.425 8.74199 9.075 8.39199C8.725 8.04199 8.3 7.86699 7.8 7.86699C7.3 7.86699 6.875 8.04199 6.525 8.39199C6.175 8.74199 6 9.16699 6 9.66699C6 10.167 6.175 10.592 6.525 10.942C6.875 11.292 7.3 11.467 7.8 11.467ZM12 19.267C13.36 19.267 14.595 18.882 15.705 18.112C16.815 17.342 17.62 16.327 18.12 15.067H16.14C15.7 15.807 15.115 16.392 14.385 16.822C13.655 17.252 12.86 17.467 12 17.467C11.14 17.467 10.345 17.252 9.615 16.822C8.885 16.392 8.3 15.807 7.86 15.067H5.88C6.38 16.327 7.185 17.342 8.295 18.112C9.405 18.882 10.64 19.267 12 19.267ZM12 24.667C10.34 24.667 8.78 24.352 7.32 23.722C5.86 23.092 4.59 22.237 3.51 21.157C2.43 20.077 1.575 18.807 0.945 17.347C0.315 15.887 0 14.327 0 12.667C0 11.007 0.315 9.44699 0.945 7.98699C1.575 6.52699 2.43 5.25699 3.51 4.17699C4.59 3.09699 5.86 2.24199 7.32 1.61199C8.78 0.981992 10.34 0.666992 12 0.666992C13.66 0.666992 15.22 0.981992 16.68 1.61199C18.14 2.24199 19.41 3.09699 20.49 4.17699C21.57 5.25699 22.425 6.52699 23.055 7.98699C23.685 9.44699 24 11.007 24 12.667C24 14.327 23.685 15.887 23.055 17.347C22.425 18.807 21.57 20.077 20.49 21.157C19.41 22.237 18.14 23.092 16.68 23.722C15.22 24.352 13.66 24.667 12 24.667ZM12 22.267C14.68 22.267 16.95 21.337 18.81 19.477C20.67 17.617 21.6 15.347 21.6 12.667C21.6 9.98699 20.67 7.71699 18.81 5.85699C16.95 3.99699 14.68 3.06699 12 3.06699C9.32 3.06699 7.05 3.99699 5.19 5.85699C3.33 7.71699 2.4 9.98699 2.4 12.667C2.4 15.347 3.33 17.617 5.19 19.477C7.05 21.337 9.32 22.267 12 22.267Z" fill="white"/>
</g>
<defs>
<clipPath id="clip0_277_142">
<rect width="24" height="24" fill="white" transform="translate(0 0.666992)"/>
</clipPath>
</defs>
</svg>
