<svg width="24" height="25" viewBox="0 0 24 25" fill="none" xmlns="http://www.w3.org/2000/svg">
<path d="M0 23.1668V19.4335C0 18.6779 0.194444 17.9835 0.583333 17.3502C0.972222 16.7168 1.48889 16.2335 2.13333 15.9002C3.51111 15.2113 4.91111 14.6946 6.33333 14.3502C7.75556 14.0057 9.2 13.8335 10.6667 13.8335H11.1333C10.8889 14.2335 10.7056 14.6613 10.5833 15.1168C10.4611 15.5724 10.4 16.0335 10.4 16.5002C9.2 16.5224 8.00556 16.6835 6.81667 16.9835C5.62778 17.2835 4.46667 17.7224 3.33333 18.3002C3.13333 18.4113 2.97222 18.5668 2.85 18.7668C2.72778 18.9668 2.66667 19.1891 2.66667 19.4335V20.5002H12.1L14.7667 23.1668H0ZM10.6667 12.5002C9.2 12.5002 7.94444 11.9779 6.9 10.9335C5.85556 9.88905 5.33333 8.6335 5.33333 7.16683C5.33333 5.70016 5.85556 4.44461 6.9 3.40016C7.94444 2.35572 9.2 1.8335 10.6667 1.8335C12.1333 1.8335 13.3889 2.35572 14.4333 3.40016C15.4778 4.44461 16 5.70016 16 7.16683C16 8.6335 15.4778 9.88905 14.4333 10.9335C13.3889 11.9779 12.1333 12.5002 10.6667 12.5002ZM10.6667 9.8335C11.4 9.8335 12.0278 9.57239 12.55 9.05016C13.0722 8.52794 13.3333 7.90016 13.3333 7.16683C13.3333 6.4335 13.0722 5.80572 12.55 5.2835C12.0278 4.76127 11.4 4.50016 10.6667 4.50016C9.93333 4.50016 9.30556 4.76127 8.78333 5.2835C8.26111 5.80572 8 6.4335 8 7.16683C8 7.90016 8.26111 8.52794 8.78333 9.05016C9.30556 9.57239 9.93333 9.8335 10.6667 9.8335ZM18.5333 23.1668L13.8667 18.5002C13.5778 18.2113 13.3722 17.9002 13.25 17.5668C13.1278 17.2335 13.0667 16.9002 13.0667 16.5668C13.0667 15.8557 13.3222 15.2224 13.8333 14.6668C14.3444 14.1113 15 13.8335 15.8 13.8335C16.4222 13.8335 16.9111 13.9779 17.2667 14.2668C17.6222 14.5557 18.0444 14.9446 18.5333 15.4335C18.9778 14.9891 19.3833 14.6113 19.75 14.3002C20.1167 13.9891 20.6222 13.8335 21.2667 13.8335C22.0889 13.8335 22.75 14.1168 23.25 14.6835C23.75 15.2502 24 15.8891 24 16.6002C24 16.9335 23.9333 17.2668 23.8 17.6002C23.6667 17.9335 23.4667 18.2335 23.2 18.5002L18.5333 23.1668Z" fill="white"/>
</svg>
