<svg width="24" height="24" viewBox="0 0 24 24" fill="none" xmlns="http://www.w3.org/2000/svg">
<g clip-path="url(#clip0_269_301)">
<path d="M11.985 24C10.3271 24 8.76904 23.6854 7.31086 23.0562C5.85268 22.427 4.58427 21.573 3.50562 20.4944C2.42697 19.4157 1.57303 18.1473 0.94382 16.6891C0.314607 15.231 0 13.6729 0 12.015C0 10.5169 0.289638 9.04869 0.868914 7.61049C1.44819 6.17228 2.25718 4.88889 3.29588 3.7603C4.33458 2.63171 5.58302 1.72285 7.0412 1.03371C8.49938 0.344569 10.0974 0 11.8352 0C12.2547 0 12.6841 0.019975 13.1236 0.0599251C13.563 0.0998752 14.0125 0.169788 14.4719 0.269663C14.2921 1.16854 14.3521 2.01748 14.6517 2.81648C14.9513 3.61548 15.4007 4.27965 16 4.80899C16.5993 5.33833 17.3134 5.70287 18.1423 5.90262C18.9713 6.10237 19.8252 6.05243 20.7041 5.75281C20.1848 6.93134 20.2597 8.05993 20.9288 9.13858C21.598 10.2172 22.5918 10.7765 23.9101 10.8165C23.9301 11.0362 23.9451 11.2409 23.9551 11.4307C23.965 11.6205 23.97 11.8252 23.97 12.0449C23.97 13.6829 23.6554 15.226 23.0262 16.6742C22.397 18.1223 21.5431 19.3908 20.4644 20.4794C19.3858 21.568 18.1174 22.427 16.6592 23.0562C15.201 23.6854 13.6429 24 11.985 24ZM10.1873 9.61798C10.6866 9.61798 11.1111 9.4432 11.4607 9.09363C11.8102 8.74407 11.985 8.3196 11.985 7.82022C11.985 7.32085 11.8102 6.89638 11.4607 6.54682C11.1111 6.19725 10.6866 6.02247 10.1873 6.02247C9.68789 6.02247 9.26342 6.19725 8.91386 6.54682C8.56429 6.89638 8.38951 7.32085 8.38951 7.82022C8.38951 8.3196 8.56429 8.74407 8.91386 9.09363C9.26342 9.4432 9.68789 9.61798 10.1873 9.61798ZM7.79026 15.6105C8.28964 15.6105 8.71411 15.4357 9.06367 15.0861C9.41323 14.7366 9.58801 14.3121 9.58801 13.8127C9.58801 13.3134 9.41323 12.8889 9.06367 12.5393C8.71411 12.1898 8.28964 12.015 7.79026 12.015C7.29089 12.015 6.86642 12.1898 6.51685 12.5393C6.16729 12.8889 5.99251 13.3134 5.99251 13.8127C5.99251 14.3121 6.16729 14.7366 6.51685 15.0861C6.86642 15.4357 7.29089 15.6105 7.79026 15.6105ZM15.5805 16.809C15.9201 16.809 16.2047 16.6941 16.4345 16.4644C16.6642 16.2347 16.779 15.9501 16.779 15.6105C16.779 15.2709 16.6642 14.9863 16.4345 14.7566C16.2047 14.5268 15.9201 14.412 15.5805 14.412C15.2409 14.412 14.9563 14.5268 14.7266 14.7566C14.4969 14.9863 14.382 15.2709 14.382 15.6105C14.382 15.9501 14.4969 16.2347 14.7266 16.4644C14.9563 16.6941 15.2409 16.809 15.5805 16.809ZM11.985 21.603C14.422 21.603 16.5843 20.764 18.4719 19.0861C20.3596 17.4082 21.3933 15.2709 21.573 12.6742C20.5743 12.2347 19.7903 11.6355 19.221 10.8764C18.6517 10.1174 18.2672 9.26841 18.0674 8.32959C16.5293 8.10986 15.211 7.45069 14.1124 6.35206C13.0137 5.25343 12.3346 3.93508 12.0749 2.397C10.4769 2.35705 9.07366 2.64669 7.86517 3.26592C6.65668 3.88514 5.64794 4.67915 4.83895 5.64794C4.02996 6.61673 3.42072 7.67041 3.01124 8.80899C2.60175 9.94757 2.397 11.0162 2.397 12.015C2.397 14.6717 3.33084 16.9338 5.1985 18.8015C7.06617 20.6692 9.32834 21.603 11.985 21.603Z" fill="white"/>
</g>
<defs>
<clipPath id="clip0_269_301">
<rect width="24" height="24" fill="white"/>
</clipPath>
</defs>
</svg>
