<svg width="24" height="25" viewBox="0 0 24 25" fill="none" xmlns="http://www.w3.org/2000/svg">
<g clip-path="url(#clip0_277_124)">
<path d="M6.4 19.8954C6.7619 19.5526 7.17619 19.1288 7.64286 18.624C8.10952 18.1192 8.5619 17.5811 9 17.0097C9.4381 16.4383 9.8 15.8526 10.0857 15.2526C10.3714 14.6526 10.5143 14.0764 10.5143 13.524C10.5143 12.2859 10.1286 11.2621 9.35714 10.4526C8.58571 9.64304 7.6 9.23828 6.4 9.23828C5.2 9.23828 4.21429 9.64304 3.44286 10.4526C2.67143 11.2621 2.28571 12.2859 2.28571 13.524C2.28571 14.0764 2.42857 14.6526 2.71429 15.2526C3 15.8526 3.3619 16.4383 3.8 17.0097C4.2381 17.5811 4.69048 18.1192 5.15714 18.624C5.62381 19.1288 6.0381 19.5526 6.4 19.8954ZM1.14286 24.0954V21.8097H5.08571C4.55238 21.3145 3.99048 20.7526 3.4 20.124C2.80952 19.4954 2.26667 18.8192 1.77143 18.0954C1.27619 17.3716 0.857143 16.6288 0.514286 15.8669C0.171429 15.1049 0 14.324 0 13.524C0 11.6573 0.609524 10.0954 1.82857 8.83828C3.04762 7.58114 4.57143 6.95257 6.4 6.95257C8.22857 6.95257 9.75238 7.58114 10.9714 8.83828C12.1905 10.0954 12.8 11.6573 12.8 13.524C12.8 14.324 12.6286 15.1049 12.2857 15.8669C11.9429 16.6288 11.5238 17.3716 11.0286 18.0954C10.5333 18.8192 9.99048 19.4954 9.4 20.124C8.80952 20.7526 8.24762 21.3145 7.71429 21.8097H24V24.0954H1.14286ZM16 19.524L13.8571 16.0669L15.1429 13.8097L16 15.2097L16.8571 13.8097H21.7143V3.524H10.2857V4.66685H8V3.524C8 2.89542 8.22381 2.35733 8.67143 1.90971C9.11905 1.46209 9.65714 1.23828 10.2857 1.23828H21.7143C22.3429 1.23828 22.881 1.46209 23.3286 1.90971C23.7762 2.35733 24 2.89542 24 3.524V13.8097C24 14.4383 23.7762 14.9764 23.3286 15.424C22.881 15.8716 22.3429 16.0954 21.7143 16.0954H18.1429L16 19.524ZM13.8 11.524L16.1143 10.124L18.4286 11.524L17.8286 8.89542L19.8857 7.09542L17.1714 6.86685L16.1143 4.38114L15.0571 6.86685L12.3429 7.09542L14.4 8.89542L13.8 11.524ZM6.4 14.9526C6.87619 14.9526 7.28095 14.7859 7.61429 14.4526C7.94762 14.1192 8.11429 13.7145 8.11429 13.2383C8.11429 12.7621 7.94762 12.3573 7.61429 12.024C7.28095 11.6907 6.87619 11.524 6.4 11.524C5.92381 11.524 5.51905 11.6907 5.18571 12.024C4.85238 12.3573 4.68571 12.7621 4.68571 13.2383C4.68571 13.7145 4.85238 14.1192 5.18571 14.4526C5.51905 14.7859 5.92381 14.9526 6.4 14.9526Z" fill="white"/>
</g>
<defs>
<clipPath id="clip0_277_124">
<rect width="24" height="24" fill="white" transform="translate(0 0.666992)"/>
</clipPath>
</defs>
</svg>
