<svg width="24" height="25" viewBox="0 0 24 25" fill="none" xmlns="http://www.w3.org/2000/svg">
<g clip-path="url(#clip0_269_221)">
<path d="M7.2 24.5835C6.54 24.5835 5.975 24.3485 5.505 23.8785C5.035 23.4085 4.8 22.8435 4.8 22.1835C4.8 21.5235 5.035 20.9585 5.505 20.4885C5.975 20.0185 6.54 19.7835 7.2 19.7835C7.86 19.7835 8.425 20.0185 8.895 20.4885C9.365 20.9585 9.6 21.5235 9.6 22.1835C9.6 22.8435 9.365 23.4085 8.895 23.8785C8.425 24.3485 7.86 24.5835 7.2 24.5835ZM19.2 24.5835C18.54 24.5835 17.975 24.3485 17.505 23.8785C17.035 23.4085 16.8 22.8435 16.8 22.1835C16.8 21.5235 17.035 20.9585 17.505 20.4885C17.975 20.0185 18.54 19.7835 19.2 19.7835C19.86 19.7835 20.425 20.0185 20.895 20.4885C21.365 20.9585 21.6 21.5235 21.6 22.1835C21.6 22.8435 21.365 23.4085 20.895 23.8785C20.425 24.3485 19.86 24.5835 19.2 24.5835ZM6.18 5.3835L9.06 11.3835H17.46L20.76 5.3835H6.18ZM5.04 2.9835H22.74C23.2 2.9835 23.55 3.1885 23.79 3.5985C24.03 4.0085 24.04 4.4235 23.82 4.8435L19.56 12.5235C19.34 12.9235 19.045 13.2335 18.675 13.4535C18.305 13.6735 17.9 13.7835 17.46 13.7835H8.52L7.2 16.1835H21.6V18.5835H7.2C6.3 18.5835 5.62 18.1885 5.16 17.3985C4.7 16.6085 4.68 15.8235 5.1 15.0435L6.72 12.1035L2.4 2.9835H0V0.583496H3.9L5.04 2.9835Z" fill="white"/>
</g>
<defs>
<clipPath id="clip0_269_221">
<rect width="24" height="24" fill="white" transform="translate(0 0.583496)"/>
</clipPath>
</defs>
</svg>
