<svg width="24" height="25" viewBox="0 0 24 25" fill="none" xmlns="http://www.w3.org/2000/svg">
<g clip-path="url(#clip0_153_25)">
<path d="M12 14.1247L2.40454 23.7207C2.14257 23.9823 1.8133 24.1163 1.41672 24.1226C1.02045 24.1286 0.685187 23.9946 0.410923 23.7207C0.136975 23.4464 0 23.1141 0 22.7239C0 22.3336 0.136975 22.0013 0.410923 21.7271L10.0069 12.1316L0.410923 2.53613C0.149269 2.27416 0.0152895 1.94489 0.00898463 1.54831C0.00299495 1.15204 0.136975 0.816779 0.410923 0.542515C0.685187 0.268566 1.01746 0.131592 1.40773 0.131592C1.79801 0.131592 2.13027 0.268566 2.40454 0.542515L12 10.1384L21.5955 0.542515C21.8574 0.280861 22.1867 0.146881 22.5833 0.140576C22.9795 0.134587 23.3148 0.268566 23.5891 0.542515C23.863 0.816779 24 1.14905 24 1.53932C24 1.9296 23.863 2.26187 23.5891 2.53613L13.9931 12.1316L23.5891 21.7271C23.8507 21.989 23.9847 22.3183 23.991 22.7149C23.997 23.1111 23.863 23.4464 23.5891 23.7207C23.3148 23.9946 22.9825 24.1316 22.5923 24.1316C22.202 24.1316 21.8697 23.9946 21.5955 23.7207L12 14.1247Z" fill="white"/>
</g>
<defs>
<clipPath id="clip0_153_25">
<rect width="24" height="24" fill="white" transform="translate(0 0.131592)"/>
</clipPath>
</defs>
</svg>
