<svg width="24" height="25" viewBox="0 0 24 25" fill="none" xmlns="http://www.w3.org/2000/svg">
<g clip-path="url(#clip0_277_57)">
<path d="M12.3194 10.8321L13.5014 12.0141L20.4333 5.08211L19.2514 3.90016L12.3194 10.8321ZM3.05556 21.2779H4.2375L11.6806 13.8349L10.4986 12.6529L3.05556 20.096V21.2779ZM14.3958 14.7293L9.60417 9.93766L14.9389 4.60294L14.0125 3.67655L7.01667 10.6724L5.22778 8.8835L12.1917 1.88766C12.7028 1.37655 13.3044 1.121 13.9965 1.121C14.6887 1.121 15.2903 1.37655 15.8014 1.88766L16.7278 2.81405L18.325 1.21683C18.5806 0.961274 18.884 0.833496 19.2354 0.833496C19.5868 0.833496 19.8903 0.961274 20.1458 1.21683L23.1167 4.18766C23.3722 4.44322 23.5 4.74669 23.5 5.09808C23.5 5.44947 23.3722 5.75294 23.1167 6.0085L14.3958 14.7293ZM5.29167 23.8335H0.5V19.0418L9.60417 9.93766L14.3958 14.7293L5.29167 23.8335Z" fill="white"/>
</g>
<defs>
<clipPath id="clip0_277_57">
<rect width="24" height="24" fill="white" transform="translate(0 0.333496)"/>
</clipPath>
</defs>
</svg>
