<svg width="24" height="25" viewBox="0 0 24 25" fill="none" xmlns="http://www.w3.org/2000/svg">
<g clip-path="url(#clip0_277_45)">
<path d="M1.89453 17.8026V5.80263C1.89453 4.68684 2.184 3.79737 2.76295 3.13421C3.3419 2.47105 4.10506 1.96579 5.05243 1.61842C5.99979 1.27105 7.07874 1.03947 8.28927 0.923684C9.49979 0.807895 10.7366 0.75 11.9998 0.75C13.3893 0.75 14.6998 0.807895 15.9314 0.923684C17.163 1.03947 18.2366 1.27105 19.1524 1.61842C20.0682 1.96579 20.7893 2.47105 21.3156 3.13421C21.8419 3.79737 22.1051 4.68684 22.1051 5.80263V17.8026C22.1051 19.0447 21.6787 20.0921 20.8261 20.9447C19.9735 21.7974 18.9261 22.2237 17.684 22.2237L19.5787 24.1184V24.75H17.0524L14.5261 22.2237H9.47348L6.94716 24.75H4.42085V24.1184L6.31558 22.2237C5.07348 22.2237 4.02611 21.7974 3.17348 20.9447C2.32085 20.0921 1.89453 19.0447 1.89453 17.8026ZM11.9998 3.27632C9.76822 3.27632 8.13664 3.40789 7.10506 3.67105C6.07348 3.93421 5.36822 4.22368 4.98927 4.53947H19.1366C18.8208 4.18158 18.1419 3.88158 17.0998 3.63947C16.0577 3.39737 14.3577 3.27632 11.9998 3.27632ZM4.42085 10.8553H10.7366V7.06579H4.42085V10.8553ZM17.684 13.3816H4.42085H19.5787H17.684ZM13.263 10.8553H19.5787V7.06579H13.263V10.8553ZM7.57874 18.4342C8.12611 18.4342 8.57874 18.2553 8.93664 17.8974C9.29453 17.5395 9.47348 17.0868 9.47348 16.5395C9.47348 15.9921 9.29453 15.5395 8.93664 15.1816C8.57874 14.8237 8.12611 14.6447 7.57874 14.6447C7.03137 14.6447 6.57874 14.8237 6.22085 15.1816C5.86295 15.5395 5.684 15.9921 5.684 16.5395C5.684 17.0868 5.86295 17.5395 6.22085 17.8974C6.57874 18.2553 7.03137 18.4342 7.57874 18.4342ZM16.4208 18.4342C16.9682 18.4342 17.4208 18.2553 17.7787 17.8974C18.1366 17.5395 18.3156 17.0868 18.3156 16.5395C18.3156 15.9921 18.1366 15.5395 17.7787 15.1816C17.4208 14.8237 16.9682 14.6447 16.4208 14.6447C15.8735 14.6447 15.4208 14.8237 15.063 15.1816C14.7051 15.5395 14.5261 15.9921 14.5261 16.5395C14.5261 17.0868 14.7051 17.5395 15.063 17.8974C15.4208 18.2553 15.8735 18.4342 16.4208 18.4342ZM6.31558 19.6974H17.684C18.2314 19.6974 18.684 19.5184 19.0419 19.1605C19.3998 18.8026 19.5787 18.35 19.5787 17.8026V13.3816H4.42085V17.8026C4.42085 18.35 4.59979 18.8026 4.95769 19.1605C5.31558 19.5184 5.76822 19.6974 6.31558 19.6974ZM11.9998 4.53947H19.1366H4.98927H11.9998Z" fill="white"/>
</g>
<defs>
<clipPath id="clip0_277_45">
<rect width="24" height="24" fill="white" transform="translate(0 0.75)"/>
</clipPath>
</defs>
</svg>
