<svg width="24" height="25" viewBox="0 0 24 25" fill="none" xmlns="http://www.w3.org/2000/svg">
<path d="M2.47618 14.5764C1.79523 14.5764 1.21237 14.3339 0.727586 13.8488C0.242529 13.364 0 12.7812 0 12.1002C0 11.4193 0.242529 10.8364 0.727586 10.3516C1.21237 9.86655 1.79523 9.62402 2.47618 9.62402C3.15713 9.62402 3.74014 9.86655 4.22519 10.3516C4.70998 10.8364 4.95237 11.4193 4.95237 12.1002C4.95237 12.7812 4.70998 13.364 4.22519 13.8488C3.74014 14.3339 3.15713 14.5764 2.47618 14.5764ZM12 14.5764C11.319 14.5764 10.7362 14.3339 10.2514 13.8488C9.76634 13.364 9.52382 12.7812 9.52382 12.1002C9.52382 11.4193 9.76634 10.8364 10.2514 10.3516C10.7362 9.86655 11.319 9.62402 12 9.62402C12.681 9.62402 13.2638 9.86655 13.7486 10.3516C14.2337 10.8364 14.4762 11.4193 14.4762 12.1002C14.4762 12.7812 14.2337 13.364 13.7486 13.8488C13.2638 14.3339 12.681 14.5764 12 14.5764ZM21.5238 14.5764C20.8429 14.5764 20.2599 14.3339 19.7748 13.8488C19.29 13.364 19.0476 12.7812 19.0476 12.1002C19.0476 11.4193 19.29 10.8364 19.7748 10.3516C20.2599 9.86655 20.8429 9.62402 21.5238 9.62402C22.2048 9.62402 22.7876 9.86655 23.2724 10.3516C23.7575 10.8364 24 11.4193 24 12.1002C24 12.7812 23.7575 13.364 23.2724 13.8488C22.7876 14.3339 22.2048 14.5764 21.5238 14.5764Z" fill="white"/>
</svg>
