<svg width="24" height="25" viewBox="0 0 24 25" fill="none" xmlns="http://www.w3.org/2000/svg">
<path d="M3.04657 20.4961C2.02504 20.4961 1.23385 20.1406 0.67301 19.4295C0.112168 18.7185 -0.0981472 17.8522 0.0420631 16.8306L1.30396 7.81712C1.48423 6.61532 2.02003 5.62383 2.91137 4.84266C3.8027 4.06148 4.84927 3.6709 6.05108 3.6709H17.9489C19.1507 3.6709 20.1973 4.06148 21.0886 4.84266C21.98 5.62383 22.5158 6.61532 22.696 7.81712L23.9579 16.8306C24.0981 17.8522 23.8878 18.7185 23.327 19.4295C22.7662 20.1406 21.975 20.4961 20.9534 20.4961C20.5328 20.4961 20.1422 20.421 19.7817 20.2708C19.4211 20.1206 19.0906 19.8952 18.7902 19.5948L16.0861 16.8907H7.91387L5.20981 19.5948C4.90936 19.8952 4.57887 20.1206 4.21833 20.2708C3.85779 20.421 3.4672 20.4961 3.04657 20.4961ZM3.52729 17.9123L6.95243 14.4871H17.0476L20.4727 17.9123C20.5128 17.9523 20.673 18.0124 20.9534 18.0925C21.1738 18.0925 21.349 18.0274 21.4792 17.8972C21.6094 17.767 21.6545 17.5918 21.6144 17.3715L20.2924 8.11757C20.2123 7.5367 19.9519 7.05097 19.5113 6.66038C19.0706 6.2698 18.5498 6.0745 17.9489 6.0745H6.05108C5.45018 6.0745 4.92939 6.2698 4.48873 6.66038C4.04807 7.05097 3.78768 7.5367 3.70756 8.11757L2.38558 17.3715C2.34552 17.5918 2.39059 17.767 2.52078 17.8972C2.65098 18.0274 2.82624 18.0925 3.04657 18.0925C3.08663 18.0925 3.24687 18.0324 3.52729 17.9123ZM18.009 13.2853C18.3495 13.2853 18.635 13.1701 18.8653 12.9398C19.0956 12.7095 19.2108 12.424 19.2108 12.0835C19.2108 11.743 19.0956 11.4576 18.8653 11.2272C18.635 10.9969 18.3495 10.8817 18.009 10.8817C17.6685 10.8817 17.3831 10.9969 17.1527 11.2272C16.9224 11.4576 16.8072 11.743 16.8072 12.0835C16.8072 12.424 16.9224 12.7095 17.1527 12.9398C17.3831 13.1701 17.6685 13.2853 18.009 13.2853ZM15.6054 9.67991C15.9459 9.67991 16.2313 9.56474 16.4617 9.33439C16.692 9.10405 16.8072 8.81862 16.8072 8.47811C16.8072 8.1376 16.692 7.85217 16.4617 7.62183C16.2313 7.39148 15.9459 7.27631 15.6054 7.27631C15.2649 7.27631 14.9795 7.39148 14.7491 7.62183C14.5188 7.85217 14.4036 8.1376 14.4036 8.47811C14.4036 8.81862 14.5188 9.10405 14.7491 9.33439C14.9795 9.56474 15.2649 9.67991 15.6054 9.67991ZM6.89234 13.2853H8.69504V11.1822H10.7982V9.37946H8.69504V7.27631H6.89234V9.37946H4.78918V11.1822H6.89234V13.2853Z" fill="white"/>
</svg>
