<svg width="24" height="25" viewBox="0 0 24 25" fill="none" xmlns="http://www.w3.org/2000/svg">
<path d="M8.20746 17.04L21.3614 3.88604C21.6719 3.57562 22.034 3.42041 22.4479 3.42041C22.8618 3.42041 23.224 3.57562 23.5344 3.88604C23.8448 4.19646 24 4.56508 24 4.9919C24 5.41873 23.8448 5.78735 23.5344 6.09777L9.29393 20.377C8.98351 20.6874 8.62135 20.8426 8.20746 20.8426C7.79357 20.8426 7.43142 20.6874 7.121 20.377L0.447003 13.703C0.136584 13.3926 -0.0121581 13.024 0.000776046 12.5972C0.0137101 12.1703 0.175386 11.8017 0.485805 11.4913C0.796223 11.1809 1.16485 11.0257 1.59167 11.0257C2.0185 11.0257 2.38712 11.1809 2.69754 11.4913L8.20746 17.04Z" fill="white"/>
</svg>
