<svg width="24" height="24" viewBox="0 0 24 24" fill="none" xmlns="http://www.w3.org/2000/svg">
<g clip-path="url(#clip0_269_37)">
<path d="M9.33333 20C6.73333 20 4.52778 19.0944 2.71667 17.2833C0.905556 15.4722 0 13.2667 0 10.6667V2.66667C0 1.93333 0.261111 1.30556 0.783333 0.783333C1.30556 0.261111 1.93333 0 2.66667 0H19.3333C20.6222 0 21.7222 0.455556 22.6333 1.36667C23.5444 2.27778 24 3.37778 24 4.66667C24 5.95556 23.5444 7.05556 22.6333 7.96667C21.7222 8.87778 20.6222 9.33333 19.3333 9.33333H18.6667V10.6667C18.6667 13.2667 17.7611 15.4722 15.95 17.2833C14.1389 19.0944 11.9333 20 9.33333 20ZM2.66667 6.66667H16V2.66667H2.66667V6.66667ZM9.33333 17.3333C11.1778 17.3333 12.75 16.6833 14.05 15.3833C15.35 14.0833 16 12.5111 16 10.6667V9.33333H2.66667V10.6667C2.66667 12.5111 3.31667 14.0833 4.61667 15.3833C5.91667 16.6833 7.48889 17.3333 9.33333 17.3333ZM18.6667 6.66667H19.3333C19.8889 6.66667 20.3611 6.47222 20.75 6.08333C21.1389 5.69444 21.3333 5.22222 21.3333 4.66667C21.3333 4.11111 21.1389 3.63889 20.75 3.25C20.3611 2.86111 19.8889 2.66667 19.3333 2.66667H18.6667V6.66667ZM0 24V21.3333H21.3333V24H0Z" fill="white"/>
</g>
<defs>
<clipPath id="clip0_269_37">
<rect width="24" height="24" fill="white"/>
</clipPath>
</defs>
</svg>
