<svg width="24" height="25" viewBox="0 0 24 25" fill="none" xmlns="http://www.w3.org/2000/svg">
<g clip-path="url(#clip0_277_163)">
<path d="M12 24.25C8.64444 24.25 5.80556 23.7333 3.48333 22.7C1.16111 21.6667 0 20.4056 0 18.9167V5.58333C0 4.11667 1.17222 2.86111 3.51667 1.81667C5.86111 0.772222 8.68889 0.25 12 0.25C15.3111 0.25 18.1389 0.772222 20.4833 1.81667C22.8278 2.86111 24 4.11667 24 5.58333V18.9167C24 20.4056 22.8389 21.6667 20.5167 22.7C18.1944 23.7333 15.3556 24.25 12 24.25ZM12 8.28333C13.9778 8.28333 15.9667 8 17.9667 7.43333C19.9667 6.86667 21.0889 6.26111 21.3333 5.61667C21.0889 4.97222 19.9722 4.36111 17.9833 3.78333C15.9944 3.20556 14 2.91667 12 2.91667C9.97778 2.91667 7.99444 3.2 6.05 3.76667C4.10556 4.33333 2.97778 4.95 2.66667 5.61667C2.97778 6.28333 4.10556 6.89444 6.05 7.45C7.99444 8.00556 9.97778 8.28333 12 8.28333ZM12 14.9167C12.9333 14.9167 13.8333 14.8722 14.7 14.7833C15.5667 14.6944 16.3944 14.5667 17.1833 14.4C17.9722 14.2333 18.7167 14.0278 19.4167 13.7833C20.1167 13.5389 20.7556 13.2611 21.3333 12.95V8.95C20.7556 9.26111 20.1167 9.53889 19.4167 9.78333C18.7167 10.0278 17.9722 10.2333 17.1833 10.4C16.3944 10.5667 15.5667 10.6944 14.7 10.7833C13.8333 10.8722 12.9333 10.9167 12 10.9167C11.0667 10.9167 10.1556 10.8722 9.26667 10.7833C8.37778 10.6944 7.53889 10.5667 6.75 10.4C5.96111 10.2333 5.22222 10.0278 4.53333 9.78333C3.84444 9.53889 3.22222 9.26111 2.66667 8.95V12.95C3.22222 13.2611 3.84444 13.5389 4.53333 13.7833C5.22222 14.0278 5.96111 14.2333 6.75 14.4C7.53889 14.5667 8.37778 14.6944 9.26667 14.7833C10.1556 14.8722 11.0667 14.9167 12 14.9167ZM12 21.5833C13.0222 21.5833 14.0611 21.5056 15.1167 21.35C16.1722 21.1944 17.1444 20.9889 18.0333 20.7333C18.9222 20.4778 19.6667 20.1889 20.2667 19.8667C20.8667 19.5444 21.2222 19.2167 21.3333 18.8833V15.6167C20.7556 15.9278 20.1167 16.2056 19.4167 16.45C18.7167 16.6944 17.9722 16.9 17.1833 17.0667C16.3944 17.2333 15.5667 17.3611 14.7 17.45C13.8333 17.5389 12.9333 17.5833 12 17.5833C11.0667 17.5833 10.1556 17.5389 9.26667 17.45C8.37778 17.3611 7.53889 17.2333 6.75 17.0667C5.96111 16.9 5.22222 16.6944 4.53333 16.45C3.84444 16.2056 3.22222 15.9278 2.66667 15.6167V18.9167C2.77778 19.25 3.12778 19.5722 3.71667 19.8833C4.30556 20.1944 5.04444 20.4778 5.93333 20.7333C6.82222 20.9889 7.8 21.1944 8.86667 21.35C9.93333 21.5056 10.9778 21.5833 12 21.5833Z" fill="white"/>
</g>
<defs>
<clipPath id="clip0_277_163">
<rect width="24" height="24" fill="white" transform="translate(0 0.25)"/>
</clipPath>
</defs>
</svg>
