<svg width="24" height="25" viewBox="0 0 24 25" fill="none" xmlns="http://www.w3.org/2000/svg">
<path d="M2.57143 22.0954C1.82857 22.0954 1.21429 21.8525 0.728571 21.3668C0.242857 20.8811 0 20.2668 0 19.5239C0 18.8096 0.242857 18.2025 0.728571 17.7025C1.21429 17.2025 1.82857 16.9525 2.57143 16.9525C3.28571 16.9525 3.89286 17.2025 4.39286 17.7025C4.89286 18.2025 5.14286 18.8096 5.14286 19.5239C5.14286 20.2668 4.89286 20.8811 4.39286 21.3668C3.89286 21.8525 3.28571 22.0954 2.57143 22.0954ZM2.57143 10.0954C1.82857 10.0954 1.21429 9.8525 0.728571 9.36678C0.242857 8.88107 0 8.26678 0 7.52393C0 6.80964 0.242857 6.2025 0.728571 5.7025C1.21429 5.2025 1.82857 4.9525 2.57143 4.9525C3.28571 4.9525 3.89286 5.2025 4.39286 5.7025C4.89286 6.2025 5.14286 6.80964 5.14286 7.52393C5.14286 8.26678 4.89286 8.88107 4.39286 9.36678C3.89286 9.8525 3.28571 10.0954 2.57143 10.0954ZM8.57143 15.2382V11.8096H15.4286V15.2382H8.57143ZM20.9143 23.8096L18.0857 21.9239C18.8857 20.6954 19.5 19.3739 19.9286 17.9596C20.3571 16.5454 20.5714 15.0668 20.5714 13.5239C20.5714 11.6382 20.2643 9.86678 19.65 8.20964C19.0357 6.5525 18.1714 5.0525 17.0571 3.70964L19.6714 1.52393C21.0429 3.1525 22.1071 4.98821 22.8643 7.03107C23.6214 9.07393 24 11.2382 24 13.5239C24 15.4382 23.7286 17.2596 23.1857 18.9882C22.6429 20.7168 21.8857 22.3239 20.9143 23.8096Z" fill="white"/>
</svg>
