<svg width="24" height="25" viewBox="0 0 24 25" fill="none" xmlns="http://www.w3.org/2000/svg">
<g clip-path="url(#clip0_277_109)">
<path d="M22.3715 8.95424L20.6905 7.27321L21.591 6.34264L17.7487 2.50029L16.8181 3.40084L15.107 1.6898L16.0076 0.759229C16.4679 0.298947 17.0382 0.0738093 17.7186 0.0838154C18.3991 0.0938216 18.9694 0.328965 19.4297 0.789247L23.3021 4.66162C23.7623 5.1219 23.9925 5.68724 23.9925 6.35765C23.9925 7.02806 23.7623 7.59341 23.3021 8.05369L22.3715 8.95424ZM7.96268 23.3931C7.5024 23.8534 6.93705 24.0835 6.26664 24.0835C5.59623 24.0835 5.03088 23.8534 4.5706 23.3931L0.698235 19.5207C0.237953 19.0604 0.0078125 18.4951 0.0078125 17.8247C0.0078125 17.1543 0.237953 16.5889 0.698235 16.1286L1.59879 15.2281L3.30983 16.9391L2.37926 17.8397L6.25163 21.712L7.15218 20.7815L8.86323 22.4925L7.96268 23.3931ZM19.88 13.3069L21.591 11.5959L12.4955 2.50029L10.7844 4.21134L19.88 13.3069ZM11.4748 21.712L13.1859 19.971L4.12033 10.9054L2.37926 12.6165L11.4748 21.712ZM11.2947 14.6877L14.5967 11.4157L12.6756 9.49457L9.40356 12.7966L11.2947 14.6877ZM13.1859 23.3931C12.7256 23.8534 12.1552 24.0835 11.4748 24.0835C10.7944 24.0835 10.2241 23.8534 9.76378 23.3931L0.698235 14.3275C0.237953 13.8672 0.0078125 13.2969 0.0078125 12.6165C0.0078125 11.9361 0.237953 11.3657 0.698235 10.9054L2.40928 9.19439C2.86956 8.73411 3.43491 8.50397 4.10532 8.50397C4.77573 8.50397 5.34107 8.73411 5.80136 9.19439L7.69251 11.0855L10.9945 7.78353L9.10338 5.92239C8.64309 5.46211 8.41295 4.89176 8.41295 4.21134C8.41295 3.53092 8.64309 2.96058 9.10338 2.50029L10.8144 0.789247C11.2747 0.328965 11.84 0.0988246 12.5105 0.0988246C13.1809 0.0988246 13.7462 0.328965 14.2065 0.789247L23.3021 9.88481C23.7623 10.3451 23.9925 10.9104 23.9925 11.5808C23.9925 12.2513 23.7623 12.8166 23.3021 13.2769L21.591 14.9879C21.1307 15.4482 20.5604 15.6784 19.88 15.6784C19.1996 15.6784 18.6292 15.4482 18.1689 14.9879L16.3078 13.0968L13.0058 16.3988L14.8969 18.29C15.3572 18.7502 15.5873 19.3156 15.5873 19.986C15.5873 20.6564 15.3572 21.2217 14.8969 21.682L13.1859 23.3931Z" fill="white"/>
</g>
<defs>
<clipPath id="clip0_277_109">
<rect width="24" height="24" fill="white" transform="translate(0 0.0834961)"/>
</clipPath>
</defs>
</svg>
