<svg width="24" height="25" viewBox="0 0 24 25" fill="none" xmlns="http://www.w3.org/2000/svg">
<path d="M7 22.8335V18.8335H0L3.85 12.8335H2L9 2.8335L12 7.1335L15 2.8335L22 12.8335H20.15L24 18.8335H17V22.8335H13V18.8335H11V22.8335H7ZM16.725 16.8335H20.35L16.475 10.8335H18.15L15 6.3335L13.225 8.8585L16 12.8335H14.15L16.725 16.8335ZM3.65 16.8335H14.35L10.475 10.8335H12.15L9 6.3335L5.85 10.8335H7.525L3.65 16.8335ZM3.65 16.8335H7.525H5.85H12.15H10.475H14.35H3.65ZM16.725 16.8335H14.15H16H13.225H18.15H16.475H20.35H16.725Z" fill="white"/>
</svg>
