<svg width="24" height="25" viewBox="0 0 24 25" fill="none" xmlns="http://www.w3.org/2000/svg">
<path d="M9.43586 18.5C9.24095 18.5 9.0715 18.4341 8.92751 18.3023C8.78378 18.1705 8.71191 17.9968 8.71191 17.7812V7.21878C8.71191 7.00318 8.78457 6.82949 8.92989 6.69769C9.07495 6.5659 9.24427 6.5 9.43785 6.5C9.48638 6.5 9.65437 6.57439 9.94183 6.72315L14.9554 11.7367C15.0707 11.8518 15.1549 11.9708 15.2079 12.0939C15.261 12.2169 15.2875 12.3523 15.2875 12.5C15.2875 12.6477 15.261 12.7831 15.2079 12.9061C15.1549 13.0292 15.0707 13.1482 14.9554 13.2633L9.94183 18.2772C9.87261 18.3462 9.79531 18.4006 9.70993 18.4403C9.6248 18.4801 9.53345 18.5 9.43586 18.5Z" fill="white"/>
</svg>
