<svg width="24" height="25" viewBox="0 0 24 25" fill="none" xmlns="http://www.w3.org/2000/svg">
<path d="M9 17.4834L17.4 12.0834L9 6.6834V17.4834ZM2.4 21.6834C1.74 21.6834 1.175 21.4484 0.705 20.9784C0.235 20.5084 0 19.9434 0 19.2834V4.8834C0 4.2234 0.235 3.6584 0.705 3.1884C1.175 2.7184 1.74 2.4834 2.4 2.4834H21.6C22.26 2.4834 22.825 2.7184 23.295 3.1884C23.765 3.6584 24 4.2234 24 4.8834V19.2834C24 19.9434 23.765 20.5084 23.295 20.9784C22.825 21.4484 22.26 21.6834 21.6 21.6834H2.4ZM2.4 19.2834H21.6V4.8834H2.4V19.2834Z" fill="white"/>
</svg>
