<svg width="24" height="25" viewBox="0 0 24 25" fill="none" xmlns="http://www.w3.org/2000/svg">
<g clip-path="url(#clip0_277_103)">
<path d="M8 24.0835H2.66667C1.93333 24.0835 1.30556 23.8224 0.783333 23.3002C0.261111 22.7779 0 22.1502 0 21.4168V12.0835C0 10.4168 0.316667 8.85572 0.95 7.40016C1.58333 5.94461 2.43889 4.67794 3.51667 3.60016C4.59444 2.52239 5.86111 1.66683 7.31667 1.0335C8.77222 0.400163 10.3333 0.0834961 12 0.0834961C13.6667 0.0834961 15.2278 0.400163 16.6833 1.0335C18.1389 1.66683 19.4056 2.52239 20.4833 3.60016C21.5611 4.67794 22.4167 5.94461 23.05 7.40016C23.6833 8.85572 24 10.4168 24 12.0835V21.4168C24 22.1502 23.7389 22.7779 23.2167 23.3002C22.6944 23.8224 22.0667 24.0835 21.3333 24.0835H16V13.4168H21.3333V12.0835C21.3333 9.4835 20.4278 7.27794 18.6167 5.46683C16.8056 3.65572 14.6 2.75016 12 2.75016C9.4 2.75016 7.19444 3.65572 5.38333 5.46683C3.57222 7.27794 2.66667 9.4835 2.66667 12.0835V13.4168H8V24.0835ZM5.33333 16.0835H2.66667V21.4168H5.33333V16.0835ZM18.6667 16.0835V21.4168H21.3333V16.0835H18.6667Z" fill="white"/>
</g>
<defs>
<clipPath id="clip0_277_103">
<rect width="24" height="24" fill="white" transform="translate(0 0.0834961)"/>
</clipPath>
</defs>
</svg>
