<svg width="24" height="25" viewBox="0 0 24 25" fill="none" xmlns="http://www.w3.org/2000/svg">
<g clip-path="url(#clip0_277_138)">
<path d="M6.74157 6.55466L10.0974 2.21009C10.3371 1.89049 10.6217 1.65578 10.9513 1.50597C11.2809 1.35616 11.6255 1.28125 11.985 1.28125C12.3446 1.28125 12.6891 1.35616 13.0187 1.50597C13.3483 1.65578 13.633 1.89049 13.8727 2.21009L17.2285 6.55466L22.3221 8.26252C22.8414 8.42232 23.2509 8.71696 23.5506 9.14642C23.8502 9.57588 24 10.0503 24 10.5696C24 10.8093 23.965 11.049 23.8951 11.2887C23.8252 11.5284 23.7104 11.7582 23.5506 11.9779L20.2547 16.652L20.3745 21.5659C20.3945 22.265 20.1648 22.8543 19.6854 23.3337C19.206 23.8131 18.6467 24.0528 18.0075 24.0528C17.9675 24.0528 17.7478 24.0228 17.3483 23.9629L11.985 22.4648L6.62172 23.9629C6.52185 24.0028 6.41199 24.0278 6.29213 24.0378C6.17228 24.0478 6.06242 24.0528 5.96255 24.0528C5.32335 24.0528 4.76404 23.8131 4.28464 23.3337C3.80524 22.8543 3.57553 22.265 3.59551 21.5659L3.71536 16.6221L0.449438 11.9779C0.289638 11.7582 0.174782 11.5284 0.104869 11.2887C0.0349563 11.049 0 10.8093 0 10.5696C0 10.0703 0.144819 9.60584 0.434457 9.17638C0.724095 8.74692 1.12859 8.4423 1.64794 8.26252L6.74157 6.55466ZM8.20974 8.62207L2.397 10.5397L6.11236 15.903L5.99251 21.6258L11.985 19.9779L17.9775 21.6558L17.8577 15.903L21.573 10.5996L15.7603 8.62207L11.985 3.67825L8.20974 8.62207Z" fill="white"/>
</g>
<defs>
<clipPath id="clip0_277_138">
<rect width="24" height="24" fill="white" transform="translate(0 0.666992)"/>
</clipPath>
</defs>
</svg>
