<svg width="24" height="24" viewBox="0 0 24 24" fill="none" xmlns="http://www.w3.org/2000/svg">
<g clip-path="url(#clip0_269_47)">
<path d="M6.94032 21.4704H15.7941V8.82213H13.2644C12.6742 8.82213 12.1893 8.9697 11.8099 9.26482C11.4304 9.55995 10.9772 9.99209 10.4502 10.5613C10.0286 11.025 9.53848 11.5046 8.97985 12C8.42122 12.4954 7.74138 12.859 6.94032 13.0909V21.4704ZM4.41068 24V13.0593C3.3145 12.7642 2.40804 12.1739 1.69131 11.2885C0.974577 10.4032 0.616211 9.37022 0.616211 8.18972C0.616211 7.07246 0.937687 6.08169 1.58064 5.21739C2.22359 4.3531 3.05099 3.75231 4.06285 3.41502C4.5477 2.40316 5.2697 1.58103 6.22886 0.948617C7.18802 0.316206 8.26838 0 9.46997 0C10.2078 0 10.8982 0.126482 11.5411 0.379447C12.1841 0.632411 12.769 0.969697 13.2961 1.3913C13.5069 1.34914 13.7071 1.31225 13.8968 1.28063C14.0866 1.24901 14.2974 1.2332 14.5293 1.2332C15.9206 1.2332 17.1116 1.72859 18.1024 2.71937C19.0932 3.71014 19.5885 4.90119 19.5885 6.29249C19.5885 6.75626 19.5306 7.19895 19.4146 7.62055C19.2987 8.04216 19.1248 8.44269 18.8929 8.82213H20.8534C21.549 8.82213 22.1445 9.06983 22.6399 9.56522C23.1353 10.0606 23.383 10.6561 23.383 11.3518V18.9407C23.383 19.6364 23.1353 20.2319 22.6399 20.7273C22.1445 21.2227 21.549 21.4704 20.8534 21.4704H18.3237V24H4.41068ZM3.14586 8.18972C3.14586 8.88538 3.39355 9.4809 3.88894 9.97628C4.38433 10.4717 4.97985 10.7194 5.6755 10.7194C6.35007 10.7194 6.92451 10.498 7.39882 10.0553C7.87313 9.61265 8.36325 9.11726 8.86918 8.56917C9.39618 8 9.9917 7.47826 10.6557 7.00395C11.3198 6.52964 12.1893 6.29249 13.2644 6.29249H17.0589C17.0589 5.59684 16.8112 5.00132 16.3158 4.50593C15.8204 4.01054 15.2249 3.76285 14.5293 3.76285C14.0022 3.76285 13.5596 3.83136 13.2012 3.96838L12.6636 4.17391L11.6834 3.35178C11.4515 3.16206 11.1511 2.9776 10.7822 2.79842C10.4133 2.61924 9.97589 2.52964 9.46997 2.52964C8.79539 2.52964 8.17879 2.70883 7.62016 3.06719C7.06153 3.42556 6.63466 3.91041 6.33953 4.52174L5.89684 5.47036L4.88499 5.81818C4.35798 5.98682 3.93637 6.28722 3.62016 6.71937C3.30396 7.15152 3.14586 7.64163 3.14586 8.18972ZM18.3237 18.9407H20.8534V11.3518H18.3237V18.9407Z" fill="white"/>
</g>
<defs>
<clipPath id="clip0_269_47">
<rect width="24" height="24" fill="white"/>
</clipPath>
</defs>
</svg>
