<svg width="24" height="25" viewBox="0 0 24 25" fill="none" xmlns="http://www.w3.org/2000/svg">
<g clip-path="url(#clip0_277_47)">
<path d="M4.42085 24.75C4.06295 24.75 3.76295 24.6289 3.52085 24.3868C3.27874 24.1447 3.15769 23.8447 3.15769 23.4868V20.8974C2.77874 20.4763 2.47348 20.0079 2.2419 19.4921C2.01032 18.9763 1.89453 18.4132 1.89453 17.8026V5.80263C1.89453 4.05526 2.70506 2.77632 4.32611 1.96579C5.94716 1.15526 8.50506 0.75 11.9998 0.75C15.6208 0.75 18.2103 1.13947 19.7682 1.91842C21.3261 2.69737 22.1051 3.99211 22.1051 5.80263V17.8026C22.1051 18.4132 21.9893 18.9763 21.7577 19.4921C21.5261 20.0079 21.2208 20.4763 20.8419 20.8974V23.4868C20.8419 23.8447 20.7208 24.1447 20.4787 24.3868C20.2366 24.6289 19.9366 24.75 19.5787 24.75H18.3156C17.9577 24.75 17.6577 24.6289 17.4156 24.3868C17.1735 24.1447 17.0524 23.8447 17.0524 23.4868V22.2237H6.94716V23.4868C6.94716 23.8447 6.82611 24.1447 6.584 24.3868C6.3419 24.6289 6.0419 24.75 5.684 24.75H4.42085ZM12.063 4.53947H19.1366H4.98927H12.063ZM17.0524 13.3816H4.42085H19.5787H17.0524ZM4.42085 10.8553H19.5787V7.06579H4.42085V10.8553ZM7.57874 18.4342C8.10506 18.4342 8.55243 18.25 8.92085 17.8816C9.28927 17.5132 9.47348 17.0658 9.47348 16.5395C9.47348 16.0132 9.28927 15.5658 8.92085 15.1974C8.55243 14.8289 8.10506 14.6447 7.57874 14.6447C7.05243 14.6447 6.60506 14.8289 6.23664 15.1974C5.86822 15.5658 5.684 16.0132 5.684 16.5395C5.684 17.0658 5.86822 17.5132 6.23664 17.8816C6.60506 18.25 7.05243 18.4342 7.57874 18.4342ZM16.4208 18.4342C16.9472 18.4342 17.3945 18.25 17.763 17.8816C18.1314 17.5132 18.3156 17.0658 18.3156 16.5395C18.3156 16.0132 18.1314 15.5658 17.763 15.1974C17.3945 14.8289 16.9472 14.6447 16.4208 14.6447C15.8945 14.6447 15.4472 14.8289 15.0787 15.1974C14.7103 15.5658 14.5261 16.0132 14.5261 16.5395C14.5261 17.0658 14.7103 17.5132 15.0787 17.8816C15.4472 18.25 15.8945 18.4342 16.4208 18.4342ZM4.98927 4.53947H19.1366C18.8208 4.18158 18.1419 3.88158 17.0998 3.63947C16.0577 3.39737 14.3787 3.27632 12.063 3.27632C9.81032 3.27632 8.16295 3.40789 7.12085 3.67105C6.07874 3.93421 5.36822 4.22368 4.98927 4.53947ZM6.94716 19.6974H17.0524C17.7472 19.6974 18.3419 19.45 18.8366 18.9553C19.3314 18.4605 19.5787 17.8658 19.5787 17.1711V13.3816H4.42085V17.1711C4.42085 17.8658 4.66822 18.4605 5.16295 18.9553C5.65769 19.45 6.25243 19.6974 6.94716 19.6974Z" fill="white"/>
</g>
<defs>
<clipPath id="clip0_277_47">
<rect width="24" height="24" fill="white" transform="translate(0 0.75)"/>
</clipPath>
</defs>
</svg>
